<?plantuml 1.2026.1?><svg xmlns="http://www.w3.org/2000/svg" xmlns:xlink="http://www.w3.org/1999/xlink" contentStyleType="text/css" data-diagram-type="DESCRIPTION" height="607px" preserveAspectRatio="none" style="width:504px;height:607px;background:#FFFFFF;" version="1.1" viewBox="0 0 504 607" width="504px" zoomAndPan="magnify"><defs/><g><!--cluster Application Layer--><g class="cluster" data-qualified-name="Application Layer" data-source-line="4" id="ent0002"><path d="M175.5,6 L314.5654,6 A3.75,3.75 0 0 1 317.0654,8.5 L324.0654,28.2969 L324.5,28.2969 A2.5,2.5 0 0 1 327,30.7969 L327,100.8 A2.5,2.5 0 0 1 324.5,103.3 L175.5,103.3 A2.5,2.5 0 0 1 173,100.8 L173,8.5 A2.5,2.5 0 0 1 175.5,6" fill="none" style="stroke:#000000;stroke-width:1.5;"/><line style="stroke:#000000;stroke-width:1.5;" x1="173" x2="324.0654" y1="28.2969" y2="28.2969"/><text fill="#000000" font-family="sans-serif" font-size="14" font-weight="bold" lengthAdjust="spacing" textLength="138.0654" x="177" y="20.9951">Application Layer</text></g><!--cluster Service / Logic Layer--><g class="cluster" data-qualified-name="Service . Logic Layer" data-source-line="8" id="ent0004"><path d="M23.5,127.3 L187.9883,127.3 A3.75,3.75 0 0 1 190.4883,129.8 L197.4883,149.5969 L197.5,149.5969 A2.5,2.5 0 0 1 200,152.0969 L200,222.1 A2.5,2.5 0 0 1 197.5,224.6 L23.5,224.6 A2.5,2.5 0 0 1 21,222.1 L21,129.8 A2.5,2.5 0 0 1 23.5,127.3" fill="none" style="stroke:#000000;stroke-width:1.5;"/><line style="stroke:#000000;stroke-width:1.5;" x1="21" x2="197.4883" y1="149.5969" y2="149.5969"/><text fill="#000000" font-family="sans-serif" font-size="14" font-weight="bold" lengthAdjust="spacing" textLength="163.4883" x="25" y="142.2951">Service / Logic Layer</text></g><!--cluster HAL Layer--><g class="cluster" data-qualified-name="HAL Layer" data-source-line="12" id="ent0006"><path d="M8.5,248.6 L89.7402,248.6 A3.75,3.75 0 0 1 92.2402,251.1 L99.2402,270.8969 L480.5,270.8969 A2.5,2.5 0 0 1 483,273.3969 L483,343.39 A2.5,2.5 0 0 1 480.5,345.89 L8.5,345.89 A2.5,2.5 0 0 1 6,343.39 L6,251.1 A2.5,2.5 0 0 1 8.5,248.6" fill="none" style="stroke:#000000;stroke-width:1.5;"/><line style="stroke:#000000;stroke-width:1.5;" x1="6" x2="99.2402" y1="270.8969" y2="270.8969"/><text fill="#000000" font-family="sans-serif" font-size="14" font-weight="bold" lengthAdjust="spacing" textLength="80.2402" x="10" y="263.5951">HAL Layer</text></g><!--cluster Driver Layer--><g class="cluster" data-qualified-name="Driver Layer" data-source-line="18" id="ent0010"><path d="M13.5,369.89 L112.1172,369.89 A3.75,3.75 0 0 1 114.6172,372.39 L121.6172,392.1869 L494.5,392.1869 A2.5,2.5 0 0 1 497,394.6869 L497,464.69 A2.5,2.5 0 0 1 494.5,467.19 L13.5,467.19 A2.5,2.5 0 0 1 11,464.69 L11,372.39 A2.5,2.5 0 0 1 13.5,369.89" fill="none" style="stroke:#000000;stroke-width:1.5;"/><line style="stroke:#000000;stroke-width:1.5;" x1="11" x2="121.6172" y1="392.1869" y2="392.1869"/><text fill="#000000" font-family="sans-serif" font-size="14" font-weight="bold" lengthAdjust="spacing" textLength="97.6172" x="15" y="384.8851">Driver Layer</text></g><!--cluster MCU / Physical Hardware--><g class="cluster" data-qualified-name="MCU . Physical Hardware" data-source-line="24" id="ent0014"><path d="M27.5,491.19 L225.71,491.19 A3.75,3.75 0 0 1 228.21,493.69 L235.21,513.4869 L420.5,513.4869 A2.5,2.5 0 0 1 423,515.9869 L423,597.69 A2.5,2.5 0 0 1 420.5,600.19 L27.5,600.19 A2.5,2.5 0 0 1 25,597.69 L25,493.69 A2.5,2.5 0 0 1 27.5,491.19" fill="none" style="stroke:#000000;stroke-width:1.5;"/><line style="stroke:#000000;stroke-width:1.5;" x1="25" x2="235.21" y1="513.4869" y2="513.4869"/><text fill="#000000" font-family="sans-serif" font-size="14" font-weight="bold" lengthAdjust="spacing" textLength="197.21" x="29" y="506.1851">MCU / Physical Hardware</text></g><!--entity main.cpp--><g class="entity" data-qualified-name="Application Layer.main.cpp" data-source-line="5" id="ent0003"><rect fill="#F1F1F1" height="46.2969" rx="2.5" ry="2.5" style="stroke:#181818;stroke-width:0.5;" width="104.9004" x="197.55" y="41"/><rect fill="#F1F1F1" height="10" style="stroke:#181818;stroke-width:0.5;" width="15" x="282.4504" y="46"/><rect fill="#F1F1F1" height="2" style="stroke:#181818;stroke-width:0.5;" width="4" x="280.4504" y="48"/><rect fill="#F1F1F1" height="2" style="stroke:#181818;stroke-width:0.5;" width="4" x="280.4504" y="52"/><text fill="#000000" font-family="sans-serif" font-size="14" lengthAdjust="spacing" textLength="64.9004" x="212.55" y="73.9951">main.cpp</text></g><!--entity PatternGen--><g class="entity" data-qualified-name="Service . Logic Layer.PatternGen" data-source-line="9" id="ent0005"><rect fill="#F1F1F1" height="46.2969" rx="2.5" ry="2.5" style="stroke:#181818;stroke-width:0.5;" width="137.207" x="37.4" y="162.3"/><rect fill="#F1F1F1" height="10" style="stroke:#181818;stroke-width:0.5;" width="15" x="154.607" y="167.3"/><rect fill="#F1F1F1" height="2" style="stroke:#181818;stroke-width:0.5;" width="4" x="152.607" y="169.3"/><rect fill="#F1F1F1" height="2" style="stroke:#181818;stroke-width:0.5;" width="4" x="152.607" y="173.3"/><text fill="#000000" font-family="sans-serif" font-size="14" lengthAdjust="spacing" textLength="97.207" x="52.4" y="195.2951">pattern_gen.c</text></g><!--entity HAL_GPIO--><g class="entity" data-qualified-name="HAL Layer.HAL_GPIO" data-source-line="13" id="ent0007"><rect fill="#F1F1F1" height="46.2969" rx="2.5" ry="2.5" style="stroke:#181818;stroke-width:0.5;" width="110.7178" x="194.64" y="283.6"/><rect fill="#F1F1F1" height="10" style="stroke:#181818;stroke-width:0.5;" width="15" x="285.3578" y="288.6"/><rect fill="#F1F1F1" height="2" style="stroke:#181818;stroke-width:0.5;" width="4" x="283.3578" y="290.6"/><rect fill="#F1F1F1" height="2" style="stroke:#181818;stroke-width:0.5;" width="4" x="283.3578" y="294.6"/><text fill="#000000" font-family="sans-serif" font-size="14" lengthAdjust="spacing" textLength="70.7178" x="209.64" y="316.5951">hal_gpio.c</text></g><!--entity HAL_Button--><g class="entity" data-qualified-name="HAL Layer.HAL_Button" data-source-line="14" id="ent0008"><rect fill="#F1F1F1" height="46.2969" rx="2.5" ry="2.5" style="stroke:#181818;stroke-width:0.5;" width="126.666" x="340.67" y="283.6"/><rect fill="#F1F1F1" height="10" style="stroke:#181818;stroke-width:0.5;" width="15" x="447.336" y="288.6"/><rect fill="#F1F1F1" height="2" style="stroke:#181818;stroke-width:0.5;" width="4" x="445.336" y="290.6"/><rect fill="#F1F1F1" height="2" style="stroke:#181818;stroke-width:0.5;" width="4" x="445.336" y="294.6"/><text fill="#000000" font-family="sans-serif" font-size="14" lengthAdjust="spacing" textLength="86.666" x="355.67" y="316.5951">hal_button.c</text></g><!--entity HAL_Network--><g class="entity" data-qualified-name="HAL Layer.HAL_Network" data-source-line="15" id="ent0009"><rect fill="#F1F1F1" height="46.2969" rx="2.5" ry="2.5" style="stroke:#181818;stroke-width:0.5;" width="137.3438" x="22.33" y="283.6"/><rect fill="#F1F1F1" height="10" style="stroke:#181818;stroke-width:0.5;" width="15" x="139.6737" y="288.6"/><rect fill="#F1F1F1" height="2" style="stroke:#181818;stroke-width:0.5;" width="4" x="137.6737" y="290.6"/><rect fill="#F1F1F1" height="2" style="stroke:#181818;stroke-width:0.5;" width="4" x="137.6737" y="294.6"/><text fill="#000000" font-family="sans-serif" font-size="14" lengthAdjust="spacing" textLength="97.3438" x="37.33" y="316.5951">hal_network.c</text></g><!--entity MCU_GPIO--><g class="entity" data-qualified-name="Driver Layer.MCU_GPIO" data-source-line="19" id="ent0011"><rect fill="#F1F1F1" height="46.2969" rx="2.5" ry="2.5" style="stroke:#181818;stroke-width:0.5;" width="119.584" x="190.21" y="404.89"/><rect fill="#F1F1F1" height="10" style="stroke:#181818;stroke-width:0.5;" width="15" x="289.794" y="409.89"/><rect fill="#F1F1F1" height="2" style="stroke:#181818;stroke-width:0.5;" width="4" x="287.794" y="411.89"/><rect fill="#F1F1F1" height="2" style="stroke:#181818;stroke-width:0.5;" width="4" x="287.794" y="415.89"/><text fill="#000000" font-family="sans-serif" font-size="14" lengthAdjust="spacing" textLength="79.584" x="205.21" y="437.8851">mcu_gpio.c</text></g><!--entity MCU_Button--><g class="entity" data-qualified-name="Driver Layer.MCU_Button" data-source-line="20" id="ent0012"><rect fill="#F1F1F1" height="46.2969" rx="2.5" ry="2.5" style="stroke:#181818;stroke-width:0.5;" width="135.5322" x="345.23" y="404.89"/><rect fill="#F1F1F1" height="10" style="stroke:#181818;stroke-width:0.5;" width="15" x="460.7622" y="409.89"/><rect fill="#F1F1F1" height="2" style="stroke:#181818;stroke-width:0.5;" width="4" x="458.7622" y="411.89"/><rect fill="#F1F1F1" height="2" style="stroke:#181818;stroke-width:0.5;" width="4" x="458.7622" y="415.89"/><text fill="#000000" font-family="sans-serif" font-size="14" lengthAdjust="spacing" textLength="95.5322" x="360.23" y="437.8851">mcu_button.c</text></g><!--entity LWIP_Driver--><g class="entity" data-qualified-name="Driver Layer.LWIP_Driver" data-source-line="21" id="ent0013"><rect fill="#F1F1F1" height="46.2969" rx="2.5" ry="2.5" style="stroke:#181818;stroke-width:0.5;" width="128.4502" x="26.77" y="404.89"/><rect fill="#F1F1F1" height="10" style="stroke:#181818;stroke-width:0.5;" width="15" x="135.2202" y="409.89"/><rect fill="#F1F1F1" height="2" style="stroke:#181818;stroke-width:0.5;" width="4" x="133.2202" y="411.89"/><rect fill="#F1F1F1" height="2" style="stroke:#181818;stroke-width:0.5;" width="4" x="133.2202" y="415.89"/><text fill="#000000" font-family="sans-serif" font-size="14" lengthAdjust="spacing" textLength="88.4502" x="41.77" y="437.8851">lwip_driver.c</text></g><!--entity LED--><g class="entity" data-qualified-name="MCU . Physical Hardware.LED" data-source-line="25" id="ent0015"><ellipse cx="250" cy="555.19" fill="#F1F1F1" rx="8" ry="8" style="stroke:#181818;stroke-width:0.5;"/><text fill="#000000" font-family="sans-serif" font-size="14" lengthAdjust="spacing" textLength="53.0811" x="223.4595" y="585.1851">LED Pin</text></g><!--entity BUTTON--><g class="entity" data-qualified-name="MCU . Physical Hardware.BUTTON" data-source-line="26" id="ent0016"><ellipse cx="363" cy="555.19" fill="#F1F1F1" rx="8" ry="8" style="stroke:#181818;stroke-width:0.5;"/><text fill="#000000" font-family="sans-serif" font-size="14" lengthAdjust="spacing" textLength="72.5498" x="326.7251" y="585.1851">Button Pin</text></g><!--entity NetworkInterface--><g class="entity" data-qualified-name="MCU . Physical Hardware.NetworkInterface" data-source-line="27" id="ent0017"><ellipse cx="111" cy="555.19" fill="#F1F1F1" rx="8" ry="8" style="stroke:#181818;stroke-width:0.5;"/><text fill="#000000" font-family="sans-serif" font-size="14" lengthAdjust="spacing" textLength="125.583" x="48.2085" y="585.1851">Network Interface</text></g><!--link main.cpp to HAL_GPIO--><g class="link" data-entity-1="ent0003" data-entity-2="ent0007" data-link-type="dependency" data-source-line="30" id="lnk18"><path d="M267.48,87.41 C267.48,133.66 267.48,230.71 267.48,277.2" fill="none" id="main.cpp-to-HAL_GPIO" style="stroke:#181818;stroke-width:1;"/><polygon fill="#181818" points="267.48,283.2,271.48,274.2,267.48,278.2,263.48,274.2,267.48,283.2" style="stroke:#181818;stroke-width:1;"/></g><!--link main.cpp to HAL_Button--><g class="link" data-entity-1="ent0003" data-entity-2="ent0008" data-link-type="dependency" data-source-line="31" id="lnk19"><path d="M302.57,64.19 C347.18,64.19 404,64.19 404,64.19 C404,64.19 404,216.78 404,277.49" fill="none" id="main.cpp-to-HAL_Button" style="stroke:#181818;stroke-width:1;"/><polygon fill="#181818" points="404,283.49,408,274.49,404,278.49,400,274.49,404,283.49" style="stroke:#181818;stroke-width:1;"/></g><!--link main.cpp to PatternGen--><g class="link" data-entity-1="ent0003" data-entity-2="ent0005" data-link-type="dependency" data-source-line="32" id="lnk20"><path d="M232.52,87.68 C232.52,123.14 232.52,186.19 232.52,186.19 C232.52,186.19 210.49,186.19 180.81,186.19" fill="none" id="main.cpp-to-PatternGen" style="stroke:#181818;stroke-width:1;"/><polygon fill="#181818" points="174.81,186.19,183.81,190.19,179.81,186.19,183.81,182.19,174.81,186.19" style="stroke:#181818;stroke-width:1;"/></g><!--link PatternGen to HAL_Network--><g class="link" data-entity-1="ent0005" data-entity-2="ent0009" data-link-type="dependency" data-source-line="34" id="lnk21"><path d="M98.53,208.84 C98.53,230.31 98.53,255.97 98.53,277.43" fill="none" id="PatternGen-to-HAL_Network" style="stroke:#181818;stroke-width:1;"/><polygon fill="#181818" points="98.53,283.43,102.53,274.43,98.53,278.43,94.53,274.43,98.53,283.43" style="stroke:#181818;stroke-width:1;"/></g><!--link HAL_GPIO to MCU_GPIO--><g class="link" data-entity-1="ent0007" data-entity-2="ent0011" data-link-type="dependency" data-source-line="36" id="lnk22"><path d="M250,330.13 C250,351.61 250,377.27 250,398.73" fill="none" id="HAL_GPIO-to-MCU_GPIO" style="stroke:#181818;stroke-width:1;"/><polygon fill="#181818" points="250,404.73,254,395.73,250,399.73,246,395.73,250,404.73" style="stroke:#181818;stroke-width:1;"/></g><!--link HAL_Button to MCU_Button--><g class="link" data-entity-1="ent0008" data-entity-2="ent0012" data-link-type="dependency" data-source-line="37" id="lnk23"><path d="M406.28,330.13 C406.28,351.61 406.28,377.27 406.28,398.73" fill="none" id="HAL_Button-to-MCU_Button" style="stroke:#181818;stroke-width:1;"/><polygon fill="#181818" points="406.28,404.73,410.28,395.73,406.28,399.73,402.28,395.73,406.28,404.73" style="stroke:#181818;stroke-width:1;"/></g><!--link HAL_Network to LWIP_Driver--><g class="link" data-entity-1="ent0009" data-entity-2="ent0013" data-link-type="dependency" data-source-line="38" id="lnk24"><path d="M91,330.13 C91,351.61 91,377.27 91,398.73" fill="none" id="HAL_Network-to-LWIP_Driver" style="stroke:#181818;stroke-width:1;"/><polygon fill="#181818" points="91,404.73,95,395.73,91,399.73,87,395.73,91,404.73" style="stroke:#181818;stroke-width:1;"/></g><!--link MCU_GPIO to LED--><g class="link" data-entity-1="ent0011" data-entity-2="ent0015" data-link-type="dependency" data-source-line="40" id="lnk25"><path d="M250,451.66 C250,480.24 250,520.95 250,540.33" fill="none" id="MCU_GPIO-to-LED" style="stroke:#181818;stroke-width:1;"/><polygon fill="#181818" points="250,546.33,254,537.33,250,541.33,246,537.33,250,546.33" style="stroke:#181818;stroke-width:1;"/></g><!--link MCU_Button to BUTTON--><g class="link" data-entity-1="ent0012" data-entity-2="ent0016" data-link-type="dependency" data-source-line="41" id="lnk26"><path d="M376.12,451.66 C376.12,487.86 376.12,547.11 376.12,549.14" fill="none" id="MCU_Button-to-BUTTON" style="stroke:#181818;stroke-width:1;"/><polygon fill="#181818" points="376.12,555.14,380.12,546.14,376.12,550.14,372.12,546.14,376.12,555.14" style="stroke:#181818;stroke-width:1;"/></g><!--link LWIP_Driver to NetworkInterface--><g class="link" data-entity-1="ent0013" data-entity-2="ent0017" data-link-type="dependency" data-source-line="42" id="lnk27"><path d="M98.11,451.66 C98.11,487.86 98.11,547.11 98.11,549.14" fill="none" id="LWIP_Driver-to-NetworkInterface" style="stroke:#181818;stroke-width:1;"/><polygon fill="#181818" points="98.11,555.14,102.11,546.14,98.11,550.14,94.11,546.14,98.11,555.14" style="stroke:#181818;stroke-width:1;"/></g><?plantuml-src TLBHQi8m57tlLrpwj3sumJvWe5DKwBIWiWSf9SQi1jCaf54fO_--D8bjElMnvvnxxkcvgOwKIwHG2LYKKd32zKhNZC2fP6zHrRACSg9hIK0eVH1H914-ee90F9IIKOmq5HmIL1CLmqy4dHjiIqJv2vOoYtw3kHLHPue9l48Y2eeVp4gaDL4yBuYno01La3faIdZFRZPC7bWS4CiBIOMVDy9yciwNjwBTIMl10zd80hT2qyH5g6EWN3YabsYiw9ceHvtWKnZgysDp9rGZweLgPFT2iGkL-TxkyyhaQvxcBa4lb74mZQU7kZ8tOp13Qdz1YhXyJyyG9vCnf9J7rcGozgXRsXAZpNgzN7ZE_plCkRdBDyB4IZpQWasAxYN0OF0Es-ifihkCstdBTGyWCvR1LpVgbpTykyEnrwApADpHSUtIqCRHGQMDSUjasQQgqC22lgRUf2N-b_C7?></g></svg>