<?xml version="1.0" encoding="UTF-8" standalone="no"?>
<!DOCTYPE svg PUBLIC "-//W3C//DTD SVG 1.1//EN"
 "http://www.w3.org/Graphics/SVG/1.1/DTD/svg11.dtd">
<!-- Generated by graphviz version 2.43.0 (0)
 -->
<!-- Title: ClassDiagram Pages: 1 -->
<svg width="572pt" height="295pt"
 viewBox="0.00 0.00 572.00 295.00" xmlns="http://www.w3.org/2000/svg" xmlns:xlink="http://www.w3.org/1999/xlink">
<g id="graph0" class="graph" transform="scale(1 1) rotate(0) translate(4 291)">
<title>ClassDiagram</title>
<polygon fill="#ffffff" stroke="transparent" points="-4,4 -4,-291 568,-291 568,4 -4,4"/>
<!-- DigitalOut -->
<g id="node1" class="node">
<title>DigitalOut</title>
<polygon fill="#f8f9fa" stroke="black" points="0,-0.5 0,-72.5 123,-72.5 123,-0.5 0,-0.5"/>
<text text-anchor="middle" x="61.5" y="-59.7" font-family="Helvetica,sans-Serif" font-size="11.00">DigitalOut</text>
<polyline fill="none" stroke="black" points="0,-52.5 123,-52.5 "/>
<text text-anchor="start" x="8" y="-39.7" font-family="Helvetica,sans-Serif" font-size="11.00">&#45; pin: int</text>
<text text-anchor="start" x="8" y="-27.7" font-family="Helvetica,sans-Serif" font-size="11.00">&#45; value: bool</text>
<polyline fill="none" stroke="black" points="0,-20.5 123,-20.5 "/>
<text text-anchor="start" x="8" y="-7.7" font-family="Helvetica,sans-Serif" font-size="11.00">+write(value: bool)</text>
</g>
<!-- DigitalIn -->
<g id="node2" class="node">
<title>DigitalIn</title>
<polygon fill="#f8f9fa" stroke="black" points="209,-0.5 209,-72.5 322,-72.5 322,-0.5 209,-0.5"/>
<text text-anchor="middle" x="265.5" y="-59.7" font-family="Helvetica,sans-Serif" font-size="11.00">DigitalIn</text>
<polyline fill="none" stroke="black" points="209,-52.5 322,-52.5 "/>
<text text-anchor="start" x="217" y="-39.7" font-family="Helvetica,sans-Serif" font-size="11.00">&#45; pin: int</text>
<text text-anchor="start" x="217" y="-27.7" font-family="Helvetica,sans-Serif" font-size="11.00">&#45; pullMode: string</text>
<polyline fill="none" stroke="black" points="209,-20.5 322,-20.5 "/>
<text text-anchor="start" x="217" y="-7.7" font-family="Helvetica,sans-Serif" font-size="11.00">+read(): bool</text>
</g>
<!-- main -->
<g id="node3" class="node">
<title>main</title>
<path fill="#e9ecef" stroke="black" d="M100,-204.5C100,-204.5 227,-204.5 227,-204.5 233,-204.5 239,-210.5 239,-216.5 239,-216.5 239,-256.5 239,-256.5 239,-262.5 233,-268.5 227,-268.5 227,-268.5 100,-268.5 100,-268.5 94,-268.5 88,-262.5 88,-256.5 88,-256.5 88,-216.5 88,-216.5 88,-210.5 94,-204.5 100,-204.5"/>
<text text-anchor="middle" x="163.5" y="-255.7" font-family="Helvetica,sans-Serif" font-size="11.00">main()</text>
<polyline fill="none" stroke="black" points="88,-248.5 239,-248.5 "/>
<text text-anchor="start" x="96" y="-235.7" font-family="Helvetica,sans-Serif" font-size="11.00">&#45; led: DigitalOut</text>
<text text-anchor="start" x="96" y="-223.7" font-family="Helvetica,sans-Serif" font-size="11.00">&#45; button: DigitalIn</text>
<text text-anchor="start" x="96" y="-211.7" font-family="Helvetica,sans-Serif" font-size="11.00">&#45; previous_pressed: bool</text>
</g>
<!-- main&#45;&gt;DigitalOut -->
<g id="edge1" class="edge">
<title>main&#45;&gt;DigitalOut</title>
<path fill="none" stroke="black" d="M105.5,-204.37C105.5,-204.37 105.5,-82.61 105.5,-82.61"/>
<polygon fill="black" stroke="black" points="109,-82.61 105.5,-72.61 102,-82.61 109,-82.61"/>
</g>
<!-- main&#45;&gt;DigitalIn -->
<g id="edge2" class="edge">
<title>main&#45;&gt;DigitalIn</title>
<path fill="none" stroke="black" d="M219,-204.37C219,-204.37 219,-82.61 219,-82.61"/>
<polygon fill="black" stroke="black" points="222.5,-82.61 219,-72.61 215.5,-82.61 222.5,-82.61"/>
</g>
<!-- main&#45;&gt;main -->
<g id="edge3" class="edge">
<title>main&#45;&gt;main</title>
<path fill="none" stroke="red" stroke-dasharray="1,5" d="M163.5,-268.77C163.5,-278.67 163.5,-287 163.5,-287 163.5,-287 280.5,-287 280.5,-287 280.5,-287 280.5,-138 280.5,-138 280.5,-138 229,-138 229,-138 229,-138 229,-194.25 229,-194.25"/>
<polygon fill="red" stroke="red" points="225.5,-194.25 229,-204.25 232.5,-194.25 225.5,-194.25"/>
</g>
</g>
</svg>
