<?xml version="1.0" encoding="UTF-8" standalone="no"?>
<!DOCTYPE svg PUBLIC "-//W3C//DTD SVG 1.1//EN"
 "http://www.w3.org/Graphics/SVG/1.1/DTD/svg11.dtd">
<!-- Generated by graphviz version 2.43.0 (0)
 -->
<!-- Title: ClassDiagram Pages: 1 -->
<svg width="717pt" height="739pt"
 viewBox="0.00 0.00 717.00 739.00" xmlns="http://www.w3.org/2000/svg" xmlns:xlink="http://www.w3.org/1999/xlink">
<g id="graph0" class="graph" transform="scale(1 1) rotate(0) translate(4 735)">
<title>ClassDiagram</title>
<polygon fill="#ffffff" stroke="transparent" points="-4,4 -4,-735 713,-735 713,4 -4,4"/>
<!-- LWIPStack -->
<g id="node1" class="node">
<title>LWIPStack</title>
<polygon fill="#f8f9fa" stroke="black" points="0,-0.5 0,-516.5 179,-516.5 179,-0.5 0,-0.5"/>
<text text-anchor="middle" x="89.5" y="-503.7" font-family="Helvetica,sans-Serif" font-size="11.00">LWIPStack</text>
<polyline fill="none" stroke="black" points="0,-496.5 179,-496.5 "/>
<text text-anchor="start" x="8" y="-483.7" font-family="Helvetica,sans-Serif" font-size="11.00">&#45; lwip_present: bool</text>
<text text-anchor="start" x="8" y="-471.7" font-family="Helvetica,sans-Serif" font-size="11.00">&#45; ethernet_enabled: bool</text>
<text text-anchor="start" x="8" y="-459.7" font-family="Helvetica,sans-Serif" font-size="11.00">&#45; ipv4_enabled: bool</text>
<text text-anchor="start" x="8" y="-447.7" font-family="Helvetica,sans-Serif" font-size="11.00">&#45; ipv6_enabled: bool</text>
<text text-anchor="start" x="8" y="-435.7" font-family="Helvetica,sans-Serif" font-size="11.00">&#45; tcp_enabled: bool</text>
<text text-anchor="start" x="8" y="-423.7" font-family="Helvetica,sans-Serif" font-size="11.00">&#45; udp_enabled: bool</text>
<text text-anchor="start" x="8" y="-411.7" font-family="Helvetica,sans-Serif" font-size="11.00">&#45; dns_enabled: bool</text>
<text text-anchor="start" x="8" y="-399.7" font-family="Helvetica,sans-Serif" font-size="11.00">&#45; dhcp_enabled: bool</text>
<text text-anchor="start" x="8" y="-387.7" font-family="Helvetica,sans-Serif" font-size="11.00">&#45; autoip_enabled: bool</text>
<text text-anchor="start" x="8" y="-375.7" font-family="Helvetica,sans-Serif" font-size="11.00">&#45; sntp_enabled: bool</text>
<text text-anchor="start" x="8" y="-363.7" font-family="Helvetica,sans-Serif" font-size="11.00">&#45; ppp_enabled: bool</text>
<text text-anchor="start" x="8" y="-351.7" font-family="Helvetica,sans-Serif" font-size="11.00">&#45; tcp_keepalive_enabled: bool</text>
<text text-anchor="start" x="8" y="-339.7" font-family="Helvetica,sans-Serif" font-size="11.00">&#45; tcp_wnd_size: int</text>
<text text-anchor="start" x="8" y="-327.7" font-family="Helvetica,sans-Serif" font-size="11.00">&#45; tcp_mss: int</text>
<text text-anchor="start" x="8" y="-315.7" font-family="Helvetica,sans-Serif" font-size="11.00">&#45; tcp_snd_buf: int</text>
<text text-anchor="start" x="8" y="-303.7" font-family="Helvetica,sans-Serif" font-size="11.00">&#45; tcp_rcv_buf: int</text>
<text text-anchor="start" x="8" y="-291.7" font-family="Helvetica,sans-Serif" font-size="11.00">&#45; udp_wnd_size: int</text>
<text text-anchor="start" x="8" y="-279.7" font-family="Helvetica,sans-Serif" font-size="11.00">&#45; pbuf_pool_size: int</text>
<text text-anchor="start" x="8" y="-267.7" font-family="Helvetica,sans-Serif" font-size="11.00">&#45; pbuf_pool_bufsize: int</text>
<text text-anchor="start" x="8" y="-255.7" font-family="Helvetica,sans-Serif" font-size="11.00">&#45; arp_table_size: int</text>
<text text-anchor="start" x="8" y="-243.7" font-family="Helvetica,sans-Serif" font-size="11.00">&#45; nd_cache_size: int</text>
<text text-anchor="start" x="8" y="-231.7" font-family="Helvetica,sans-Serif" font-size="11.00">&#45; dns_table_size: int</text>
<text text-anchor="start" x="8" y="-219.7" font-family="Helvetica,sans-Serif" font-size="11.00">&#45; dhcp_lease_time: int</text>
<text text-anchor="start" x="8" y="-207.7" font-family="Helvetica,sans-Serif" font-size="11.00">&#45; dhcp_renewal_time: int</text>
<text text-anchor="start" x="8" y="-195.7" font-family="Helvetica,sans-Serif" font-size="11.00">&#45; dhcp_t1_value: int</text>
<text text-anchor="start" x="8" y="-183.7" font-family="Helvetica,sans-Serif" font-size="11.00">&#45; dhcp_t2_value: int</text>
<text text-anchor="start" x="8" y="-171.7" font-family="Helvetica,sans-Serif" font-size="11.00">&#45; dns_server_count: int</text>
<text text-anchor="start" x="8" y="-159.7" font-family="Helvetica,sans-Serif" font-size="11.00">&#45; dns_retry_count: int</text>
<text text-anchor="start" x="8" y="-147.7" font-family="Helvetica,sans-Serif" font-size="11.00">&#45; dns_timeout: int</text>
<text text-anchor="start" x="8" y="-135.7" font-family="Helvetica,sans-Serif" font-size="11.00">&#45; dns_max_name_length: int</text>
<text text-anchor="start" x="8" y="-123.7" font-family="Helvetica,sans-Serif" font-size="11.00">&#45; dns_max_label_length: int</text>
<text text-anchor="start" x="8" y="-111.7" font-family="Helvetica,sans-Serif" font-size="11.00">&#45; dns_max_query_length: int</text>
<text text-anchor="start" x="8" y="-99.7" font-family="Helvetica,sans-Serif" font-size="11.00">&#45; dns_min_rtt_timeout: int</text>
<text text-anchor="start" x="8" y="-87.7" font-family="Helvetica,sans-Serif" font-size="11.00">&#45; dns_max_rtt_timeout: int</text>
<text text-anchor="start" x="8" y="-75.7" font-family="Helvetica,sans-Serif" font-size="11.00">&#45; dns_retries: int</text>
<text text-anchor="start" x="8" y="-63.7" font-family="Helvetica,sans-Serif" font-size="11.00">&#45; dns_total_attempts: int</text>
<text text-anchor="start" x="8" y="-51.7" font-family="Helvetica,sans-Serif" font-size="11.00">&#45; dns_response_wait_time: int</text>
<text text-anchor="start" x="8" y="-39.7" font-family="Helvetica,sans-Serif" font-size="11.00">&#45; dns_addresses_limit: int</text>
<text text-anchor="start" x="8" y="-27.7" font-family="Helvetica,sans-Serif" font-size="11.00">&#45; dns_cache_size: int</text>
<polyline fill="none" stroke="black" points="0,-20.5 179,-20.5 "/>
<text text-anchor="start" x="8" y="-7.7" font-family="Helvetica,sans-Serif" font-size="11.00">+configure()</text>
</g>
<!-- DigitalOut -->
<g id="node2" class="node">
<title>DigitalOut</title>
<polygon fill="#f8f9fa" stroke="black" points="265.5,-222.5 265.5,-294.5 351.5,-294.5 351.5,-222.5 265.5,-222.5"/>
<text text-anchor="middle" x="308.5" y="-281.7" font-family="Helvetica,sans-Serif" font-size="11.00">DigitalOut</text>
<polyline fill="none" stroke="black" points="265.5,-274.5 351.5,-274.5 "/>
<text text-anchor="start" x="273.5" y="-261.7" font-family="Helvetica,sans-Serif" font-size="11.00">&#45; pin: int</text>
<text text-anchor="start" x="273.5" y="-249.7" font-family="Helvetica,sans-Serif" font-size="11.00">&#45; value: bool</text>
<polyline fill="none" stroke="black" points="265.5,-242.5 351.5,-242.5 "/>
<text text-anchor="start" x="273.5" y="-229.7" font-family="Helvetica,sans-Serif" font-size="11.00">+write(bool)</text>
</g>
<!-- DigitalIn -->
<g id="node3" class="node">
<title>DigitalIn</title>
<polygon fill="#f8f9fa" stroke="black" points="438,-222.5 438,-294.5 551,-294.5 551,-222.5 438,-222.5"/>
<text text-anchor="middle" x="494.5" y="-281.7" font-family="Helvetica,sans-Serif" font-size="11.00">DigitalIn</text>
<polyline fill="none" stroke="black" points="438,-274.5 551,-274.5 "/>
<text text-anchor="start" x="446" y="-261.7" font-family="Helvetica,sans-Serif" font-size="11.00">&#45; pin: int</text>
<text text-anchor="start" x="446" y="-249.7" font-family="Helvetica,sans-Serif" font-size="11.00">&#45; pullMode: string</text>
<polyline fill="none" stroke="black" points="438,-242.5 551,-242.5 "/>
<text text-anchor="start" x="446" y="-229.7" font-family="Helvetica,sans-Serif" font-size="11.00">+read(): bool</text>
</g>
<!-- main -->
<g id="node4" class="node">
<title>main</title>
<path fill="#e9ecef" stroke="black" d="M245,-648.5C245,-648.5 372,-648.5 372,-648.5 378,-648.5 384,-654.5 384,-660.5 384,-660.5 384,-700.5 384,-700.5 384,-706.5 378,-712.5 372,-712.5 372,-712.5 245,-712.5 245,-712.5 239,-712.5 233,-706.5 233,-700.5 233,-700.5 233,-660.5 233,-660.5 233,-654.5 239,-648.5 245,-648.5"/>
<text text-anchor="middle" x="308.5" y="-699.7" font-family="Helvetica,sans-Serif" font-size="11.00">main()</text>
<polyline fill="none" stroke="black" points="233,-692.5 384,-692.5 "/>
<text text-anchor="start" x="241" y="-679.7" font-family="Helvetica,sans-Serif" font-size="11.00">&#45; led: DigitalOut</text>
<text text-anchor="start" x="241" y="-667.7" font-family="Helvetica,sans-Serif" font-size="11.00">&#45; button: DigitalIn</text>
<text text-anchor="start" x="241" y="-655.7" font-family="Helvetica,sans-Serif" font-size="11.00">&#45; previous_pressed: bool</text>
</g>
<!-- main&#45;&gt;LWIPStack -->
<g id="edge3" class="edge">
<title>main&#45;&gt;LWIPStack</title>
<path fill="none" stroke="black" d="M232.83,-680C169.52,-680 89.5,-680 89.5,-680 89.5,-680 89.5,-526.74 89.5,-526.74"/>
<polygon fill="black" stroke="black" points="93,-526.74 89.5,-516.74 86,-526.74 93,-526.74"/>
</g>
<!-- main&#45;&gt;DigitalOut -->
<g id="edge1" class="edge">
<title>main&#45;&gt;DigitalOut</title>
<path fill="none" stroke="black" d="M308.5,-648.44C308.5,-648.44 308.5,-304.66 308.5,-304.66"/>
<polygon fill="black" stroke="black" points="312,-304.66 308.5,-294.66 305,-304.66 312,-304.66"/>
</g>
<!-- main&#45;&gt;DigitalIn -->
<g id="edge2" class="edge">
<title>main&#45;&gt;DigitalIn</title>
<path fill="none" stroke="black" d="M367.75,-648.4C367.75,-549.8 367.75,-258 367.75,-258 367.75,-258 427.8,-258 427.8,-258"/>
<polygon fill="black" stroke="black" points="427.8,-261.5 437.8,-258 427.8,-254.5 427.8,-261.5"/>
</g>
<!-- main&#45;&gt;main -->
<g id="edge4" class="edge">
<title>main&#45;&gt;main</title>
<path fill="none" stroke="red" stroke-dasharray="1,5" d="M308.5,-712.77C308.5,-722.67 308.5,-731 308.5,-731 308.5,-731 206,-731 206,-731 206,-731 206,-582 206,-582 206,-582 249.25,-582 249.25,-582 249.25,-582 249.25,-638.25 249.25,-638.25"/>
<polygon fill="red" stroke="red" points="245.75,-638.25 249.25,-648.25 252.75,-638.25 245.75,-638.25"/>
</g>
</g>
</svg>
