<?xml version="1.0" encoding="UTF-8" standalone="no"?>
<!DOCTYPE svg PUBLIC "-//W3C//DTD SVG 1.1//EN"
 "http://www.w3.org/Graphics/SVG/1.1/DTD/svg11.dtd">
<!-- Generated by graphviz version 2.43.0 (0)
 -->
<!-- Title: ClassDiagram Pages: 1 -->
<svg width="545pt" height="295pt"
 viewBox="0.00 0.00 544.50 295.00" xmlns="http://www.w3.org/2000/svg" xmlns:xlink="http://www.w3.org/1999/xlink">
<g id="graph0" class="graph" transform="scale(1 1) rotate(0) translate(4 291)">
<title>ClassDiagram</title>
<polygon fill="#ffffff" stroke="transparent" points="-4,4 -4,-291 540.5,-291 540.5,4 -4,4"/>
<!-- DigitalOut -->
<g id="node1" class="node">
<title>DigitalOut</title>
<polygon fill="#f8f9fa" stroke="black" points="0,-0.5 0,-72.5 86,-72.5 86,-0.5 0,-0.5"/>
<text text-anchor="middle" x="43" y="-59.7" font-family="Helvetica,sans-Serif" font-size="11.00">DigitalOut</text>
<polyline fill="none" stroke="black" points="0,-52.5 86,-52.5 "/>
<text text-anchor="start" x="8" y="-39.7" font-family="Helvetica,sans-Serif" font-size="11.00">&#45; pin: int</text>
<text text-anchor="start" x="8" y="-27.7" font-family="Helvetica,sans-Serif" font-size="11.00">&#45; value: bool</text>
<polyline fill="none" stroke="black" points="0,-20.5 86,-20.5 "/>
<text text-anchor="start" x="8" y="-7.7" font-family="Helvetica,sans-Serif" font-size="11.00">+write(bool)</text>
</g>
<!-- DigitalIn -->
<g id="node2" class="node">
<title>DigitalIn</title>
<polygon fill="#f8f9fa" stroke="black" points="172.5,-0.5 172.5,-72.5 285.5,-72.5 285.5,-0.5 172.5,-0.5"/>
<text text-anchor="middle" x="229" y="-59.7" font-family="Helvetica,sans-Serif" font-size="11.00">DigitalIn</text>
<polyline fill="none" stroke="black" points="172.5,-52.5 285.5,-52.5 "/>
<text text-anchor="start" x="180.5" y="-39.7" font-family="Helvetica,sans-Serif" font-size="11.00">&#45; pin: int</text>
<text text-anchor="start" x="180.5" y="-27.7" font-family="Helvetica,sans-Serif" font-size="11.00">&#45; pullMode: string</text>
<polyline fill="none" stroke="black" points="172.5,-20.5 285.5,-20.5 "/>
<text text-anchor="start" x="180.5" y="-7.7" font-family="Helvetica,sans-Serif" font-size="11.00">+read(): bool</text>
</g>
<!-- main -->
<g id="node3" class="node">
<title>main</title>
<path fill="#e9ecef" stroke="black" d="M72.5,-204.5C72.5,-204.5 199.5,-204.5 199.5,-204.5 205.5,-204.5 211.5,-210.5 211.5,-216.5 211.5,-216.5 211.5,-256.5 211.5,-256.5 211.5,-262.5 205.5,-268.5 199.5,-268.5 199.5,-268.5 72.5,-268.5 72.5,-268.5 66.5,-268.5 60.5,-262.5 60.5,-256.5 60.5,-256.5 60.5,-216.5 60.5,-216.5 60.5,-210.5 66.5,-204.5 72.5,-204.5"/>
<text text-anchor="middle" x="136" y="-255.7" font-family="Helvetica,sans-Serif" font-size="11.00">main()</text>
<polyline fill="none" stroke="black" points="60.5,-248.5 211.5,-248.5 "/>
<text text-anchor="start" x="68.5" y="-235.7" font-family="Helvetica,sans-Serif" font-size="11.00">&#45; led: DigitalOut</text>
<text text-anchor="start" x="68.5" y="-223.7" font-family="Helvetica,sans-Serif" font-size="11.00">&#45; button: DigitalIn</text>
<text text-anchor="start" x="68.5" y="-211.7" font-family="Helvetica,sans-Serif" font-size="11.00">&#45; previous_pressed: bool</text>
</g>
<!-- main&#45;&gt;DigitalOut -->
<g id="edge1" class="edge">
<title>main&#45;&gt;DigitalOut</title>
<path fill="none" stroke="black" d="M77.5,-204.37C77.5,-204.37 77.5,-82.61 77.5,-82.61"/>
<polygon fill="black" stroke="black" points="81,-82.61 77.5,-72.61 74,-82.61 81,-82.61"/>
</g>
<!-- main&#45;&gt;DigitalIn -->
<g id="edge2" class="edge">
<title>main&#45;&gt;DigitalIn</title>
<path fill="none" stroke="black" d="M192,-204.37C192,-204.37 192,-82.61 192,-82.61"/>
<polygon fill="black" stroke="black" points="195.5,-82.61 192,-72.61 188.5,-82.61 195.5,-82.61"/>
</g>
<!-- main&#45;&gt;main -->
<g id="edge3" class="edge">
<title>main&#45;&gt;main</title>
<path fill="none" stroke="red" stroke-dasharray="1,5" d="M136,-268.77C136,-278.67 136,-287 136,-287 136,-287 30.25,-287 30.25,-287 30.25,-287 30.25,-138 30.25,-138 30.25,-138 69,-138 69,-138 69,-138 69,-194.25 69,-194.25"/>
<polygon fill="red" stroke="red" points="65.5,-194.25 69,-204.25 72.5,-194.25 65.5,-194.25"/>
</g>
</g>
</svg>
