<?xml version="1.0" encoding="UTF-8" standalone="no"?>
<!DOCTYPE svg PUBLIC "-//W3C//DTD SVG 1.1//EN"
 "http://www.w3.org/Graphics/SVG/1.1/DTD/svg11.dtd">
<!-- Generated by graphviz version 2.43.0 (0)
 -->
<!-- Title: ClassDiagram Pages: 1 -->
<svg width="294pt" height="276pt"
 viewBox="0.00 0.00 293.50 276.00" xmlns="http://www.w3.org/2000/svg" xmlns:xlink="http://www.w3.org/1999/xlink">
<g id="graph0" class="graph" transform="scale(1 1) rotate(0) translate(4 272)">
<title>ClassDiagram</title>
<polygon fill="#ffffff" stroke="transparent" points="-4,4 -4,-272 289.5,-272 289.5,4 -4,4"/>
<!-- DigitalOut -->
<g id="node1" class="node">
<title>DigitalOut</title>
<polygon fill="#f8f9fa" stroke="black" points="0,-0.5 0,-72.5 86,-72.5 86,-0.5 0,-0.5"/>
<text text-anchor="middle" x="43" y="-59.7" font-family="Helvetica,sans-Serif" font-size="11.00">DigitalOut</text>
<polyline fill="none" stroke="black" points="0,-52.5 86,-52.5 "/>
<text text-anchor="start" x="8" y="-39.7" font-family="Helvetica,sans-Serif" font-size="11.00">&#45; pin: int</text>
<text text-anchor="start" x="8" y="-27.7" font-family="Helvetica,sans-Serif" font-size="11.00">&#45; value: bool</text>
<polyline fill="none" stroke="black" points="0,-20.5 86,-20.5 "/>
<text text-anchor="start" x="8" y="-7.7" font-family="Helvetica,sans-Serif" font-size="11.00">+write(bool)</text>
</g>
<!-- DigitalIn -->
<g id="node2" class="node">
<title>DigitalIn</title>
<polygon fill="#f8f9fa" stroke="black" points="172.5,-0.5 172.5,-72.5 285.5,-72.5 285.5,-0.5 172.5,-0.5"/>
<text text-anchor="middle" x="229" y="-59.7" font-family="Helvetica,sans-Serif" font-size="11.00">DigitalIn</text>
<polyline fill="none" stroke="black" points="172.5,-52.5 285.5,-52.5 "/>
<text text-anchor="start" x="180.5" y="-39.7" font-family="Helvetica,sans-Serif" font-size="11.00">&#45; pin: int</text>
<text text-anchor="start" x="180.5" y="-27.7" font-family="Helvetica,sans-Serif" font-size="11.00">&#45; pullMode: string</text>
<polyline fill="none" stroke="black" points="172.5,-20.5 285.5,-20.5 "/>
<text text-anchor="start" x="180.5" y="-7.7" font-family="Helvetica,sans-Serif" font-size="11.00">+read(): bool</text>
</g>
<!-- main -->
<g id="node3" class="node">
<title>main</title>
<path fill="#e9ecef" stroke="black" d="M72.5,-203.5C72.5,-203.5 199.5,-203.5 199.5,-203.5 205.5,-203.5 211.5,-209.5 211.5,-215.5 211.5,-215.5 211.5,-255.5 211.5,-255.5 211.5,-261.5 205.5,-267.5 199.5,-267.5 199.5,-267.5 72.5,-267.5 72.5,-267.5 66.5,-267.5 60.5,-261.5 60.5,-255.5 60.5,-255.5 60.5,-215.5 60.5,-215.5 60.5,-209.5 66.5,-203.5 72.5,-203.5"/>
<text text-anchor="middle" x="136" y="-254.7" font-family="Helvetica,sans-Serif" font-size="11.00">main()</text>
<polyline fill="none" stroke="black" points="60.5,-247.5 211.5,-247.5 "/>
<text text-anchor="start" x="68.5" y="-234.7" font-family="Helvetica,sans-Serif" font-size="11.00">&#45; led: DigitalOut</text>
<text text-anchor="start" x="68.5" y="-222.7" font-family="Helvetica,sans-Serif" font-size="11.00">&#45; button: DigitalIn</text>
<text text-anchor="start" x="68.5" y="-210.7" font-family="Helvetica,sans-Serif" font-size="11.00">&#45; previous_pressed: bool</text>
</g>
<!-- main&#45;&gt;DigitalOut -->
<g id="edge1" class="edge">
<title>main&#45;&gt;DigitalOut</title>
<path fill="none" stroke="black" d="M73.25,-203.08C73.25,-203.08 73.25,-82.61 73.25,-82.61"/>
<polygon fill="black" stroke="black" points="76.75,-82.61 73.25,-72.61 69.75,-82.61 76.75,-82.61"/>
</g>
<!-- main&#45;&gt;DigitalIn -->
<g id="edge2" class="edge">
<title>main&#45;&gt;DigitalIn</title>
<path fill="none" stroke="black" d="M192,-203.08C192,-203.08 192,-82.61 192,-82.61"/>
<polygon fill="black" stroke="black" points="195.5,-82.61 192,-72.61 188.5,-82.61 195.5,-82.61"/>
</g>
</g>
</svg>
