<?xml version="1.0" encoding="UTF-8" standalone="no"?>
<!DOCTYPE svg PUBLIC "-//W3C//DTD SVG 1.1//EN"
 "http://www.w3.org/Graphics/SVG/1.1/DTD/svg11.dtd">
<!-- Generated by graphviz version 2.43.0 (0)
 -->
<!-- Title: ClassDiagram Pages: 1 -->
<svg width="529pt" height="656pt"
 viewBox="0.00 0.00 528.50 656.00" xmlns="http://www.w3.org/2000/svg" xmlns:xlink="http://www.w3.org/1999/xlink">
<g id="graph0" class="graph" transform="scale(1 1) rotate(0) translate(4 652)">
<title>ClassDiagram</title>
<polygon fill="#ffffff" stroke="transparent" points="-4,4 -4,-652 524.5,-652 524.5,4 -4,4"/>
<!-- LWIPStack -->
<g id="node1" class="node">
<title>LWIPStack</title>
<polygon fill="#f8f9fa" stroke="black" points="0,-203.5 0,-647.5 200,-647.5 200,-203.5 0,-203.5"/>
<text text-anchor="middle" x="100" y="-634.7" font-family="Helvetica,sans-Serif" font-size="11.00">LWIPStack</text>
<polyline fill="none" stroke="black" points="0,-627.5 200,-627.5 "/>
<text text-anchor="start" x="8" y="-614.7" font-family="Helvetica,sans-Serif" font-size="11.00">&#45; lwip_present: bool</text>
<text text-anchor="start" x="8" y="-602.7" font-family="Helvetica,sans-Serif" font-size="11.00">&#45; ipv4_enabled: bool</text>
<text text-anchor="start" x="8" y="-590.7" font-family="Helvetica,sans-Serif" font-size="11.00">&#45; tcp_enabled: bool</text>
<text text-anchor="start" x="8" y="-578.7" font-family="Helvetica,sans-Serif" font-size="11.00">&#45; udp_enabled: bool</text>
<text text-anchor="start" x="8" y="-566.7" font-family="Helvetica,sans-Serif" font-size="11.00">&#45; dns_enabled: bool</text>
<text text-anchor="start" x="8" y="-554.7" font-family="Helvetica,sans-Serif" font-size="11.00">&#45; dhcp_enabled: bool</text>
<text text-anchor="start" x="8" y="-542.7" font-family="Helvetica,sans-Serif" font-size="11.00">&#45; tcp_keepalive_enabled: bool</text>
<text text-anchor="start" x="8" y="-530.7" font-family="Helvetica,sans-Serif" font-size="11.00">&#45; tcp_wnd_size: int</text>
<text text-anchor="start" x="8" y="-518.7" font-family="Helvetica,sans-Serif" font-size="11.00">&#45; tcp_mss: int</text>
<text text-anchor="start" x="8" y="-506.7" font-family="Helvetica,sans-Serif" font-size="11.00">&#45; tcp_snd_buf: int</text>
<text text-anchor="start" x="8" y="-494.7" font-family="Helvetica,sans-Serif" font-size="11.00">&#45; tcp_rcv_buf: int</text>
<text text-anchor="start" x="8" y="-482.7" font-family="Helvetica,sans-Serif" font-size="11.00">&#45; udp_wnd_size: int</text>
<text text-anchor="start" x="8" y="-470.7" font-family="Helvetica,sans-Serif" font-size="11.00">&#45; arp_table_size: int</text>
<text text-anchor="start" x="8" y="-458.7" font-family="Helvetica,sans-Serif" font-size="11.00">&#45; nd_cache_size: int</text>
<text text-anchor="start" x="8" y="-446.7" font-family="Helvetica,sans-Serif" font-size="11.00">&#45; pbuf_pool_size: int</text>
<text text-anchor="start" x="8" y="-434.7" font-family="Helvetica,sans-Serif" font-size="11.00">&#45; pbuf_pool_bufsize: int</text>
<text text-anchor="start" x="8" y="-422.7" font-family="Helvetica,sans-Serif" font-size="11.00">&#45; tcp_listen_backlog: int</text>
<text text-anchor="start" x="8" y="-410.7" font-family="Helvetica,sans-Serif" font-size="11.00">&#45; tcp_max_close_delay: int</text>
<text text-anchor="start" x="8" y="-398.7" font-family="Helvetica,sans-Serif" font-size="11.00">&#45; tcp_synmaxrtx: int</text>
<text text-anchor="start" x="8" y="-386.7" font-family="Helvetica,sans-Serif" font-size="11.00">&#45; tcp_synack_retries: int</text>
<text text-anchor="start" x="8" y="-374.7" font-family="Helvetica,sans-Serif" font-size="11.00">&#45; tcp_timestamps: bool</text>
<text text-anchor="start" x="8" y="-362.7" font-family="Helvetica,sans-Serif" font-size="11.00">&#45; tcp_rto_init: int</text>
<text text-anchor="start" x="8" y="-350.7" font-family="Helvetica,sans-Serif" font-size="11.00">&#45; tcp_rto_min: int</text>
<text text-anchor="start" x="8" y="-338.7" font-family="Helvetica,sans-Serif" font-size="11.00">&#45; tcp_rto_max: int</text>
<text text-anchor="start" x="8" y="-326.7" font-family="Helvetica,sans-Serif" font-size="11.00">&#45; tcp_msl: int</text>
<text text-anchor="start" x="8" y="-314.7" font-family="Helvetica,sans-Serif" font-size="11.00">&#45; tcp_slow_interval: int</text>
<text text-anchor="start" x="8" y="-302.7" font-family="Helvetica,sans-Serif" font-size="11.00">&#45; tcp_fast_interval: int</text>
<text text-anchor="start" x="8" y="-290.7" font-family="Helvetica,sans-Serif" font-size="11.00">&#45; tcp_persist_timer: int</text>
<text text-anchor="start" x="8" y="-278.7" font-family="Helvetica,sans-Serif" font-size="11.00">&#45; tcp_fin_wait_2_persist_timer: int</text>
<text text-anchor="start" x="8" y="-266.7" font-family="Helvetica,sans-Serif" font-size="11.00">&#45; tcp_keepalive_intvl: int</text>
<text text-anchor="start" x="8" y="-254.7" font-family="Helvetica,sans-Serif" font-size="11.00">&#45; tcp_keepalive_idle: int</text>
<text text-anchor="start" x="8" y="-242.7" font-family="Helvetica,sans-Serif" font-size="11.00">&#45; tcp_keepalive_cnt: int</text>
<polyline fill="none" stroke="black" points="0,-235.5 200,-235.5 "/>
<text text-anchor="start" x="8" y="-222.7" font-family="Helvetica,sans-Serif" font-size="11.00">+initialize()</text>
<text text-anchor="start" x="8" y="-210.7" font-family="Helvetica,sans-Serif" font-size="11.00">+configure()</text>
</g>
<!-- DigitalOut -->
<g id="node2" class="node">
<title>DigitalOut</title>
<polygon fill="#f8f9fa" stroke="black" points="198.5,-0.5 198.5,-72.5 321.5,-72.5 321.5,-0.5 198.5,-0.5"/>
<text text-anchor="middle" x="260" y="-59.7" font-family="Helvetica,sans-Serif" font-size="11.00">DigitalOut</text>
<polyline fill="none" stroke="black" points="198.5,-52.5 321.5,-52.5 "/>
<text text-anchor="start" x="206.5" y="-39.7" font-family="Helvetica,sans-Serif" font-size="11.00">&#45; pin: int</text>
<text text-anchor="start" x="206.5" y="-27.7" font-family="Helvetica,sans-Serif" font-size="11.00">&#45; value: bool</text>
<polyline fill="none" stroke="black" points="198.5,-20.5 321.5,-20.5 "/>
<text text-anchor="start" x="206.5" y="-7.7" font-family="Helvetica,sans-Serif" font-size="11.00">+write(value: bool)</text>
</g>
<!-- DigitalIn -->
<g id="node3" class="node">
<title>DigitalIn</title>
<polygon fill="#f8f9fa" stroke="black" points="407.5,-0.5 407.5,-72.5 520.5,-72.5 520.5,-0.5 407.5,-0.5"/>
<text text-anchor="middle" x="464" y="-59.7" font-family="Helvetica,sans-Serif" font-size="11.00">DigitalIn</text>
<polyline fill="none" stroke="black" points="407.5,-52.5 520.5,-52.5 "/>
<text text-anchor="start" x="415.5" y="-39.7" font-family="Helvetica,sans-Serif" font-size="11.00">&#45; pin: int</text>
<text text-anchor="start" x="415.5" y="-27.7" font-family="Helvetica,sans-Serif" font-size="11.00">&#45; pullMode: string</text>
<polyline fill="none" stroke="black" points="407.5,-20.5 520.5,-20.5 "/>
<text text-anchor="start" x="415.5" y="-7.7" font-family="Helvetica,sans-Serif" font-size="11.00">+read(): bool</text>
</g>
<!-- main_loop -->
<g id="node4" class="node">
<title>main_loop</title>
<path fill="#e9ecef" stroke="black" d="M298.5,-393.5C298.5,-393.5 425.5,-393.5 425.5,-393.5 431.5,-393.5 437.5,-399.5 437.5,-405.5 437.5,-405.5 437.5,-445.5 437.5,-445.5 437.5,-451.5 431.5,-457.5 425.5,-457.5 425.5,-457.5 298.5,-457.5 298.5,-457.5 292.5,-457.5 286.5,-451.5 286.5,-445.5 286.5,-445.5 286.5,-405.5 286.5,-405.5 286.5,-399.5 292.5,-393.5 298.5,-393.5"/>
<text text-anchor="middle" x="362" y="-444.7" font-family="Helvetica,sans-Serif" font-size="11.00">main()</text>
<polyline fill="none" stroke="black" points="286.5,-437.5 437.5,-437.5 "/>
<text text-anchor="start" x="294.5" y="-424.7" font-family="Helvetica,sans-Serif" font-size="11.00">&#45; led: DigitalOut</text>
<text text-anchor="start" x="294.5" y="-412.7" font-family="Helvetica,sans-Serif" font-size="11.00">&#45; button: DigitalIn</text>
<text text-anchor="start" x="294.5" y="-400.7" font-family="Helvetica,sans-Serif" font-size="11.00">&#45; previous_pressed: bool</text>
</g>
<!-- main_loop&#45;&gt;DigitalOut -->
<g id="edge1" class="edge">
<title>main_loop&#45;&gt;DigitalOut</title>
<path fill="none" stroke="black" d="M304,-393.34C304,-393.34 304,-82.62 304,-82.62"/>
<polygon fill="black" stroke="black" points="307.5,-82.62 304,-72.62 300.5,-82.62 307.5,-82.62"/>
</g>
<!-- main_loop&#45;&gt;DigitalIn -->
<g id="edge2" class="edge">
<title>main_loop&#45;&gt;DigitalIn</title>
<path fill="none" stroke="black" d="M422.5,-393.34C422.5,-393.34 422.5,-82.62 422.5,-82.62"/>
<polygon fill="black" stroke="black" points="426,-82.62 422.5,-72.62 419,-82.62 426,-82.62"/>
</g>
</g>
</svg>
