<?plantuml 1.2026.1?><svg xmlns="http://www.w3.org/2000/svg" xmlns:xlink="http://www.w3.org/1999/xlink" contentStyleType="text/css" data-diagram-type="SEQUENCE" height="759px" preserveAspectRatio="none" style="width:1080px;height:759px;background:#FFFFFF;" version="1.1" viewBox="0 0 1080 759" width="1080px" zoomAndPan="magnify"><defs/><g><g><title>gpio_api</title><rect fill="#FFFFFF" height="647.5938" style="stroke:#181818;stroke-width:1;" width="10" x="276.3193" y="67.4297"/></g><g><title>gpio_api</title><rect fill="#FFFFFF" height="163.2656" style="stroke:#181818;stroke-width:1;" width="10" x="281.3193" y="104.5625"/></g><g><title>gpio_api</title><rect fill="#FFFFFF" height="25" style="stroke:#181818;stroke-width:1;" width="10" x="286.3193" y="146.6953"/></g><g><title>gpio_api</title><rect fill="#FFFFFF" height="25" style="stroke:#181818;stroke-width:1;" width="10" x="286.3193" y="215.8281"/></g><g><title>gpio_api</title><rect fill="#FFFFFF" height="237.6641" style="stroke:#181818;stroke-width:1;" width="10" x="281.3193" y="328.0938"/></g><g><title>gpio_api</title><rect fill="#FFFFFF" height="25" style="stroke:#181818;stroke-width:1;" width="10" x="286.3193" y="389.3594"/></g><g><title>gpio_api</title><rect fill="#FFFFFF" height="63.1328" style="stroke:#181818;stroke-width:1;" width="10" x="281.3193" y="601.8906"/></g><g><title>stm32f3xx_ll_gpio</title><rect fill="#FFFFFF" height="14" style="stroke:#181818;stroke-width:1;" width="10" x="750.104" y="457.4922"/></g><g><title>stm32h7xx_ll_hsem</title><rect fill="#FFFFFF" height="14" style="stroke:#181818;stroke-width:1;" width="10" x="906.8203" y="524.7578"/></g><g><title>pinmap</title><rect fill="#FFFFFF" height="14" style="stroke:#181818;stroke-width:1;" width="10" x="1026.5884" y="631.0234"/></g><rect fill="none" height="390.1953" style="stroke:#000000;stroke-width:1.5;" width="1064.9648" x="10" y="289.8281"/><rect fill="none" height="86.2656" style="stroke:#000000;stroke-width:1.5;" width="426.1064" x="235.0273" y="343.0938"/><rect fill="none" height="60.2656" style="stroke:#000000;stroke-width:1.5;" width="763.1846" x="235.0273" y="486.4922"/><g class="participant-lifeline" data-entity-uid="part1" data-qualified-name="mbed_gpio" id="part1-lifeline"><g><title>mbed_gpio</title><rect fill="#000000" fill-opacity="0.00000" height="687.7266" width="8" x="61.6265" y="36.2969"/><line style="stroke:#181818;stroke-width:0.5;stroke-dasharray:5,5;" x1="65" x2="65" y1="36.2969" y2="724.0234"/></g></g><g class="participant-lifeline" data-entity-uid="part2" data-qualified-name="gpio_api" id="part2-lifeline"><g><title>gpio_api</title><rect fill="#000000" fill-opacity="0.00000" height="687.7266" width="8" x="277.3193" y="36.2969"/><line style="stroke:#181818;stroke-width:0.5;stroke-dasharray:5,5;" x1="281.0273" x2="281.0273" y1="36.2969" y2="724.0234"/></g></g><g class="participant-lifeline" data-entity-uid="part3" data-qualified-name="stm32f3xx_ll_gpio" id="part3-lifeline"><g><title>stm32f3xx_ll_gpio</title><rect fill="#000000" fill-opacity="0.00000" height="687.7266" width="8" x="751.104" y="36.2969"/><line style="stroke:#181818;stroke-width:0.5;stroke-dasharray:5,5;" x1="754.7793" x2="754.7793" y1="36.2969" y2="724.0234"/></g></g><g class="participant-lifeline" data-entity-uid="part4" data-qualified-name="stm32h7xx_ll_hsem" id="part4-lifeline"><g><title>stm32h7xx_ll_hsem</title><rect fill="#000000" fill-opacity="0.00000" height="687.7266" width="8" x="907.8203" y="36.2969"/><line style="stroke:#181818;stroke-width:0.5;stroke-dasharray:5,5;" x1="911.4287" x2="911.4287" y1="36.2969" y2="724.0234"/></g></g><g class="participant-lifeline" data-entity-uid="part5" data-qualified-name="pinmap" id="part5-lifeline"><g><title>pinmap</title><rect fill="#000000" fill-opacity="0.00000" height="687.7266" width="8" x="1027.5884" y="36.2969"/><line style="stroke:#181818;stroke-width:0.5;stroke-dasharray:5,5;" x1="1031.2119" x2="1031.2119" y1="36.2969" y2="724.0234"/></g></g><g class="participant participant-head" data-entity-uid="part1" data-qualified-name="mbed_gpio" id="part1-head"><rect fill="#E2E2F0" height="30.2969" rx="2.5" ry="2.5" style="stroke:#181818;stroke-width:0.5;" width="91.2529" x="20" y="5"/><text fill="#000000" font-family="sans-serif" font-size="14" lengthAdjust="spacing" textLength="77.2529" x="27" y="24.9951">mbed_gpio</text></g><g class="participant participant-tail" data-entity-uid="part1" data-qualified-name="mbed_gpio" id="part1-tail"><rect fill="#E2E2F0" height="30.2969" rx="2.5" ry="2.5" style="stroke:#181818;stroke-width:0.5;" width="91.2529" x="20" y="723.0234"/><text fill="#000000" font-family="sans-serif" font-size="14" lengthAdjust="spacing" textLength="77.2529" x="27" y="743.0186">mbed_gpio</text></g><g class="participant participant-head" data-entity-uid="part2" data-qualified-name="gpio_api" id="part2-head"><rect fill="#E2E2F0" height="30.2969" rx="2.5" ry="2.5" style="stroke:#181818;stroke-width:0.5;" width="72.584" x="245.0273" y="5"/><text fill="#000000" font-family="sans-serif" font-size="14" lengthAdjust="spacing" textLength="58.584" x="252.0273" y="24.9951">gpio_api</text></g><g class="participant participant-tail" data-entity-uid="part2" data-qualified-name="gpio_api" id="part2-tail"><rect fill="#E2E2F0" height="30.2969" rx="2.5" ry="2.5" style="stroke:#181818;stroke-width:0.5;" width="72.584" x="245.0273" y="723.0234"/><text fill="#000000" font-family="sans-serif" font-size="14" lengthAdjust="spacing" textLength="58.584" x="252.0273" y="743.0186">gpio_api</text></g><g class="participant participant-head" data-entity-uid="part3" data-qualified-name="stm32f3xx_ll_gpio" id="part3-head"><rect fill="#E2E2F0" height="30.2969" rx="2.5" ry="2.5" style="stroke:#181818;stroke-width:0.5;" width="140.6494" x="684.7793" y="5"/><text fill="#000000" font-family="sans-serif" font-size="14" lengthAdjust="spacing" textLength="126.6494" x="691.7793" y="24.9951">stm32f3xx_ll_gpio</text></g><g class="participant participant-tail" data-entity-uid="part3" data-qualified-name="stm32f3xx_ll_gpio" id="part3-tail"><rect fill="#E2E2F0" height="30.2969" rx="2.5" ry="2.5" style="stroke:#181818;stroke-width:0.5;" width="140.6494" x="684.7793" y="723.0234"/><text fill="#000000" font-family="sans-serif" font-size="14" lengthAdjust="spacing" textLength="126.6494" x="691.7793" y="743.0186">stm32f3xx_ll_gpio</text></g><g class="participant participant-head" data-entity-uid="part4" data-qualified-name="stm32h7xx_ll_hsem" id="part4-head"><rect fill="#E2E2F0" height="30.2969" rx="2.5" ry="2.5" style="stroke:#181818;stroke-width:0.5;" width="152.7832" x="835.4287" y="5"/><text fill="#000000" font-family="sans-serif" font-size="14" lengthAdjust="spacing" textLength="138.7832" x="842.4287" y="24.9951">stm32h7xx_ll_hsem</text></g><g class="participant participant-tail" data-entity-uid="part4" data-qualified-name="stm32h7xx_ll_hsem" id="part4-tail"><rect fill="#E2E2F0" height="30.2969" rx="2.5" ry="2.5" style="stroke:#181818;stroke-width:0.5;" width="152.7832" x="835.4287" y="723.0234"/><text fill="#000000" font-family="sans-serif" font-size="14" lengthAdjust="spacing" textLength="138.7832" x="842.4287" y="743.0186">stm32h7xx_ll_hsem</text></g><g class="participant participant-head" data-entity-uid="part5" data-qualified-name="pinmap" id="part5-head"><rect fill="#E2E2F0" height="30.2969" rx="2.5" ry="2.5" style="stroke:#181818;stroke-width:0.5;" width="66.7529" x="998.2119" y="5"/><text fill="#000000" font-family="sans-serif" font-size="14" lengthAdjust="spacing" textLength="52.7529" x="1005.2119" y="24.9951">pinmap</text></g><g class="participant participant-tail" data-entity-uid="part5" data-qualified-name="pinmap" id="part5-tail"><rect fill="#E2E2F0" height="30.2969" rx="2.5" ry="2.5" style="stroke:#181818;stroke-width:0.5;" width="66.7529" x="998.2119" y="723.0234"/><text fill="#000000" font-family="sans-serif" font-size="14" lengthAdjust="spacing" textLength="52.7529" x="1005.2119" y="743.0186">pinmap</text></g><g><title>gpio_api</title><rect fill="#FFFFFF" height="647.5938" style="stroke:#181818;stroke-width:1;" width="10" x="276.3193" y="67.4297"/></g><g><title>gpio_api</title><rect fill="#FFFFFF" height="163.2656" style="stroke:#181818;stroke-width:1;" width="10" x="281.3193" y="104.5625"/></g><g><title>gpio_api</title><rect fill="#FFFFFF" height="25" style="stroke:#181818;stroke-width:1;" width="10" x="286.3193" y="146.6953"/></g><g><title>gpio_api</title><rect fill="#FFFFFF" height="25" style="stroke:#181818;stroke-width:1;" width="10" x="286.3193" y="215.8281"/></g><g><title>gpio_api</title><rect fill="#FFFFFF" height="237.6641" style="stroke:#181818;stroke-width:1;" width="10" x="281.3193" y="328.0938"/></g><g><title>gpio_api</title><rect fill="#FFFFFF" height="25" style="stroke:#181818;stroke-width:1;" width="10" x="286.3193" y="389.3594"/></g><g><title>gpio_api</title><rect fill="#FFFFFF" height="63.1328" style="stroke:#181818;stroke-width:1;" width="10" x="281.3193" y="601.8906"/></g><g><title>stm32f3xx_ll_gpio</title><rect fill="#FFFFFF" height="14" style="stroke:#181818;stroke-width:1;" width="10" x="750.104" y="457.4922"/></g><g><title>stm32h7xx_ll_hsem</title><rect fill="#FFFFFF" height="14" style="stroke:#181818;stroke-width:1;" width="10" x="906.8203" y="524.7578"/></g><g><title>pinmap</title><rect fill="#FFFFFF" height="14" style="stroke:#181818;stroke-width:1;" width="10" x="1026.5884" y="631.0234"/></g><g class="message" data-entity-1="part1" data-entity-2="part2" id="msg1"><polygon fill="#181818" points="264.3193,63.4297,274.3193,67.4297,264.3193,71.4297,268.3193,67.4297" style="stroke:#181818;stroke-width:1;"/><line style="stroke:#181818;stroke-width:1;" x1="65.6265" x2="270.3193" y1="67.4297" y2="67.4297"/><text fill="#000000" font-family="sans-serif" font-size="13" lengthAdjust="spacing" textLength="191.6929" x="72.6265" y="62.3638">_gpio_init_in(gpio, pin, mode)</text></g><g class="message" data-entity-1="part2" data-entity-2="part2" id="msg2"><line style="stroke:#181818;stroke-width:1;" x1="286.3193" x2="333.3193" y1="91.5625" y2="91.5625"/><line style="stroke:#181818;stroke-width:1;" x1="333.3193" x2="333.3193" y1="91.5625" y2="104.5625"/><line style="stroke:#181818;stroke-width:1;" x1="292.3193" x2="333.3193" y1="104.5625" y2="104.5625"/><polygon fill="#181818" points="302.3193,100.5625,292.3193,104.5625,302.3193,108.5625,298.3193,104.5625" style="stroke:#181818;stroke-width:1;"/><text fill="#000000" font-family="sans-serif" font-size="13" lengthAdjust="spacing" textLength="121.71" x="298.3193" y="86.4966">gpio_init(gpio, pin)</text></g><g class="message" data-entity-1="part2" data-entity-2="part2" id="msg3"><line style="stroke:#181818;stroke-width:1;" x1="291.3193" x2="338.3193" y1="133.6953" y2="133.6953"/><line style="stroke:#181818;stroke-width:1;" x1="338.3193" x2="338.3193" y1="133.6953" y2="146.6953"/><line style="stroke:#181818;stroke-width:1;" x1="297.3193" x2="338.3193" y1="146.6953" y2="146.6953"/><polygon fill="#181818" points="307.3193,142.6953,297.3193,146.6953,307.3193,150.6953,303.3193,146.6953" style="stroke:#181818;stroke-width:1;"/><text fill="#000000" font-family="sans-serif" font-size="13" lengthAdjust="spacing" textLength="180.7305" x="303.3193" y="128.6294">Set_GPIO_Clock(port_index)</text></g><g class="message" data-entity-1="part2" data-entity-2="part2" id="msg4"><line style="stroke:#181818;stroke-width:1;stroke-dasharray:2,2;" x1="296.3193" x2="338.3193" y1="170.6953" y2="170.6953"/><line style="stroke:#181818;stroke-width:1;stroke-dasharray:2,2;" x1="338.3193" x2="338.3193" y1="170.6953" y2="183.6953"/><line style="stroke:#181818;stroke-width:1;stroke-dasharray:2,2;" x1="291.3193" x2="338.3193" y1="183.6953" y2="183.6953"/><polygon fill="#181818" points="301.3193,179.6953,291.3193,183.6953,301.3193,187.6953,297.3193,183.6953" style="stroke:#181818;stroke-width:1;"/></g><g class="message" data-entity-1="part2" data-entity-2="part2" id="msg5"><line style="stroke:#181818;stroke-width:1;" x1="291.3193" x2="338.3193" y1="202.8281" y2="202.8281"/><line style="stroke:#181818;stroke-width:1;" x1="338.3193" x2="338.3193" y1="202.8281" y2="215.8281"/><line style="stroke:#181818;stroke-width:1;" x1="297.3193" x2="338.3193" y1="215.8281" y2="215.8281"/><polygon fill="#181818" points="307.3193,211.8281,297.3193,215.8281,307.3193,219.8281,303.3193,215.8281" style="stroke:#181818;stroke-width:1;"/><text fill="#000000" font-family="sans-serif" font-size="13" lengthAdjust="spacing" textLength="84.6841" x="303.3193" y="197.7622">gpio_set(pin)</text></g><g class="message" data-entity-1="part2" data-entity-2="part2" id="msg6"><line style="stroke:#181818;stroke-width:1;stroke-dasharray:2,2;" x1="296.3193" x2="338.3193" y1="239.8281" y2="239.8281"/><line style="stroke:#181818;stroke-width:1;stroke-dasharray:2,2;" x1="338.3193" x2="338.3193" y1="239.8281" y2="252.8281"/><line style="stroke:#181818;stroke-width:1;stroke-dasharray:2,2;" x1="291.3193" x2="338.3193" y1="252.8281" y2="252.8281"/><polygon fill="#181818" points="301.3193,248.8281,291.3193,252.8281,301.3193,256.8281,297.3193,252.8281" style="stroke:#181818;stroke-width:1;"/></g><g class="message" data-entity-1="part2" data-entity-2="part2" id="msg7"><line style="stroke:#181818;stroke-width:1;stroke-dasharray:2,2;" x1="291.3193" x2="333.3193" y1="266.8281" y2="266.8281"/><line style="stroke:#181818;stroke-width:1;stroke-dasharray:2,2;" x1="333.3193" x2="333.3193" y1="266.8281" y2="279.8281"/><line style="stroke:#181818;stroke-width:1;stroke-dasharray:2,2;" x1="286.3193" x2="333.3193" y1="279.8281" y2="279.8281"/><polygon fill="#181818" points="296.3193,275.8281,286.3193,279.8281,296.3193,283.8281,292.3193,279.8281" style="stroke:#181818;stroke-width:1;"/></g><path d="M10,289.8281 L74.4429,289.8281 L74.4429,296.9609 L64.4429,306.9609 L10,306.9609 L10,289.8281" fill="#EEEEEE" style="stroke:#000000;stroke-width:1.5;"/><rect fill="none" height="390.1953" style="stroke:#000000;stroke-width:1.5;" width="1064.9648" x="10" y="289.8281"/><text fill="#000000" font-family="sans-serif" font-size="13" font-weight="bold" lengthAdjust="spacing" textLength="19.4429" x="25" y="302.895">alt</text><a href="pin" target="_top" title="pin" xlink:actuate="onRequest" xlink:href="pin" xlink:show="new" xlink:title="pin" xlink:type="simple"><text fill="#0000FF" font-family="sans-serif" font-size="11" font-weight="bold" lengthAdjust="spacing" text-decoration="underline" textLength="35.3418" x="89.4429" y="302.0386">!= NC</text></a><g class="message" data-entity-1="part1" data-entity-2="part2" id="msg8"><polygon fill="#181818" points="269.3193,324.0938,279.3193,328.0938,269.3193,332.0938,273.3193,328.0938" style="stroke:#181818;stroke-width:1;"/><line style="stroke:#181818;stroke-width:1;" x1="65.6265" x2="275.3193" y1="328.0938" y2="328.0938"/><text fill="#000000" font-family="sans-serif" font-size="13" lengthAdjust="spacing" textLength="165.0073" x="72.6265" y="323.0278">gpio_dir(gpio, PIN_INPUT)</text></g><path d="M235.0273,343.0938 L299.4702,343.0938 L299.4702,350.2266 L289.4702,360.2266 L235.0273,360.2266 L235.0273,343.0938" fill="#EEEEEE" style="stroke:#000000;stroke-width:1.5;"/><rect fill="none" height="86.2656" style="stroke:#000000;stroke-width:1.5;" width="426.1064" x="235.0273" y="343.0938"/><text fill="#000000" font-family="sans-serif" font-size="13" font-weight="bold" lengthAdjust="spacing" textLength="19.4429" x="250.0273" y="356.1606">alt</text><a href="defined(DUAL_CORE)" target="_top" title="defined(DUAL_CORE)" xlink:actuate="onRequest" xlink:href="defined(DUAL_CORE)" xlink:show="new" xlink:title="defined(DUAL_CORE)" xlink:type="simple"><text fill="#0000FF" font-family="sans-serif" font-size="11" font-weight="bold" lengthAdjust="spacing" text-decoration="underline" textLength="145.6426" x="314.4702" y="355.3042">&amp;&amp; (TARGET_STM32H7)</text></a><g class="message" data-entity-1="part2" data-entity-2="part2" id="msg9"><line style="stroke:#181818;stroke-width:1;" x1="291.3193" x2="338.3193" y1="376.3594" y2="376.3594"/><line style="stroke:#181818;stroke-width:1;" x1="338.3193" x2="338.3193" y1="376.3594" y2="389.3594"/><line style="stroke:#181818;stroke-width:1;" x1="297.3193" x2="338.3193" y1="389.3594" y2="389.3594"/><polygon fill="#181818" points="307.3193,385.3594,297.3193,389.3594,307.3193,393.3594,303.3193,389.3594" style="stroke:#181818;stroke-width:1;"/><text fill="#000000" font-family="sans-serif" font-size="13" lengthAdjust="spacing" textLength="330.8145" x="303.3193" y="371.2935">LL_HSEM_1StepLock(HSEM, CFG_HW_GPIO_SEMID)</text></g><g class="message" data-entity-1="part2" data-entity-2="part2" id="msg10"><line style="stroke:#181818;stroke-width:1;stroke-dasharray:2,2;" x1="296.3193" x2="338.3193" y1="413.3594" y2="413.3594"/><line style="stroke:#181818;stroke-width:1;stroke-dasharray:2,2;" x1="338.3193" x2="338.3193" y1="413.3594" y2="426.3594"/><line style="stroke:#181818;stroke-width:1;stroke-dasharray:2,2;" x1="291.3193" x2="338.3193" y1="426.3594" y2="426.3594"/><polygon fill="#181818" points="301.3193,422.3594,291.3193,426.3594,301.3193,430.3594,297.3193,426.3594" style="stroke:#181818;stroke-width:1;"/></g><g class="message" data-entity-1="part2" data-entity-2="part3" id="msg11"><polygon fill="#181818" points="738.104,453.4922,748.104,457.4922,738.104,461.4922,742.104,457.4922" style="stroke:#181818;stroke-width:1;"/><line style="stroke:#181818;stroke-width:1;" x1="291.3193" x2="744.104" y1="457.4922" y2="457.4922"/><text fill="#000000" font-family="sans-serif" font-size="13" lengthAdjust="spacing" textLength="439.7847" x="298.3193" y="452.4263">LL_GPIO_SetPinMode(obj-&gt;gpio, obj-&gt;ll_pin, LL_GPIO_MODE_INPUT)</text></g><g class="message" data-entity-1="part3" data-entity-2="part2" id="msg12"><polygon fill="#181818" points="302.3193,467.4922,292.3193,471.4922,302.3193,475.4922,298.3193,471.4922" style="stroke:#181818;stroke-width:1;"/><line style="stroke:#181818;stroke-width:1;stroke-dasharray:2,2;" x1="296.3193" x2="754.104" y1="471.4922" y2="471.4922"/></g><path d="M235.0273,486.4922 L299.4702,486.4922 L299.4702,493.625 L289.4702,503.625 L235.0273,503.625 L235.0273,486.4922" fill="#EEEEEE" style="stroke:#000000;stroke-width:1.5;"/><rect fill="none" height="60.2656" style="stroke:#000000;stroke-width:1.5;" width="763.1846" x="235.0273" y="486.4922"/><text fill="#000000" font-family="sans-serif" font-size="13" font-weight="bold" lengthAdjust="spacing" textLength="19.4429" x="250.0273" y="499.5591">alt</text><a href="defined(DUAL_CORE)" target="_top" title="defined(DUAL_CORE)" xlink:actuate="onRequest" xlink:href="defined(DUAL_CORE)" xlink:show="new" xlink:title="defined(DUAL_CORE)" xlink:type="simple"><text fill="#0000FF" font-family="sans-serif" font-size="11" font-weight="bold" lengthAdjust="spacing" text-decoration="underline" textLength="145.6426" x="314.4702" y="498.7026">&amp;&amp; (TARGET_STM32H7)</text></a><g class="message" data-entity-1="part2" data-entity-2="part4" id="msg13"><polygon fill="#181818" points="894.8203,520.7578,904.8203,524.7578,894.8203,528.7578,898.8203,524.7578" style="stroke:#181818;stroke-width:1;"/><line style="stroke:#181818;stroke-width:1;" x1="291.3193" x2="900.8203" y1="524.7578" y2="524.7578"/><text fill="#000000" font-family="sans-serif" font-size="13" lengthAdjust="spacing" textLength="540.5918" x="298.3193" y="519.6919">LL_HSEM_ReleaseLock(HSEM, CFG_HW_GPIO_SEMID, HSEM_CR_COREID_CURRENT)</text></g><g class="message" data-entity-1="part4" data-entity-2="part2" id="msg14"><polygon fill="#181818" points="302.3193,534.7578,292.3193,538.7578,302.3193,542.7578,298.3193,538.7578" style="stroke:#181818;stroke-width:1;"/><line style="stroke:#181818;stroke-width:1;stroke-dasharray:2,2;" x1="296.3193" x2="910.8203" y1="538.7578" y2="538.7578"/></g><g class="message" data-entity-1="part2" data-entity-2="part2" id="msg15"><line style="stroke:#181818;stroke-width:1;stroke-dasharray:2,2;" x1="291.3193" x2="333.3193" y1="564.7578" y2="564.7578"/><line style="stroke:#181818;stroke-width:1;stroke-dasharray:2,2;" x1="333.3193" x2="333.3193" y1="564.7578" y2="577.7578"/><line style="stroke:#181818;stroke-width:1;stroke-dasharray:2,2;" x1="286.3193" x2="333.3193" y1="577.7578" y2="577.7578"/><polygon fill="#181818" points="296.3193,573.7578,286.3193,577.7578,296.3193,581.7578,292.3193,577.7578" style="stroke:#181818;stroke-width:1;"/></g><g class="message" data-entity-1="part1" data-entity-2="part2" id="msg16"><polygon fill="#181818" points="269.3193,597.8906,279.3193,601.8906,269.3193,605.8906,273.3193,601.8906" style="stroke:#181818;stroke-width:1;"/><line style="stroke:#181818;stroke-width:1;" x1="65.6265" x2="275.3193" y1="601.8906" y2="601.8906"/><text fill="#000000" font-family="sans-serif" font-size="13" lengthAdjust="spacing" textLength="154.7813" x="72.6265" y="596.8247">gpio_mode(gpio, mode)</text></g><g class="message" data-entity-1="part2" data-entity-2="part5" id="msg17"><polygon fill="#181818" points="1014.5884,627.0234,1024.5884,631.0234,1014.5884,635.0234,1018.5884,631.0234" style="stroke:#181818;stroke-width:1;"/><line style="stroke:#181818;stroke-width:1;" x1="291.3193" x2="1020.5884" y1="631.0234" y2="631.0234"/><text fill="#000000" font-family="sans-serif" font-size="13" lengthAdjust="spacing" textLength="138.8486" x="298.3193" y="625.9575">pin_mode(pin, mode)</text></g><g class="message" data-entity-1="part5" data-entity-2="part2" id="msg18"><polygon fill="#181818" points="302.3193,641.0234,292.3193,645.0234,302.3193,649.0234,298.3193,645.0234" style="stroke:#181818;stroke-width:1;"/><line style="stroke:#181818;stroke-width:1;stroke-dasharray:2,2;" x1="296.3193" x2="1030.5884" y1="645.0234" y2="645.0234"/></g><g class="message" data-entity-1="part2" data-entity-2="part2" id="msg19"><line style="stroke:#181818;stroke-width:1;stroke-dasharray:2,2;" x1="291.3193" x2="333.3193" y1="664.0234" y2="664.0234"/><line style="stroke:#181818;stroke-width:1;stroke-dasharray:2,2;" x1="333.3193" x2="333.3193" y1="664.0234" y2="677.0234"/><line style="stroke:#181818;stroke-width:1;stroke-dasharray:2,2;" x1="286.3193" x2="333.3193" y1="677.0234" y2="677.0234"/><polygon fill="#181818" points="296.3193,673.0234,286.3193,677.0234,296.3193,681.0234,292.3193,677.0234" style="stroke:#181818;stroke-width:1;"/></g><g class="message" data-entity-1="part1" data-entity-2="part1" id="msg20"><line style="stroke:#181818;stroke-width:1;stroke-dasharray:2,2;" x1="65.6265" x2="107.6265" y1="698.0234" y2="698.0234"/><line style="stroke:#181818;stroke-width:1;stroke-dasharray:2,2;" x1="107.6265" x2="107.6265" y1="698.0234" y2="711.0234"/><line style="stroke:#181818;stroke-width:1;stroke-dasharray:2,2;" x1="60.6265" x2="107.6265" y1="711.0234" y2="711.0234"/><polygon fill="#181818" points="70.6265,707.0234,60.6265,711.0234,70.6265,715.0234,66.6265,711.0234" style="stroke:#181818;stroke-width:1;"/></g><?plantuml-src fLLRRu8m57xlh-XU32JuC7qmCTaI0qn900rWzh0i3KgTtRWqsYp-_D5MRYjgt7Y0zbo-Stg-dWED3uni2Orp1hCDJj079GMWBIaNe9YIZl38il5eDpwTK9ggBaAxdqZj_eYpZfQIF8if07KuE7okeqoX426I4rQ-DBunk8i1ioB1EeYtZ7p733TvWMhLnQbX6emxl4FCq7pbB96P5jilZHO7daw2JtqO3KGB0oJulboFc6aNalnJW5kcSShWMnaGFZn1ttm7i7mkS29M2JcSIxboVEJugtMa2wSBq0dUaHmdchMUkSXS1hOE1mEeHRDWRaSeZBpnQ37HPLp-z9V6TT4Yj3tq639CNSu5tnhGV9cZnQlag1Gubbu3gVce8Th5gRHzHU9od2S0_CvGwG2Hgam7inN9lVAwQiNcS_WiYoQMfQsuovMfjxJitbAg3SRLYbGzIEiGAiQ_UL4wko4em2cEZ_WQHGOKbcOWmZeMCjT1OFjH3tNg2AbC5CrDClknUbYzKikcmMwr2HzJvpwH4wl_IYeNIex5AVzAZDRGwq2SvoUNoUNLnAjfU_z9HO5Q9orzcZz4ow4M_W00?></g></svg>