<?plantuml 1.2026.1?><svg xmlns="http://www.w3.org/2000/svg" xmlns:xlink="http://www.w3.org/1999/xlink" contentStyleType="text/css" data-diagram-type="SEQUENCE" height="743px" preserveAspectRatio="none" style="width:771px;height:743px;background:#FFFFFF;" version="1.1" viewBox="0 0 771 743" width="771px" zoomAndPan="magnify"><defs/><g><g><title>mbed_gpio</title><rect fill="#FFFFFF" height="630.5938" style="stroke:#181818;stroke-width:1;" width="10" x="45.6265" y="67.4297"/></g><g><title>gpio_api</title><rect fill="#FFFFFF" height="631.5938" style="stroke:#181818;stroke-width:1;" width="10" x="261.3193" y="67.4297"/></g><g><title>gpio_api</title><rect fill="#FFFFFF" height="593.4609" style="stroke:#181818;stroke-width:1;" width="10" x="266.3193" y="104.5625"/></g><g><title>gpio_api</title><rect fill="#FFFFFF" height="70.1328" style="stroke:#181818;stroke-width:1;" width="10" x="271.3193" y="170.8281"/></g><g><title>gpio_api</title><rect fill="#FFFFFF" height="28" style="stroke:#181818;stroke-width:1;" width="10" x="276.3193" y="212.9609"/></g><g><title>gpio_api</title><rect fill="#FFFFFF" height="291.6641" style="stroke:#181818;stroke-width:1;" width="10" x="271.3193" y="285.0938"/></g><g><title>gpio_api</title><rect fill="#FFFFFF" height="28" style="stroke:#181818;stroke-width:1;" width="10" x="276.3193" y="351.3594"/></g><g><title>gpio_api</title><rect fill="#FFFFFF" height="28" style="stroke:#181818;stroke-width:1;" width="10" x="276.3193" y="430.4922"/></g><g><title>gpio_api</title><rect fill="#FFFFFF" height="28" style="stroke:#181818;stroke-width:1;" width="10" x="276.3193" y="526.7578"/></g><g><title>gpio_api</title><rect fill="#FFFFFF" height="70.1328" style="stroke:#181818;stroke-width:1;" width="10" x="271.3193" y="605.8906"/></g><g><title>gpio_api</title><rect fill="#FFFFFF" height="28" style="stroke:#181818;stroke-width:1;" width="10" x="276.3193" y="648.0234"/></g><rect fill="none" height="566.4609" style="stroke:#000000;stroke-width:1.5;" width="555.0767" x="210.0273" y="124.5625"/><rect fill="none" height="89.2656" style="stroke:#000000;stroke-width:1.5;" width="436.1064" x="220.0273" y="305.0938"/><rect fill="none" height="89.2656" style="stroke:#000000;stroke-width:1.5;" width="449.6143" x="220.0273" y="480.4922"/><g class="participant-lifeline" data-entity-uid="part1" data-qualified-name="Main" id="part1-lifeline"><g><title>mbed_gpio</title><rect fill="#000000" fill-opacity="0.00000" height="671.7266" width="8" x="46.6265" y="36.2969"/><line style="stroke:#181818;stroke-width:0.5;stroke-dasharray:5,5;" x1="50" x2="50" y1="36.2969" y2="708.0234"/></g></g><g class="participant-lifeline" data-entity-uid="part2" data-qualified-name="GPIO" id="part2-lifeline"><g><title>gpio_api</title><rect fill="#000000" fill-opacity="0.00000" height="671.7266" width="8" x="262.3193" y="36.2969"/><line style="stroke:#181818;stroke-width:0.5;stroke-dasharray:5,5;" x1="266.0273" x2="266.0273" y1="36.2969" y2="708.0234"/></g></g><g class="participant participant-head" data-entity-uid="part1" data-qualified-name="Main" id="part1-head"><rect fill="#E2E2F0" height="30.2969" rx="2.5" ry="2.5" style="stroke:#181818;stroke-width:0.5;" width="91.2529" x="5" y="5"/><text fill="#000000" font-family="sans-serif" font-size="14" lengthAdjust="spacing" textLength="77.2529" x="12" y="24.9951">mbed_gpio</text></g><g class="participant participant-tail" data-entity-uid="part1" data-qualified-name="Main" id="part1-tail"><rect fill="#E2E2F0" height="30.2969" rx="2.5" ry="2.5" style="stroke:#181818;stroke-width:0.5;" width="91.2529" x="5" y="707.0234"/><text fill="#000000" font-family="sans-serif" font-size="14" lengthAdjust="spacing" textLength="77.2529" x="12" y="727.0186">mbed_gpio</text></g><g class="participant participant-head" data-entity-uid="part2" data-qualified-name="GPIO" id="part2-head"><rect fill="#E2E2F0" height="30.2969" rx="2.5" ry="2.5" style="stroke:#181818;stroke-width:0.5;" width="72.584" x="230.0273" y="5"/><text fill="#000000" font-family="sans-serif" font-size="14" lengthAdjust="spacing" textLength="58.584" x="237.0273" y="24.9951">gpio_api</text></g><g class="participant participant-tail" data-entity-uid="part2" data-qualified-name="GPIO" id="part2-tail"><rect fill="#E2E2F0" height="30.2969" rx="2.5" ry="2.5" style="stroke:#181818;stroke-width:0.5;" width="72.584" x="230.0273" y="707.0234"/><text fill="#000000" font-family="sans-serif" font-size="14" lengthAdjust="spacing" textLength="58.584" x="237.0273" y="727.0186">gpio_api</text></g><g><title>mbed_gpio</title><rect fill="#FFFFFF" height="630.5938" style="stroke:#181818;stroke-width:1;" width="10" x="45.6265" y="67.4297"/></g><g><title>gpio_api</title><rect fill="#FFFFFF" height="631.5938" style="stroke:#181818;stroke-width:1;" width="10" x="261.3193" y="67.4297"/></g><g><title>gpio_api</title><rect fill="#FFFFFF" height="593.4609" style="stroke:#181818;stroke-width:1;" width="10" x="266.3193" y="104.5625"/></g><g><title>gpio_api</title><rect fill="#FFFFFF" height="70.1328" style="stroke:#181818;stroke-width:1;" width="10" x="271.3193" y="170.8281"/></g><g><title>gpio_api</title><rect fill="#FFFFFF" height="28" style="stroke:#181818;stroke-width:1;" width="10" x="276.3193" y="212.9609"/></g><g><title>gpio_api</title><rect fill="#FFFFFF" height="291.6641" style="stroke:#181818;stroke-width:1;" width="10" x="271.3193" y="285.0938"/></g><g><title>gpio_api</title><rect fill="#FFFFFF" height="28" style="stroke:#181818;stroke-width:1;" width="10" x="276.3193" y="351.3594"/></g><g><title>gpio_api</title><rect fill="#FFFFFF" height="28" style="stroke:#181818;stroke-width:1;" width="10" x="276.3193" y="430.4922"/></g><g><title>gpio_api</title><rect fill="#FFFFFF" height="28" style="stroke:#181818;stroke-width:1;" width="10" x="276.3193" y="526.7578"/></g><g><title>gpio_api</title><rect fill="#FFFFFF" height="70.1328" style="stroke:#181818;stroke-width:1;" width="10" x="271.3193" y="605.8906"/></g><g><title>gpio_api</title><rect fill="#FFFFFF" height="28" style="stroke:#181818;stroke-width:1;" width="10" x="276.3193" y="648.0234"/></g><g class="message" data-entity-1="part1" data-entity-2="part2" id="msg1"><polygon fill="#181818" points="249.3193,63.4297,259.3193,67.4297,249.3193,71.4297,253.3193,67.4297" style="stroke:#181818;stroke-width:1;"/><line style="stroke:#181818;stroke-width:1;" x1="55.6265" x2="255.3193" y1="67.4297" y2="67.4297"/><text fill="#000000" font-family="sans-serif" font-size="13" lengthAdjust="spacing" textLength="191.6929" x="62.6265" y="62.3638">_gpio_init_in(gpio, pin, mode)</text></g><g class="message" data-entity-1="part2" data-entity-2="part2" id="msg2"><line style="stroke:#181818;stroke-width:1;" x1="271.3193" x2="318.3193" y1="91.5625" y2="91.5625"/><line style="stroke:#181818;stroke-width:1;" x1="318.3193" x2="318.3193" y1="91.5625" y2="104.5625"/><line style="stroke:#181818;stroke-width:1;" x1="277.3193" x2="318.3193" y1="104.5625" y2="104.5625"/><polygon fill="#181818" points="287.3193,100.5625,277.3193,104.5625,287.3193,108.5625,283.3193,104.5625" style="stroke:#181818;stroke-width:1;"/><text fill="#000000" font-family="sans-serif" font-size="13" lengthAdjust="spacing" textLength="121.71" x="283.3193" y="86.4966">gpio_init(gpio, pin)</text></g><path d="M210.0273,124.5625 L274.4702,124.5625 L274.4702,131.6953 L264.4702,141.6953 L210.0273,141.6953 L210.0273,124.5625" fill="#EEEEEE" style="stroke:#000000;stroke-width:1.5;"/><rect fill="none" height="566.4609" style="stroke:#000000;stroke-width:1.5;" width="555.0767" x="210.0273" y="124.5625"/><text fill="#000000" font-family="sans-serif" font-size="13" font-weight="bold" lengthAdjust="spacing" textLength="19.4429" x="225.0273" y="137.6294">alt</text><a href="[pin != NC]" target="_top" title="[pin != NC]" xlink:actuate="onRequest" xlink:href="[pin != NC]" xlink:show="new" xlink:title="[pin != NC]" xlink:type="simple"><text fill="#0000FF" font-family="sans-serif" font-size="11" font-weight="bold" lengthAdjust="spacing" text-decoration="underline" textLength="68.7017" x="289.4702" y="136.7729">[pin != NC]</text></a><g class="message" data-entity-1="part2" data-entity-2="part2" id="msg3"><line style="stroke:#181818;stroke-width:1;" x1="276.3193" x2="323.3193" y1="157.8281" y2="157.8281"/><line style="stroke:#181818;stroke-width:1;" x1="323.3193" x2="323.3193" y1="157.8281" y2="170.8281"/><line style="stroke:#181818;stroke-width:1;" x1="282.3193" x2="323.3193" y1="170.8281" y2="170.8281"/><polygon fill="#181818" points="292.3193,166.8281,282.3193,170.8281,292.3193,174.8281,288.3193,170.8281" style="stroke:#181818;stroke-width:1;"/><text fill="#000000" font-family="sans-serif" font-size="13" lengthAdjust="spacing" textLength="180.7305" x="288.3193" y="152.7622">Set_GPIO_Clock(port_index)</text></g><g class="message" data-entity-1="part2" data-entity-2="part2" id="msg4"><line style="stroke:#181818;stroke-width:1;" x1="286.3193" x2="328.3193" y1="204.9609" y2="204.9609"/><line style="stroke:#181818;stroke-width:1;" x1="328.3193" x2="328.3193" y1="204.9609" y2="217.9609"/><line style="stroke:#181818;stroke-width:1;" x1="287.3193" x2="328.3193" y1="217.9609" y2="217.9609"/><polygon fill="#181818" points="297.3193,213.9609,287.3193,217.9609,297.3193,221.9609,293.3193,217.9609" style="stroke:#181818;stroke-width:1;"/><text fill="#000000" font-family="sans-serif" font-size="13" lengthAdjust="spacing" textLength="84.6841" x="293.3193" y="199.895">gpio_set(pin)</text></g><g class="message" data-entity-1="part2" data-entity-2="part2" id="msg5"><line style="stroke:#181818;stroke-width:1;" x1="276.3193" x2="323.3193" y1="272.0938" y2="272.0938"/><line style="stroke:#181818;stroke-width:1;" x1="323.3193" x2="323.3193" y1="272.0938" y2="285.0938"/><line style="stroke:#181818;stroke-width:1;" x1="282.3193" x2="323.3193" y1="285.0938" y2="285.0938"/><polygon fill="#181818" points="292.3193,281.0938,282.3193,285.0938,292.3193,289.0938,288.3193,285.0938" style="stroke:#181818;stroke-width:1;"/><text fill="#000000" font-family="sans-serif" font-size="13" lengthAdjust="spacing" textLength="165.0073" x="288.3193" y="267.0278">gpio_dir(gpio, PIN_INPUT)</text></g><path d="M220.0273,305.0938 L284.4702,305.0938 L284.4702,312.2266 L274.4702,322.2266 L220.0273,322.2266 L220.0273,305.0938" fill="#EEEEEE" style="stroke:#000000;stroke-width:1.5;"/><rect fill="none" height="89.2656" style="stroke:#000000;stroke-width:1.5;" width="436.1064" x="220.0273" y="305.0938"/><text fill="#000000" font-family="sans-serif" font-size="13" font-weight="bold" lengthAdjust="spacing" textLength="19.4429" x="235.0273" y="318.1606">alt</text><a href="[DUAL_CORE &amp;&amp; TARGET_STM32H7]" target="_top" title="[DUAL_CORE &amp;&amp; TARGET_STM32H7]" xlink:actuate="onRequest" xlink:href="[DUAL_CORE &amp;&amp; TARGET_STM32H7]" xlink:show="new" xlink:title="[DUAL_CORE &amp;&amp; TARGET_STM32H7]" xlink:type="simple"><text fill="#0000FF" font-family="sans-serif" font-size="11" font-weight="bold" lengthAdjust="spacing" text-decoration="underline" textLength="221.9658" x="299.4702" y="317.3042">[DUAL_CORE &amp;&amp; TARGET_STM32H7]</text></a><g class="message" data-entity-1="part2" data-entity-2="part2" id="msg6"><line style="stroke:#181818;stroke-width:1;" x1="286.3193" x2="328.3193" y1="343.3594" y2="343.3594"/><line style="stroke:#181818;stroke-width:1;" x1="328.3193" x2="328.3193" y1="343.3594" y2="356.3594"/><line style="stroke:#181818;stroke-width:1;" x1="287.3193" x2="328.3193" y1="356.3594" y2="356.3594"/><polygon fill="#181818" points="297.3193,352.3594,287.3193,356.3594,297.3193,360.3594,293.3193,356.3594" style="stroke:#181818;stroke-width:1;"/><text fill="#000000" font-family="sans-serif" font-size="13" lengthAdjust="spacing" textLength="330.8145" x="293.3193" y="338.2935">LL_HSEM_1StepLock(HSEM, CFG_HW_GPIO_SEMID)</text></g><g class="message" data-entity-1="part2" data-entity-2="part2" id="msg7"><line style="stroke:#181818;stroke-width:1;" x1="286.3193" x2="328.3193" y1="422.4922" y2="422.4922"/><line style="stroke:#181818;stroke-width:1;" x1="328.3193" x2="328.3193" y1="422.4922" y2="435.4922"/><line style="stroke:#181818;stroke-width:1;" x1="287.3193" x2="328.3193" y1="435.4922" y2="435.4922"/><polygon fill="#181818" points="297.3193,431.4922,287.3193,435.4922,297.3193,439.4922,293.3193,435.4922" style="stroke:#181818;stroke-width:1;"/><text fill="#000000" font-family="sans-serif" font-size="13" lengthAdjust="spacing" textLength="439.7847" x="293.3193" y="417.4263">LL_GPIO_SetPinMode(obj-&gt;gpio, obj-&gt;ll_pin, LL_GPIO_MODE_INPUT)</text></g><path d="M220.0273,480.4922 L284.4702,480.4922 L284.4702,487.625 L274.4702,497.625 L220.0273,497.625 L220.0273,480.4922" fill="#EEEEEE" style="stroke:#000000;stroke-width:1.5;"/><rect fill="none" height="89.2656" style="stroke:#000000;stroke-width:1.5;" width="449.6143" x="220.0273" y="480.4922"/><text fill="#000000" font-family="sans-serif" font-size="13" font-weight="bold" lengthAdjust="spacing" textLength="19.4429" x="235.0273" y="493.5591">alt</text><a href="[DUAL_CORE &amp;&amp; TARGET_STM32H7]" target="_top" title="[DUAL_CORE &amp;&amp; TARGET_STM32H7]" xlink:actuate="onRequest" xlink:href="[DUAL_CORE &amp;&amp; TARGET_STM32H7]" xlink:show="new" xlink:title="[DUAL_CORE &amp;&amp; TARGET_STM32H7]" xlink:type="simple"><text fill="#0000FF" font-family="sans-serif" font-size="11" font-weight="bold" lengthAdjust="spacing" text-decoration="underline" textLength="221.9658" x="299.4702" y="492.7026">[DUAL_CORE &amp;&amp; TARGET_STM32H7]</text></a><g class="message" data-entity-1="part2" data-entity-2="part2" id="msg8"><line style="stroke:#181818;stroke-width:1;" x1="286.3193" x2="328.3193" y1="518.7578" y2="518.7578"/><line style="stroke:#181818;stroke-width:1;" x1="328.3193" x2="328.3193" y1="518.7578" y2="531.7578"/><line style="stroke:#181818;stroke-width:1;" x1="287.3193" x2="328.3193" y1="531.7578" y2="531.7578"/><polygon fill="#181818" points="297.3193,527.7578,287.3193,531.7578,297.3193,535.7578,293.3193,531.7578" style="stroke:#181818;stroke-width:1;"/><text fill="#000000" font-family="sans-serif" font-size="13" lengthAdjust="spacing" textLength="344.3223" x="293.3193" y="513.6919">LL_HSEM_ReleaseLock(HSEM, CFG_HW_GPIO_SEMID)</text></g><g class="message" data-entity-1="part2" data-entity-2="part2" id="msg9"><line style="stroke:#181818;stroke-width:1;" x1="276.3193" x2="323.3193" y1="592.8906" y2="592.8906"/><line style="stroke:#181818;stroke-width:1;" x1="323.3193" x2="323.3193" y1="592.8906" y2="605.8906"/><line style="stroke:#181818;stroke-width:1;" x1="282.3193" x2="323.3193" y1="605.8906" y2="605.8906"/><polygon fill="#181818" points="292.3193,601.8906,282.3193,605.8906,292.3193,609.8906,288.3193,605.8906" style="stroke:#181818;stroke-width:1;"/><text fill="#000000" font-family="sans-serif" font-size="13" lengthAdjust="spacing" textLength="154.7813" x="288.3193" y="587.8247">gpio_mode(gpio, mode)</text></g><g class="message" data-entity-1="part2" data-entity-2="part2" id="msg10"><line style="stroke:#181818;stroke-width:1;" x1="286.3193" x2="328.3193" y1="640.0234" y2="640.0234"/><line style="stroke:#181818;stroke-width:1;" x1="328.3193" x2="328.3193" y1="640.0234" y2="653.0234"/><line style="stroke:#181818;stroke-width:1;" x1="287.3193" x2="328.3193" y1="653.0234" y2="653.0234"/><polygon fill="#181818" points="297.3193,649.0234,287.3193,653.0234,297.3193,657.0234,293.3193,653.0234" style="stroke:#181818;stroke-width:1;"/><text fill="#000000" font-family="sans-serif" font-size="13" lengthAdjust="spacing" textLength="174.2495" x="293.3193" y="634.9575">pin_mode(obj-&gt;pin, mode)</text></g><?plantuml-src jLDDQuD04BtxAwOUWa9oQ7ie51e8nggWYKH33o4icpYKROqkoLBwy-lkviF82e6s7cJdwysRnmodUy6sZDDAWBtRO47UEQjje0T8AAiitexB4A6SgN2GHdFBaaam6YiBda5L4rOnqVmSQGo1ise8kxf0rw9RmRweG8rzjZIKWhX0dP4kC6wdX9O2LlQgYS3T2yoyjRsseFawI1aA8f_4A-ljfyFhlMHNuBUhiZiq302AoW65epZqr1HuxJJvUi4BjZ-EcKOp4itIPMvgT1nukfp4n9ilV1WC89yi0ZydMPuyFeHF9maCZUAOX9cVaFjC88-b4j8SWlSQaF1DAzGuegbxHZ2mxniLgy8oDzN0A59M9SqMEFNcOpJMmwfdMHAr8gVKP3xr-oKmwledkYomH7h0VrFcvcMGjtBS1dqsjsrf8w8kLQgshkuN2okvTtqjMvxn3m00?></g></svg>