<?plantuml 1.2026.1?><svg xmlns="http://www.w3.org/2000/svg" xmlns:xlink="http://www.w3.org/1999/xlink" contentStyleType="text/css" data-diagram-type="SEQUENCE" height="672px" preserveAspectRatio="none" style="width:927px;height:672px;background:#FFFFFF;" version="1.1" viewBox="0 0 927 672" width="927px" zoomAndPan="magnify"><defs/><g><g><title>QspiCommand</title><rect fill="#FFFFFF" height="14" style="stroke:#181818;stroke-width:1;" width="10" x="117.502" y="96.5625"/></g><g><title>QspiCommand</title><rect fill="#FFFFFF" height="14" style="stroke:#181818;stroke-width:1;" width="10" x="117.502" y="248.0938"/></g><g><title>QspiCommand</title><rect fill="#FFFFFF" height="14" style="stroke:#181818;stroke-width:1;" width="10" x="117.502" y="451.625"/></g><g><title>Qspi</title><rect fill="#FFFFFF" height="544.5938" style="stroke:#181818;stroke-width:1;" width="10" x="305.2378" y="67.4297"/></g><g><title>Qspi</title><rect fill="#FFFFFF" height="40.1328" style="stroke:#181818;stroke-width:1;" width="10" x="310.2378" y="147.6953"/></g><g><title>Qspi</title><rect fill="#FFFFFF" height="40.1328" style="stroke:#181818;stroke-width:1;" width="10" x="310.2378" y="299.2266"/></g><g><title>Qspi</title><rect fill="#FFFFFF" height="25" style="stroke:#181818;stroke-width:1;" width="10" x="310.2378" y="383.4922"/></g><g><title>Qspi</title><rect fill="#FFFFFF" height="40.1328" style="stroke:#181818;stroke-width:1;" width="10" x="310.2378" y="502.7578"/></g><g><title>Qspi</title><rect fill="#FFFFFF" height="25" style="stroke:#181818;stroke-width:1;" width="10" x="310.2378" y="587.0234"/></g><rect fill="none" height="213.6641" style="stroke:#000000;stroke-width:1.5;" width="733.6147" x="53.9795" y="209.8281"/><g class="participant-lifeline" data-entity-uid="part1" data-qualified-name="Main" id="part1-lifeline"><g><title>main</title><rect fill="#000000" fill-opacity="0.00000" height="600.7266" width="8" x="25.4897" y="36.2969"/><line style="stroke:#181818;stroke-width:0.5;stroke-dasharray:5,5;" x1="29" x2="29" y1="36.2969" y2="637.0234"/></g></g><g class="participant-lifeline" data-entity-uid="part2" data-qualified-name="Cmd" id="part2-lifeline"><g><title>QspiCommand</title><rect fill="#000000" fill-opacity="0.00000" height="600.7266" width="8" x="118.502" y="36.2969"/><line style="stroke:#181818;stroke-width:0.5;stroke-dasharray:5,5;" x1="121.9795" x2="121.9795" y1="36.2969" y2="637.0234"/></g></g><g class="participant-lifeline" data-entity-uid="part3" data-qualified-name="Qspi" id="part3-lifeline"><g><title>Qspi</title><rect fill="#000000" fill-opacity="0.00000" height="600.7266" width="8" x="306.2378" y="36.2969"/><line style="stroke:#181818;stroke-width:0.5;stroke-dasharray:5,5;" x1="309.6929" x2="309.6929" y1="36.2969" y2="637.0234"/></g></g><g class="participant participant-head" data-entity-uid="part1" data-qualified-name="Main" id="part1-head"><rect fill="#E2E2F0" height="30.2969" rx="2.5" ry="2.5" style="stroke:#181818;stroke-width:0.5;" width="48.9795" x="5" y="5"/><text fill="#000000" font-family="sans-serif" font-size="14" lengthAdjust="spacing" textLength="34.9795" x="12" y="24.9951">main</text></g><g class="participant participant-tail" data-entity-uid="part1" data-qualified-name="Main" id="part1-tail"><rect fill="#E2E2F0" height="30.2969" rx="2.5" ry="2.5" style="stroke:#181818;stroke-width:0.5;" width="48.9795" x="5" y="636.0234"/><text fill="#000000" font-family="sans-serif" font-size="14" lengthAdjust="spacing" textLength="34.9795" x="12" y="656.0186">main</text></g><g class="participant participant-head" data-entity-uid="part2" data-qualified-name="Cmd" id="part2-head"><rect fill="#E2E2F0" height="30.2969" rx="2.5" ry="2.5" style="stroke:#181818;stroke-width:0.5;" width="117.0449" x="63.9795" y="5"/><text fill="#000000" font-family="sans-serif" font-size="14" lengthAdjust="spacing" textLength="103.0449" x="70.9795" y="24.9951">QspiCommand</text></g><g class="participant participant-tail" data-entity-uid="part2" data-qualified-name="Cmd" id="part2-tail"><rect fill="#E2E2F0" height="30.2969" rx="2.5" ry="2.5" style="stroke:#181818;stroke-width:0.5;" width="117.0449" x="63.9795" y="636.0234"/><text fill="#000000" font-family="sans-serif" font-size="14" lengthAdjust="spacing" textLength="103.0449" x="70.9795" y="656.0186">QspiCommand</text></g><g class="participant participant-head" data-entity-uid="part3" data-qualified-name="Qspi" id="part3-head"><rect fill="#E2E2F0" height="30.2969" rx="2.5" ry="2.5" style="stroke:#181818;stroke-width:0.5;" width="45.0898" x="287.6929" y="5"/><text fill="#000000" font-family="sans-serif" font-size="14" lengthAdjust="spacing" textLength="31.0898" x="294.6929" y="24.9951">Qspi</text></g><g class="participant participant-tail" data-entity-uid="part3" data-qualified-name="Qspi" id="part3-tail"><rect fill="#E2E2F0" height="30.2969" rx="2.5" ry="2.5" style="stroke:#181818;stroke-width:0.5;" width="45.0898" x="287.6929" y="636.0234"/><text fill="#000000" font-family="sans-serif" font-size="14" lengthAdjust="spacing" textLength="31.0898" x="294.6929" y="656.0186">Qspi</text></g><g><title>QspiCommand</title><rect fill="#FFFFFF" height="14" style="stroke:#181818;stroke-width:1;" width="10" x="117.502" y="96.5625"/></g><g><title>QspiCommand</title><rect fill="#FFFFFF" height="14" style="stroke:#181818;stroke-width:1;" width="10" x="117.502" y="248.0938"/></g><g><title>QspiCommand</title><rect fill="#FFFFFF" height="14" style="stroke:#181818;stroke-width:1;" width="10" x="117.502" y="451.625"/></g><g><title>Qspi</title><rect fill="#FFFFFF" height="544.5938" style="stroke:#181818;stroke-width:1;" width="10" x="305.2378" y="67.4297"/></g><g><title>Qspi</title><rect fill="#FFFFFF" height="40.1328" style="stroke:#181818;stroke-width:1;" width="10" x="310.2378" y="147.6953"/></g><g><title>Qspi</title><rect fill="#FFFFFF" height="40.1328" style="stroke:#181818;stroke-width:1;" width="10" x="310.2378" y="299.2266"/></g><g><title>Qspi</title><rect fill="#FFFFFF" height="25" style="stroke:#181818;stroke-width:1;" width="10" x="310.2378" y="383.4922"/></g><g><title>Qspi</title><rect fill="#FFFFFF" height="40.1328" style="stroke:#181818;stroke-width:1;" width="10" x="310.2378" y="502.7578"/></g><g><title>Qspi</title><rect fill="#FFFFFF" height="25" style="stroke:#181818;stroke-width:1;" width="10" x="310.2378" y="587.0234"/></g><g class="message" data-entity-1="part1" data-entity-2="part3" id="msg1"><polygon fill="#181818" points="293.2378,63.4297,303.2378,67.4297,293.2378,71.4297,297.2378,67.4297" style="stroke:#181818;stroke-width:1;"/><line style="stroke:#181818;stroke-width:1;" x1="29.4897" x2="299.2378" y1="67.4297" y2="67.4297"/><text fill="#000000" font-family="sans-serif" font-size="13" lengthAdjust="spacing" textLength="95.2593" x="36.4897" y="62.3638">flash_init(qspi)</text></g><g class="message" data-entity-1="part3" data-entity-2="part2" id="msg2"><polygon fill="#181818" points="138.502,92.5625,128.502,96.5625,138.502,100.5625,134.502,96.5625" style="stroke:#181818;stroke-width:1;"/><line style="stroke:#181818;stroke-width:1;" x1="132.502" x2="304.2378" y1="96.5625" y2="96.5625"/><text fill="#000000" font-family="sans-serif" font-size="13" lengthAdjust="spacing" textLength="151.8994" x="144.502" y="91.4966">build(QSPI_CMD_RDSR)</text></g><g class="message" data-entity-1="part2" data-entity-2="part3" id="msg3"><polygon fill="#181818" points="293.2378,106.5625,303.2378,110.5625,293.2378,114.5625,297.2378,110.5625" style="stroke:#181818;stroke-width:1;"/><line style="stroke:#181818;stroke-width:1;stroke-dasharray:2,2;" x1="122.502" x2="299.2378" y1="110.5625" y2="110.5625"/></g><g class="message" data-entity-1="part3" data-entity-2="part3" id="msg4"><line style="stroke:#181818;stroke-width:1;" x1="315.2378" x2="362.2378" y1="134.6953" y2="134.6953"/><line style="stroke:#181818;stroke-width:1;" x1="362.2378" x2="362.2378" y1="134.6953" y2="147.6953"/><line style="stroke:#181818;stroke-width:1;" x1="321.2378" x2="362.2378" y1="147.6953" y2="147.6953"/><polygon fill="#181818" points="331.2378,143.6953,321.2378,147.6953,331.2378,151.6953,327.2378,147.6953" style="stroke:#181818;stroke-width:1;"/><text fill="#000000" font-family="sans-serif" font-size="13" lengthAdjust="spacing" textLength="593.2837" x="327.2378" y="129.6294">command_transfer(&amp;qspi.handle, qspi.cmd.get(), NULL, 0, status, QSPI_STATUS_REG_SIZE)</text></g><g class="message" data-entity-1="part3" data-entity-2="part3" id="msg5"><line style="stroke:#181818;stroke-width:1;stroke-dasharray:2,2;" x1="320.2378" x2="362.2378" y1="186.8281" y2="186.8281"/><line style="stroke:#181818;stroke-width:1;stroke-dasharray:2,2;" x1="362.2378" x2="362.2378" y1="186.8281" y2="199.8281"/><line style="stroke:#181818;stroke-width:1;stroke-dasharray:2,2;" x1="315.2378" x2="362.2378" y1="199.8281" y2="199.8281"/><polygon fill="#181818" points="325.2378,195.8281,315.2378,199.8281,325.2378,203.8281,321.2378,199.8281" style="stroke:#181818;stroke-width:1;"/><text fill="#000000" font-family="sans-serif" font-size="13" lengthAdjust="spacing" textLength="150.3062" x="327.2378" y="181.7622">ret = QSPI_STATUS_OK</text></g><path d="M53.9795,209.8281 L118.4224,209.8281 L118.4224,216.9609 L108.4224,226.9609 L53.9795,226.9609 L53.9795,209.8281" fill="#EEEEEE" style="stroke:#000000;stroke-width:1.5;"/><rect fill="none" height="213.6641" style="stroke:#000000;stroke-width:1.5;" width="733.6147" x="53.9795" y="209.8281"/><text fill="#000000" font-family="sans-serif" font-size="13" font-weight="bold" lengthAdjust="spacing" textLength="19.4429" x="68.9795" y="222.895">alt</text><a href="QSPI_CMD_RSTEN" target="_top" title="QSPI_CMD_RSTEN" xlink:actuate="onRequest" xlink:href="QSPI_CMD_RSTEN" xlink:show="new" xlink:title="QSPI_CMD_RSTEN" xlink:type="simple"><text fill="#0000FF" font-family="sans-serif" font-size="11" font-weight="bold" lengthAdjust="spacing" text-decoration="underline" textLength="25.7168" x="133.4224" y="222.0386">!= 0</text></a><g class="message" data-entity-1="part3" data-entity-2="part2" id="msg6"><polygon fill="#181818" points="138.502,244.0938,128.502,248.0938,138.502,252.0938,134.502,248.0938" style="stroke:#181818;stroke-width:1;"/><line style="stroke:#181818;stroke-width:1;" x1="132.502" x2="304.2378" y1="248.0938" y2="248.0938"/><text fill="#000000" font-family="sans-serif" font-size="13" lengthAdjust="spacing" textLength="158.7358" x="144.502" y="243.0278">build(QSPI_CMD_RSTEN)</text></g><g class="message" data-entity-1="part2" data-entity-2="part3" id="msg7"><polygon fill="#181818" points="293.2378,258.0938,303.2378,262.0938,293.2378,266.0938,297.2378,262.0938" style="stroke:#181818;stroke-width:1;"/><line style="stroke:#181818;stroke-width:1;stroke-dasharray:2,2;" x1="122.502" x2="299.2378" y1="262.0938" y2="262.0938"/></g><g class="message" data-entity-1="part3" data-entity-2="part3" id="msg8"><line style="stroke:#181818;stroke-width:1;" x1="315.2378" x2="362.2378" y1="286.2266" y2="286.2266"/><line style="stroke:#181818;stroke-width:1;" x1="362.2378" x2="362.2378" y1="286.2266" y2="299.2266"/><line style="stroke:#181818;stroke-width:1;" x1="321.2378" x2="362.2378" y1="299.2266" y2="299.2266"/><polygon fill="#181818" points="331.2378,295.2266,321.2378,299.2266,331.2378,303.2266,327.2378,299.2266" style="stroke:#181818;stroke-width:1;"/><text fill="#000000" font-family="sans-serif" font-size="13" lengthAdjust="spacing" textLength="438.3564" x="327.2378" y="281.1606">command_transfer(&amp;qspi.handle, qspi.cmd.get(), NULL, 0, NULL, 0)</text></g><g class="message" data-entity-1="part3" data-entity-2="part3" id="msg9"><line style="stroke:#181818;stroke-width:1;stroke-dasharray:2,2;" x1="320.2378" x2="362.2378" y1="338.3594" y2="338.3594"/><line style="stroke:#181818;stroke-width:1;stroke-dasharray:2,2;" x1="362.2378" x2="362.2378" y1="338.3594" y2="351.3594"/><line style="stroke:#181818;stroke-width:1;stroke-dasharray:2,2;" x1="315.2378" x2="362.2378" y1="351.3594" y2="351.3594"/><polygon fill="#181818" points="325.2378,347.3594,315.2378,351.3594,325.2378,355.3594,321.2378,351.3594" style="stroke:#181818;stroke-width:1;"/><text fill="#000000" font-family="sans-serif" font-size="13" lengthAdjust="spacing" textLength="150.3062" x="327.2378" y="333.2935">ret = QSPI_STATUS_OK</text></g><g class="message" data-entity-1="part3" data-entity-2="part3" id="msg10"><line style="stroke:#181818;stroke-width:1;" x1="315.2378" x2="362.2378" y1="370.4922" y2="370.4922"/><line style="stroke:#181818;stroke-width:1;" x1="362.2378" x2="362.2378" y1="370.4922" y2="383.4922"/><line style="stroke:#181818;stroke-width:1;" x1="321.2378" x2="362.2378" y1="383.4922" y2="383.4922"/><polygon fill="#181818" points="331.2378,379.4922,321.2378,383.4922,331.2378,387.4922,327.2378,383.4922" style="stroke:#181818;stroke-width:1;"/><text fill="#000000" font-family="sans-serif" font-size="13" lengthAdjust="spacing" textLength="224.4531" x="327.2378" y="365.4263">WAIT_FOR(WRSR_MAX_TIME, qspi)</text></g><g class="message" data-entity-1="part3" data-entity-2="part3" id="msg11"><line style="stroke:#181818;stroke-width:1;stroke-dasharray:2,2;" x1="320.2378" x2="362.2378" y1="407.4922" y2="407.4922"/><line style="stroke:#181818;stroke-width:1;stroke-dasharray:2,2;" x1="362.2378" x2="362.2378" y1="407.4922" y2="420.4922"/><line style="stroke:#181818;stroke-width:1;stroke-dasharray:2,2;" x1="315.2378" x2="362.2378" y1="420.4922" y2="420.4922"/><polygon fill="#181818" points="325.2378,416.4922,315.2378,420.4922,325.2378,424.4922,321.2378,420.4922" style="stroke:#181818;stroke-width:1;"/></g><g class="message" data-entity-1="part3" data-entity-2="part2" id="msg12"><polygon fill="#181818" points="138.502,447.625,128.502,451.625,138.502,455.625,134.502,451.625" style="stroke:#181818;stroke-width:1;"/><line style="stroke:#181818;stroke-width:1;" x1="132.502" x2="304.2378" y1="451.625" y2="451.625"/><text fill="#000000" font-family="sans-serif" font-size="13" lengthAdjust="spacing" textLength="140.7974" x="144.502" y="446.5591">build(QSPI_CMD_RST)</text></g><g class="message" data-entity-1="part2" data-entity-2="part3" id="msg13"><polygon fill="#181818" points="293.2378,461.625,303.2378,465.625,293.2378,469.625,297.2378,465.625" style="stroke:#181818;stroke-width:1;"/><line style="stroke:#181818;stroke-width:1;stroke-dasharray:2,2;" x1="122.502" x2="299.2378" y1="465.625" y2="465.625"/></g><g class="message" data-entity-1="part3" data-entity-2="part3" id="msg14"><line style="stroke:#181818;stroke-width:1;" x1="315.2378" x2="362.2378" y1="489.7578" y2="489.7578"/><line style="stroke:#181818;stroke-width:1;" x1="362.2378" x2="362.2378" y1="489.7578" y2="502.7578"/><line style="stroke:#181818;stroke-width:1;" x1="321.2378" x2="362.2378" y1="502.7578" y2="502.7578"/><polygon fill="#181818" points="331.2378,498.7578,321.2378,502.7578,331.2378,506.7578,327.2378,502.7578" style="stroke:#181818;stroke-width:1;"/><text fill="#000000" font-family="sans-serif" font-size="13" lengthAdjust="spacing" textLength="438.3564" x="327.2378" y="484.6919">command_transfer(&amp;qspi.handle, qspi.cmd.get(), NULL, 0, NULL, 0)</text></g><g class="message" data-entity-1="part3" data-entity-2="part3" id="msg15"><line style="stroke:#181818;stroke-width:1;stroke-dasharray:2,2;" x1="320.2378" x2="362.2378" y1="541.8906" y2="541.8906"/><line style="stroke:#181818;stroke-width:1;stroke-dasharray:2,2;" x1="362.2378" x2="362.2378" y1="541.8906" y2="554.8906"/><line style="stroke:#181818;stroke-width:1;stroke-dasharray:2,2;" x1="315.2378" x2="362.2378" y1="554.8906" y2="554.8906"/><polygon fill="#181818" points="325.2378,550.8906,315.2378,554.8906,325.2378,558.8906,321.2378,554.8906" style="stroke:#181818;stroke-width:1;"/><text fill="#000000" font-family="sans-serif" font-size="13" lengthAdjust="spacing" textLength="150.3062" x="327.2378" y="536.8247">ret = QSPI_STATUS_OK</text></g><g class="message" data-entity-1="part3" data-entity-2="part3" id="msg16"><line style="stroke:#181818;stroke-width:1;" x1="315.2378" x2="362.2378" y1="574.0234" y2="574.0234"/><line style="stroke:#181818;stroke-width:1;" x1="362.2378" x2="362.2378" y1="574.0234" y2="587.0234"/><line style="stroke:#181818;stroke-width:1;" x1="321.2378" x2="362.2378" y1="587.0234" y2="587.0234"/><polygon fill="#181818" points="331.2378,583.0234,321.2378,587.0234,331.2378,591.0234,327.2378,587.0234" style="stroke:#181818;stroke-width:1;"/><text fill="#000000" font-family="sans-serif" font-size="13" lengthAdjust="spacing" textLength="218.8037" x="327.2378" y="568.9575">WAIT_FOR(WAIT_MAX_TIME, qspi)</text></g><g class="message" data-entity-1="part3" data-entity-2="part3" id="msg17"><line style="stroke:#181818;stroke-width:1;stroke-dasharray:2,2;" x1="320.2378" x2="362.2378" y1="611.0234" y2="611.0234"/><line style="stroke:#181818;stroke-width:1;stroke-dasharray:2,2;" x1="362.2378" x2="362.2378" y1="611.0234" y2="624.0234"/><line style="stroke:#181818;stroke-width:1;stroke-dasharray:2,2;" x1="315.2378" x2="362.2378" y1="624.0234" y2="624.0234"/><polygon fill="#181818" points="325.2378,620.0234,315.2378,624.0234,325.2378,628.0234,321.2378,624.0234" style="stroke:#181818;stroke-width:1;"/></g><?plantuml-src nL9HQy8m47xFhxZvC5geulF0WTHkb5cTJKNP625humoqNTV6_VubgTWsEXrii3nTxhwxxxkFAsWfUCmBcWlePPJdFQ0L1390HRkqg0hklcSPpHEDSBFa6A0hAa18JO3-hVx13MnIMcq9pxcmFcJ6HZGM_9CAjeThc8JBiHBzkkDfOYtmeq_SO4B22GvR7OfQuVhDU9ImJlamRr-FQ-L4b3IlDgoqhfMAmLRcKkQ0_iHPCdXZmh8Tc2sdKmU63bI2YbtbW9Q2et6qn2JqxWdsdpnpXvgouIoPW56dS_xGrgcRQ2hWkLaKHzuChaOmV44WttbN5DZMkCxkAc7QetAcHMs2Nzgq3mmnUi66vO8pXiJwB4veN8tzYDpDGsiLuf04upM9_C2hnVrKm4aobYUNxX17_tE61t__uEBGjtwgmFJpFE7nS2Fn1G00?></g></svg>