<?plantuml 1.2026.1?><svg xmlns="http://www.w3.org/2000/svg" xmlns:xlink="http://www.w3.org/1999/xlink" contentStyleType="text/css" data-diagram-type="SEQUENCE" height="1145px" preserveAspectRatio="none" style="width:1275px;height:1145px;background:#FFFFFF;" version="1.1" viewBox="0 0 1275 1145" width="1275px" zoomAndPan="magnify"><defs/><g><g><title>gpio_api. GPIO_API</title><rect fill="#FFFFFF" height="1025.125" style="stroke:#181818;stroke-width:1;" width="10" x="300.9849" y="67.4297"/></g><g><title>pinmap. PinMap</title><rect fill="#FFFFFF" height="966.8594" style="stroke:#181818;stroke-width:1;" width="10" x="789.9043" y="96.5625"/></g><g><title>pinmap. PinMap</title><rect fill="#FFFFFF" height="28" style="stroke:#181818;stroke-width:1;" width="10" x="794.9043" y="133.6953"/></g><g><title>pinmap. PinMap</title><rect fill="#FFFFFF" height="28" style="stroke:#181818;stroke-width:1;" width="10" x="794.9043" y="205.8281"/></g><g><title>pinmap. PinMap</title><rect fill="#FFFFFF" height="28" style="stroke:#181818;stroke-width:1;" width="10" x="794.9043" y="277.9609"/></g><g><title>pinmap. PinMap</title><rect fill="#FFFFFF" height="28" style="stroke:#181818;stroke-width:1;" width="10" x="794.9043" y="350.0938"/></g><g><title>pinmap. PinMap</title><rect fill="#FFFFFF" height="28" style="stroke:#181818;stroke-width:1;" width="10" x="794.9043" y="422.2266"/></g><g><title>pinmap. PinMap</title><rect fill="#FFFFFF" height="28" style="stroke:#181818;stroke-width:1;" width="10" x="794.9043" y="494.3594"/></g><g><title>pinmap. PinMap</title><rect fill="#FFFFFF" height="28" style="stroke:#181818;stroke-width:1;" width="10" x="794.9043" y="566.4922"/></g><g><title>pinmap. PinMap</title><rect fill="#FFFFFF" height="28" style="stroke:#181818;stroke-width:1;" width="10" x="794.9043" y="638.625"/></g><g><title>pinmap. PinMap</title><rect fill="#FFFFFF" height="28" style="stroke:#181818;stroke-width:1;" width="10" x="794.9043" y="710.7578"/></g><g><title>pinmap. PinMap</title><rect fill="#FFFFFF" height="28" style="stroke:#181818;stroke-width:1;" width="10" x="794.9043" y="782.8906"/></g><g><title>pinmap. PinMap</title><rect fill="#FFFFFF" height="28" style="stroke:#181818;stroke-width:1;" width="10" x="794.9043" y="855.0234"/></g><g><title>pinmap. PinMap</title><rect fill="#FFFFFF" height="28" style="stroke:#181818;stroke-width:1;" width="10" x="794.9043" y="927.1563"/></g><g><title>pinmap. PinMap</title><rect fill="#FFFFFF" height="28" style="stroke:#181818;stroke-width:1;" width="10" x="794.9043" y="999.2891"/></g><g class="participant-lifeline" data-entity-uid="part1" data-qualified-name="Main" id="part1-lifeline"><g><title>main</title><rect fill="#000000" fill-opacity="0.00000" height="1074.2578" width="8" x="25.4897" y="36.2969"/><line style="stroke:#181818;stroke-width:0.5;stroke-dasharray:5,5;" x1="29" x2="29" y1="36.2969" y2="1110.5547"/></g></g><g class="participant-lifeline" data-entity-uid="part2" data-qualified-name="GPIO_API" id="part2-lifeline"><g><title>gpio_api. GPIO_API</title><rect fill="#000000" fill-opacity="0.00000" height="1074.2578" width="8" x="301.9849" y="36.2969"/><line style="stroke:#181818;stroke-width:0.5;stroke-dasharray:5,5;" x1="305.3154" x2="305.3154" y1="36.2969" y2="1110.5547"/></g></g><g class="participant-lifeline" data-entity-uid="part3" data-qualified-name="PinMap" id="part3-lifeline"><g><title>pinmap. PinMap</title><rect fill="#000000" fill-opacity="0.00000" height="1074.2578" width="8" x="790.9043" y="36.2969"/><line style="stroke:#181818;stroke-width:0.5;stroke-dasharray:5,5;" x1="794.5693" x2="794.5693" y1="36.2969" y2="1110.5547"/></g></g><g class="participant participant-head" data-entity-uid="part1" data-qualified-name="Main" id="part1-head"><rect fill="#E2E2F0" height="30.2969" rx="2.5" ry="2.5" style="stroke:#181818;stroke-width:0.5;" width="48.9795" x="5" y="5"/><text fill="#000000" font-family="sans-serif" font-size="14" lengthAdjust="spacing" textLength="34.9795" x="12" y="24.9951">main</text></g><g class="participant participant-tail" data-entity-uid="part1" data-qualified-name="Main" id="part1-tail"><rect fill="#E2E2F0" height="30.2969" rx="2.5" ry="2.5" style="stroke:#181818;stroke-width:0.5;" width="48.9795" x="5" y="1109.5547"/><text fill="#000000" font-family="sans-serif" font-size="14" lengthAdjust="spacing" textLength="34.9795" x="12" y="1129.5498">main</text></g><g class="participant participant-head" data-entity-uid="part2" data-qualified-name="GPIO_API" id="part2-head"><rect fill="#E2E2F0" height="30.2969" rx="2.5" ry="2.5" style="stroke:#181818;stroke-width:0.5;" width="145.3389" x="233.3154" y="5"/><text fill="#000000" font-family="sans-serif" font-size="14" lengthAdjust="spacing" textLength="131.3389" x="240.3154" y="24.9951">gpio_api: GPIO_API</text></g><g class="participant participant-tail" data-entity-uid="part2" data-qualified-name="GPIO_API" id="part2-tail"><rect fill="#E2E2F0" height="30.2969" rx="2.5" ry="2.5" style="stroke:#181818;stroke-width:0.5;" width="145.3389" x="233.3154" y="1109.5547"/><text fill="#000000" font-family="sans-serif" font-size="14" lengthAdjust="spacing" textLength="131.3389" x="240.3154" y="1129.5498">gpio_api: GPIO_API</text></g><g class="participant participant-head" data-entity-uid="part3" data-qualified-name="PinMap" id="part3-head"><rect fill="#E2E2F0" height="30.2969" rx="2.5" ry="2.5" style="stroke:#181818;stroke-width:0.5;" width="126.6699" x="731.5693" y="5"/><text fill="#000000" font-family="sans-serif" font-size="14" lengthAdjust="spacing" textLength="112.6699" x="738.5693" y="24.9951">pinmap: PinMap</text></g><g class="participant participant-tail" data-entity-uid="part3" data-qualified-name="PinMap" id="part3-tail"><rect fill="#E2E2F0" height="30.2969" rx="2.5" ry="2.5" style="stroke:#181818;stroke-width:0.5;" width="126.6699" x="731.5693" y="1109.5547"/><text fill="#000000" font-family="sans-serif" font-size="14" lengthAdjust="spacing" textLength="112.6699" x="738.5693" y="1129.5498">pinmap: PinMap</text></g><g><title>gpio_api. GPIO_API</title><rect fill="#FFFFFF" height="1025.125" style="stroke:#181818;stroke-width:1;" width="10" x="300.9849" y="67.4297"/></g><g><title>pinmap. PinMap</title><rect fill="#FFFFFF" height="966.8594" style="stroke:#181818;stroke-width:1;" width="10" x="789.9043" y="96.5625"/></g><g><title>pinmap. PinMap</title><rect fill="#FFFFFF" height="28" style="stroke:#181818;stroke-width:1;" width="10" x="794.9043" y="133.6953"/></g><g><title>pinmap. PinMap</title><rect fill="#FFFFFF" height="28" style="stroke:#181818;stroke-width:1;" width="10" x="794.9043" y="205.8281"/></g><g><title>pinmap. PinMap</title><rect fill="#FFFFFF" height="28" style="stroke:#181818;stroke-width:1;" width="10" x="794.9043" y="277.9609"/></g><g><title>pinmap. PinMap</title><rect fill="#FFFFFF" height="28" style="stroke:#181818;stroke-width:1;" width="10" x="794.9043" y="350.0938"/></g><g><title>pinmap. PinMap</title><rect fill="#FFFFFF" height="28" style="stroke:#181818;stroke-width:1;" width="10" x="794.9043" y="422.2266"/></g><g><title>pinmap. PinMap</title><rect fill="#FFFFFF" height="28" style="stroke:#181818;stroke-width:1;" width="10" x="794.9043" y="494.3594"/></g><g><title>pinmap. PinMap</title><rect fill="#FFFFFF" height="28" style="stroke:#181818;stroke-width:1;" width="10" x="794.9043" y="566.4922"/></g><g><title>pinmap. PinMap</title><rect fill="#FFFFFF" height="28" style="stroke:#181818;stroke-width:1;" width="10" x="794.9043" y="638.625"/></g><g><title>pinmap. PinMap</title><rect fill="#FFFFFF" height="28" style="stroke:#181818;stroke-width:1;" width="10" x="794.9043" y="710.7578"/></g><g><title>pinmap. PinMap</title><rect fill="#FFFFFF" height="28" style="stroke:#181818;stroke-width:1;" width="10" x="794.9043" y="782.8906"/></g><g><title>pinmap. PinMap</title><rect fill="#FFFFFF" height="28" style="stroke:#181818;stroke-width:1;" width="10" x="794.9043" y="855.0234"/></g><g><title>pinmap. PinMap</title><rect fill="#FFFFFF" height="28" style="stroke:#181818;stroke-width:1;" width="10" x="794.9043" y="927.1563"/></g><g><title>pinmap. PinMap</title><rect fill="#FFFFFF" height="28" style="stroke:#181818;stroke-width:1;" width="10" x="794.9043" y="999.2891"/></g><g class="message" data-entity-1="part1" data-entity-2="part2" id="msg1"><polygon fill="#181818" points="288.9849,63.4297,298.9849,67.4297,288.9849,71.4297,292.9849,67.4297" style="stroke:#181818;stroke-width:1;"/><line style="stroke:#181818;stroke-width:1;" x1="29.4897" x2="294.9849" y1="67.4297" y2="67.4297"/><text fill="#000000" font-family="sans-serif" font-size="13" lengthAdjust="spacing" textLength="84.6841" x="36.4897" y="62.3638">gpio_set(pin)</text></g><g class="message" data-entity-1="part2" data-entity-2="part3" id="msg2"><polygon fill="#181818" points="777.9043,92.5625,787.9043,96.5625,777.9043,100.5625,781.9043,96.5625" style="stroke:#181818;stroke-width:1;"/><line style="stroke:#181818;stroke-width:1;" x1="310.9849" x2="783.9043" y1="96.5625" y2="96.5625"/><text fill="#000000" font-family="sans-serif" font-size="13" lengthAdjust="spacing" textLength="459.9194" x="317.9849" y="91.4966">pin_function(pin, STM_PIN_DATA(STM_MODE_INPUT, GPIO_NOPULL, 0))</text></g><g class="message" data-entity-1="part3" data-entity-2="part3" id="msg3"><line style="stroke:#181818;stroke-width:1;" x1="804.9043" x2="846.9043" y1="125.6953" y2="125.6953"/><line style="stroke:#181818;stroke-width:1;" x1="846.9043" x2="846.9043" y1="125.6953" y2="138.6953"/><line style="stroke:#181818;stroke-width:1;" x1="805.9043" x2="846.9043" y1="138.6953" y2="138.6953"/><polygon fill="#181818" points="815.9043,134.6953,805.9043,138.6953,815.9043,142.6953,811.9043,138.6953" style="stroke:#181818;stroke-width:1;"/><text fill="#000000" font-family="sans-serif" font-size="13" lengthAdjust="spacing" textLength="456.7012" x="811.9043" y="120.6294">is_dualpad_switch_gpio_configurable(pin, function, pLL_AnalogSwitch)</text></g><g class="message" data-entity-1="part3" data-entity-2="part3" id="msg4"><line style="stroke:#181818;stroke-width:1;" x1="804.9043" x2="846.9043" y1="197.8281" y2="197.8281"/><line style="stroke:#181818;stroke-width:1;" x1="846.9043" x2="846.9043" y1="197.8281" y2="210.8281"/><line style="stroke:#181818;stroke-width:1;" x1="805.9043" x2="846.9043" y1="210.8281" y2="210.8281"/><polygon fill="#181818" points="815.9043,206.8281,805.9043,210.8281,815.9043,214.8281,811.9043,210.8281" style="stroke:#181818;stroke-width:1;"/><text fill="#000000" font-family="sans-serif" font-size="13" lengthAdjust="spacing" textLength="377.165" x="811.9043" y="192.7622">configure_dualpad_switch(pin, function, LL_AnalogSwitch)</text></g><g class="message" data-entity-1="part3" data-entity-2="part3" id="msg5"><line style="stroke:#181818;stroke-width:1;" x1="804.9043" x2="846.9043" y1="269.9609" y2="269.9609"/><line style="stroke:#181818;stroke-width:1;" x1="846.9043" x2="846.9043" y1="269.9609" y2="282.9609"/><line style="stroke:#181818;stroke-width:1;" x1="805.9043" x2="846.9043" y1="282.9609" y2="282.9609"/><polygon fill="#181818" points="815.9043,278.9609,805.9043,282.9609,815.9043,286.9609,811.9043,282.9609" style="stroke:#181818;stroke-width:1;"/><text fill="#000000" font-family="sans-serif" font-size="13" lengthAdjust="spacing" textLength="164.4932" x="811.9043" y="264.895">Set_GPIO_Clock(port_idx)</text></g><g class="message" data-entity-1="part3" data-entity-2="part3" id="msg6"><line style="stroke:#181818;stroke-width:1;" x1="804.9043" x2="846.9043" y1="342.0938" y2="342.0938"/><line style="stroke:#181818;stroke-width:1;" x1="846.9043" x2="846.9043" y1="342.0938" y2="355.0938"/><line style="stroke:#181818;stroke-width:1;" x1="805.9043" x2="846.9043" y1="355.0938" y2="355.0938"/><polygon fill="#181818" points="815.9043,351.0938,805.9043,355.0938,815.9043,359.0938,811.9043,355.0938" style="stroke:#181818;stroke-width:1;"/><text fill="#000000" font-family="sans-serif" font-size="13" lengthAdjust="spacing" textLength="330.8145" x="811.9043" y="337.0278">LL_HSEM_1StepLock(HSEM, CFG_HW_GPIO_SEMID)</text></g><g class="message" data-entity-1="part3" data-entity-2="part3" id="msg7"><line style="stroke:#181818;stroke-width:1;" x1="804.9043" x2="846.9043" y1="414.2266" y2="414.2266"/><line style="stroke:#181818;stroke-width:1;" x1="846.9043" x2="846.9043" y1="414.2266" y2="427.2266"/><line style="stroke:#181818;stroke-width:1;" x1="805.9043" x2="846.9043" y1="427.2266" y2="427.2266"/><polygon fill="#181818" points="815.9043,423.2266,805.9043,427.2266,815.9043,431.2266,811.9043,427.2266" style="stroke:#181818;stroke-width:1;"/><text fill="#000000" font-family="sans-serif" font-size="13" lengthAdjust="spacing" textLength="268.0425" x="811.9043" y="409.1606">LL_GPIO_SetPinSpeed(GPIOx, Pin, Speed)</text></g><g class="message" data-entity-1="part3" data-entity-2="part3" id="msg8"><line style="stroke:#181818;stroke-width:1;" x1="804.9043" x2="846.9043" y1="486.3594" y2="486.3594"/><line style="stroke:#181818;stroke-width:1;" x1="846.9043" x2="846.9043" y1="486.3594" y2="499.3594"/><line style="stroke:#181818;stroke-width:1;" x1="805.9043" x2="846.9043" y1="499.3594" y2="499.3594"/><polygon fill="#181818" points="815.9043,495.3594,805.9043,499.3594,815.9043,503.3594,811.9043,499.3594" style="stroke:#181818;stroke-width:1;"/><text fill="#000000" font-family="sans-serif" font-size="13" lengthAdjust="spacing" textLength="257.3784" x="811.9043" y="481.2935">LL_GPIO_SetPinMode(GPIOx, Pin, Mode)</text></g><g class="message" data-entity-1="part3" data-entity-2="part3" id="msg9"><line style="stroke:#181818;stroke-width:1;" x1="804.9043" x2="846.9043" y1="558.4922" y2="558.4922"/><line style="stroke:#181818;stroke-width:1;" x1="846.9043" x2="846.9043" y1="558.4922" y2="571.4922"/><line style="stroke:#181818;stroke-width:1;" x1="805.9043" x2="846.9043" y1="571.4922" y2="571.4922"/><polygon fill="#181818" points="815.9043,567.4922,805.9043,571.4922,815.9043,575.4922,811.9043,571.4922" style="stroke:#181818;stroke-width:1;"/><text fill="#000000" font-family="sans-serif" font-size="13" lengthAdjust="spacing" textLength="326.8853" x="811.9043" y="553.4263">LL_GPIO_EnablePinAnalogControl(GPIOx, PinMask)</text></g><g class="message" data-entity-1="part3" data-entity-2="part3" id="msg10"><line style="stroke:#181818;stroke-width:1;" x1="804.9043" x2="846.9043" y1="630.625" y2="630.625"/><line style="stroke:#181818;stroke-width:1;" x1="846.9043" x2="846.9043" y1="630.625" y2="643.625"/><line style="stroke:#181818;stroke-width:1;" x1="805.9043" x2="846.9043" y1="643.625" y2="643.625"/><polygon fill="#181818" points="815.9043,639.625,805.9043,643.625,815.9043,647.625,811.9043,643.625" style="stroke:#181818;stroke-width:1;"/><text fill="#000000" font-family="sans-serif" font-size="13" lengthAdjust="spacing" textLength="330.8271" x="811.9043" y="625.5591">LL_GPIO_DisablePinAnalogControl(GPIOx, PinMask)</text></g><g class="message" data-entity-1="part3" data-entity-2="part3" id="msg11"><line style="stroke:#181818;stroke-width:1;" x1="804.9043" x2="846.9043" y1="702.7578" y2="702.7578"/><line style="stroke:#181818;stroke-width:1;" x1="846.9043" x2="846.9043" y1="702.7578" y2="715.7578"/><line style="stroke:#181818;stroke-width:1;" x1="805.9043" x2="846.9043" y1="715.7578" y2="715.7578"/><polygon fill="#181818" points="815.9043,711.7578,805.9043,715.7578,815.9043,719.7578,811.9043,715.7578" style="stroke:#181818;stroke-width:1;"/><text fill="#000000" font-family="sans-serif" font-size="13" lengthAdjust="spacing" textLength="374.1055" x="811.9043" y="697.6919">LL_GPIO_SetPinOutputType(GPIOx, PinMask, OutputType)</text></g><g class="message" data-entity-1="part3" data-entity-2="part3" id="msg12"><line style="stroke:#181818;stroke-width:1;" x1="804.9043" x2="846.9043" y1="774.8906" y2="774.8906"/><line style="stroke:#181818;stroke-width:1;" x1="846.9043" x2="846.9043" y1="774.8906" y2="787.8906"/><line style="stroke:#181818;stroke-width:1;" x1="805.9043" x2="846.9043" y1="787.8906" y2="787.8906"/><polygon fill="#181818" points="815.9043,783.8906,805.9043,787.8906,815.9043,791.8906,811.9043,787.8906" style="stroke:#181818;stroke-width:1;"/><text fill="#000000" font-family="sans-serif" font-size="13" lengthAdjust="spacing" textLength="281.2139" x="811.9043" y="769.8247">stm_pin_PullConfig(gpio, ll_pin, pull_config)</text></g><g class="message" data-entity-1="part3" data-entity-2="part3" id="msg13"><line style="stroke:#181818;stroke-width:1;" x1="804.9043" x2="846.9043" y1="847.0234" y2="847.0234"/><line style="stroke:#181818;stroke-width:1;" x1="846.9043" x2="846.9043" y1="847.0234" y2="860.0234"/><line style="stroke:#181818;stroke-width:1;" x1="805.9043" x2="846.9043" y1="860.0234" y2="860.0234"/><polygon fill="#181818" points="815.9043,856.0234,805.9043,860.0234,815.9043,864.0234,811.9043,860.0234" style="stroke:#181818;stroke-width:1;"/><text fill="#000000" font-family="sans-serif" font-size="13" lengthAdjust="spacing" textLength="377.165" x="811.9043" y="841.9575">configure_dualpad_switch(pin, function, LL_AnalogSwitch)</text></g><g class="message" data-entity-1="part3" data-entity-2="part3" id="msg14"><line style="stroke:#181818;stroke-width:1;" x1="804.9043" x2="846.9043" y1="919.1563" y2="919.1563"/><line style="stroke:#181818;stroke-width:1;" x1="846.9043" x2="846.9043" y1="919.1563" y2="932.1563"/><line style="stroke:#181818;stroke-width:1;" x1="805.9043" x2="846.9043" y1="932.1563" y2="932.1563"/><polygon fill="#181818" points="815.9043,928.1563,805.9043,932.1563,815.9043,936.1563,811.9043,932.1563" style="stroke:#181818;stroke-width:1;"/><text fill="#000000" font-family="sans-serif" font-size="13" lengthAdjust="spacing" textLength="202.8521" x="811.9043" y="914.0903">stm_pin_DisconnectDebug(pin)</text></g><g class="message" data-entity-1="part3" data-entity-2="part3" id="msg15"><line style="stroke:#181818;stroke-width:1;" x1="804.9043" x2="846.9043" y1="991.2891" y2="991.2891"/><line style="stroke:#181818;stroke-width:1;" x1="846.9043" x2="846.9043" y1="991.2891" y2="1004.2891"/><line style="stroke:#181818;stroke-width:1;" x1="805.9043" x2="846.9043" y1="1004.2891" y2="1004.2891"/><polygon fill="#181818" points="815.9043,1000.2891,805.9043,1004.2891,815.9043,1008.2891,811.9043,1004.2891" style="stroke:#181818;stroke-width:1;"/><text fill="#000000" font-family="sans-serif" font-size="13" lengthAdjust="spacing" textLength="342.9258" x="811.9043" y="986.2231">LL_HSEM_ReleaseLock(HSEMx, Semaphore, process)</text></g><g class="message" data-entity-1="part3" data-entity-2="part2" id="msg16"><polygon fill="#181818" points="321.9849,1059.4219,311.9849,1063.4219,321.9849,1067.4219,317.9849,1063.4219" style="stroke:#181818;stroke-width:1;"/><line style="stroke:#181818;stroke-width:1;stroke-dasharray:2,2;" x1="315.9849" x2="793.9043" y1="1063.4219" y2="1063.4219"/><text fill="#000000" font-family="sans-serif" font-size="13" lengthAdjust="spacing" textLength="27.5107" x="327.9849" y="1058.356">void</text></g><g class="message" data-entity-1="part2" data-entity-2="part1" id="msg17"><polygon fill="#181818" points="40.4897,1088.5547,30.4897,1092.5547,40.4897,1096.5547,36.4897,1092.5547" style="stroke:#181818;stroke-width:1;"/><line style="stroke:#181818;stroke-width:1;stroke-dasharray:2,2;" x1="34.4897" x2="304.9849" y1="1092.5547" y2="1092.5547"/><text fill="#000000" font-family="sans-serif" font-size="13" lengthAdjust="spacing" textLength="247.4951" x="46.4897" y="1087.4888">(uint32_t)(1 &lt;&lt; ((uint32_t)pin &amp; 0xF))</text></g><?plantuml-src rPJ1JkCm48RlUOeHXrKg1GcMMuLMgfe2aP8ssXJjqJB9K2nSsueTwBxzZXFIfbqEqAALzXQF__c_iPqPmsidIc6uSd2svaAT0RUGqKTWXbih8pJZHepXDayMR98dhR1Vx8kDK6jknf0BbN7J2hlF8F3ESFvZcmXZQAqjkf3IHW4ldNZX3dVMmLPBUPqFPP6OFJQAr5hvp0YAPSRoPCxYoN8I-aMsY6SicUVtowXpco_o-pIDu68quFILlJaF6SAogk7Iy8hPL-7A9zRMMchrA5PDpHyaTkY-a0XCchA9ubAlYZRZRr257q7t33oeu93tHRW27MklQ2fr-HmQNJicgisnTbJLNJ7Bs6NXqAJUqIyZcDxSihjV7Oa2INm2e3D1Hx7285QX3smYhw5_mKU-nZpJ5Uvv-y2frZFbVnuATuytrShLMWum6RVFfq9YOVy1fRkbHUDCuvQ_3HxOHx3REXPbtPhvViyRAQTjOuI-4IEGahNzO6ZZhIt_auRhZqHlH6I5fOlneLaTpC2ZckudIkGMjsr7Rr4WpUCdNIDTLQrBjFPJaFrv_Q95zPvwDwP9tyxvCOIDKExgEtEZy1Akho7S1UYay0qkDZSqZ0TklSiV?></g></svg>