<?plantuml 1.2026.1?><svg xmlns="http://www.w3.org/2000/svg" xmlns:xlink="http://www.w3.org/1999/xlink" contentStyleType="text/css" data-diagram-type="SEQUENCE" height="651px" preserveAspectRatio="none" style="width:703px;height:651px;background:#FFFFFF;" version="1.1" viewBox="0 0 703 651" width="703px" zoomAndPan="magnify"><defs/><g><g><title>gpio_api.c</title><rect fill="#FFFFFF" height="516.1406" style="stroke:#181818;stroke-width:1;" width="10" x="67.3657" y="75.4297"/></g><g><title>adi_gpio.c</title><rect fill="#FFFFFF" height="240.4063" style="stroke:#181818;stroke-width:1;" width="10" x="414.1846" y="317.0313"/></g><rect fill="none" height="335.6094" style="stroke:#000000;stroke-width:1.5;" width="686.2324" x="10" y="221.8281"/><rect fill="none" height="218.4063" style="stroke:#000000;stroke-width:1.5;" width="666.2324" x="20" y="332.0313"/><g class="participant-lifeline" data-entity-uid="part1" data-qualified-name="gpio_api_c" id="part1-lifeline"><g><title>gpio_api.c</title><rect fill="#000000" fill-opacity="0.00000" height="580.2734" width="8" x="68.3657" y="36.2969"/><line style="stroke:#181818;stroke-width:0.5;stroke-dasharray:5,5;" x1="72" x2="72" y1="36.2969" y2="616.5703"/></g></g><g class="participant-lifeline" data-entity-uid="part2" data-qualified-name="adi_gpio_c" id="part2-lifeline"><g><title>adi_gpio.c</title><rect fill="#000000" fill-opacity="0.00000" height="580.2734" width="8" x="415.1846" y="36.2969"/><line style="stroke:#181818;stroke-width:0.5;stroke-dasharray:5,5;" x1="418.8188" x2="418.8188" y1="36.2969" y2="616.5703"/></g></g><g class="participant participant-head" data-entity-uid="part1" data-qualified-name="gpio_api_c" id="part1-head"><rect fill="#E2E2F0" height="30.2969" rx="2.5" ry="2.5" style="stroke:#181818;stroke-width:0.5;" width="84.7314" x="30" y="5"/><text fill="#000000" font-family="sans-serif" font-size="14" lengthAdjust="spacing" textLength="70.7314" x="37" y="24.9951">gpio_api.c</text></g><g class="participant participant-tail" data-entity-uid="part1" data-qualified-name="gpio_api_c" id="part1-tail"><rect fill="#E2E2F0" height="30.2969" rx="2.5" ry="2.5" style="stroke:#181818;stroke-width:0.5;" width="84.7314" x="30" y="615.5703"/><text fill="#000000" font-family="sans-serif" font-size="14" lengthAdjust="spacing" textLength="70.7314" x="37" y="635.5654">gpio_api.c</text></g><g class="participant participant-head" data-entity-uid="part2" data-qualified-name="adi_gpio_c" id="part2-head"><rect fill="#E2E2F0" height="30.2969" rx="2.5" ry="2.5" style="stroke:#181818;stroke-width:0.5;" width="84.7314" x="376.8188" y="5"/><text fill="#000000" font-family="sans-serif" font-size="14" lengthAdjust="spacing" textLength="70.7314" x="383.8188" y="24.9951">adi_gpio.c</text></g><g class="participant participant-tail" data-entity-uid="part2" data-qualified-name="adi_gpio_c" id="part2-tail"><rect fill="#E2E2F0" height="30.2969" rx="2.5" ry="2.5" style="stroke:#181818;stroke-width:0.5;" width="84.7314" x="376.8188" y="615.5703"/><text fill="#000000" font-family="sans-serif" font-size="14" lengthAdjust="spacing" textLength="70.7314" x="383.8188" y="635.5654">adi_gpio.c</text></g><g><title>gpio_api.c</title><rect fill="#FFFFFF" height="516.1406" style="stroke:#181818;stroke-width:1;" width="10" x="67.3657" y="75.4297"/></g><g><title>adi_gpio.c</title><rect fill="#FFFFFF" height="240.4063" style="stroke:#181818;stroke-width:1;" width="10" x="414.1846" y="317.0313"/></g><g class="message" data-entity-1="part1" data-entity-2="part1" id="msg1"><line style="stroke:#181818;stroke-width:1;" x1="72.3657" x2="119.3657" y1="62.4297" y2="62.4297"/><line style="stroke:#181818;stroke-width:1;" x1="119.3657" x2="119.3657" y1="62.4297" y2="75.4297"/><line style="stroke:#181818;stroke-width:1;" x1="78.3657" x2="119.3657" y1="75.4297" y2="75.4297"/><polygon fill="#181818" points="88.3657,71.4297,78.3657,75.4297,88.3657,79.4297,84.3657,75.4297" style="stroke:#181818;stroke-width:1;"/><text fill="#000000" font-family="sans-serif" font-size="13" lengthAdjust="spacing" textLength="144.3901" x="84.3657" y="57.3638">gpio_read(gpio_t *obj)</text></g><g class="message" data-entity-1="part1" data-entity-2="part1" id="msg2"><line style="stroke:#181818;stroke-width:1;" x1="77.3657" x2="119.3657" y1="109.5625" y2="109.5625"/><line style="stroke:#181818;stroke-width:1;" x1="119.3657" x2="119.3657" y1="109.5625" y2="122.5625"/><line style="stroke:#181818;stroke-width:1;" x1="78.3657" x2="119.3657" y1="122.5625" y2="122.5625"/><polygon fill="#181818" points="88.3657,118.5625,78.3657,122.5625,88.3657,126.5625,84.3657,122.5625" style="stroke:#181818;stroke-width:1;"/><text fill="#000000" font-family="sans-serif" font-size="13" lengthAdjust="spacing" textLength="272.4478" x="84.3657" y="104.4966">MBED_ASSERT(obj-&gt;pin != (PinName)NC)</text></g><g class="message" data-entity-1="part1" data-entity-2="part1" id="msg3"><line style="stroke:#181818;stroke-width:1;" x1="77.3657" x2="119.3657" y1="151.6953" y2="151.6953"/><line style="stroke:#181818;stroke-width:1;" x1="119.3657" x2="119.3657" y1="151.6953" y2="164.6953"/><line style="stroke:#181818;stroke-width:1;" x1="78.3657" x2="119.3657" y1="164.6953" y2="164.6953"/><polygon fill="#181818" points="88.3657,160.6953,78.3657,164.6953,88.3657,168.6953,84.3657,164.6953" style="stroke:#181818;stroke-width:1;"/><text fill="#000000" font-family="sans-serif" font-size="13" lengthAdjust="spacing" textLength="306.1221" x="84.3657" y="146.6294">uint32_t port = obj-&gt;pin &gt;&gt; GPIO_PORT_SHIFT</text></g><g class="message" data-entity-1="part1" data-entity-2="part1" id="msg4"><line style="stroke:#181818;stroke-width:1;" x1="77.3657" x2="119.3657" y1="193.8281" y2="193.8281"/><line style="stroke:#181818;stroke-width:1;" x1="119.3657" x2="119.3657" y1="193.8281" y2="206.8281"/><line style="stroke:#181818;stroke-width:1;" x1="78.3657" x2="119.3657" y1="206.8281" y2="206.8281"/><polygon fill="#181818" points="88.3657,202.8281,78.3657,206.8281,88.3657,210.8281,84.3657,206.8281" style="stroke:#181818;stroke-width:1;"/><text fill="#000000" font-family="sans-serif" font-size="13" lengthAdjust="spacing" textLength="237.1865" x="84.3657" y="188.7622">uint32_t pin_num = obj-&gt;pin &amp; 0xFF</text></g><path d="M10,221.8281 L74.4429,221.8281 L74.4429,228.9609 L64.4429,238.9609 L10,238.9609 L10,221.8281" fill="#EEEEEE" style="stroke:#000000;stroke-width:1.5;"/><rect fill="none" height="335.6094" style="stroke:#000000;stroke-width:1.5;" width="686.2324" x="10" y="221.8281"/><text fill="#000000" font-family="sans-serif" font-size="13" font-weight="bold" lengthAdjust="spacing" textLength="19.4429" x="25" y="234.895">alt</text><text fill="#000000" font-family="sans-serif" font-size="11" font-weight="bold" lengthAdjust="spacing" textLength="234.9102" x="89.4429" y="234.0386">[[((gpio_oen[port] &gt;&gt; pin_num) &amp; 1)]]</text><g class="message" data-entity-1="part1" data-entity-2="part1" id="msg5"><line style="stroke:#181818;stroke-width:1;" x1="77.3657" x2="119.3657" y1="260.0938" y2="260.0938"/><line style="stroke:#181818;stroke-width:1;" x1="119.3657" x2="119.3657" y1="260.0938" y2="273.0938"/><line style="stroke:#181818;stroke-width:1;" x1="78.3657" x2="119.3657" y1="273.0938" y2="273.0938"/><polygon fill="#181818" points="88.3657,269.0938,78.3657,273.0938,88.3657,277.0938,84.3657,273.0938" style="stroke:#181818;stroke-width:1;"/><text fill="#000000" font-family="sans-serif" font-size="13" lengthAdjust="spacing" textLength="312.8188" x="84.3657" y="255.0278">Data = gpio_output_val[port] &amp; (1 &lt;&lt; pin_num)</text></g><line style="stroke:#000000;stroke-width:1;stroke-dasharray:2,2;" x1="10" x2="696.2324" y1="282.0938" y2="282.0938"/><a href="(otherwise" target="_top" title="(otherwise" xlink:actuate="onRequest" xlink:href="(otherwise" xlink:show="new" xlink:title="(otherwise" xlink:type="simple"><text fill="#0000FF" font-family="sans-serif" font-size="11" font-weight="bold" lengthAdjust="spacing" text-decoration="underline" textLength="81.3237" x="15" y="292.3042">call GetData)</text></a><g class="message" data-entity-1="part1" data-entity-2="part2" id="msg6"><polygon fill="#181818" points="402.1846,313.0313,412.1846,317.0313,402.1846,321.0313,406.1846,317.0313" style="stroke:#181818;stroke-width:1;"/><line style="stroke:#181818;stroke-width:1;" x1="77.3657" x2="408.1846" y1="317.0313" y2="317.0313"/><text fill="#000000" font-family="sans-serif" font-size="13" lengthAdjust="spacing" textLength="313.8154" x="84.3657" y="311.9653">adi_gpio_GetData(port, (1 &lt;&lt; pin_num), &amp;Data)</text></g><path d="M20,332.0313 L84.4429,332.0313 L84.4429,339.1641 L74.4429,349.1641 L20,349.1641 L20,332.0313" fill="#EEEEEE" style="stroke:#000000;stroke-width:1.5;"/><rect fill="none" height="218.4063" style="stroke:#000000;stroke-width:1.5;" width="666.2324" x="20" y="332.0313"/><text fill="#000000" font-family="sans-serif" font-size="13" font-weight="bold" lengthAdjust="spacing" textLength="19.4429" x="35" y="345.0981">alt</text><a href="NULL" target="_top" title="NULL" xlink:actuate="onRequest" xlink:href="NULL" xlink:show="new" xlink:title="NULL" xlink:type="simple"><text fill="#0000FF" font-family="sans-serif" font-size="11" font-weight="bold" lengthAdjust="spacing" text-decoration="underline" textLength="162.207" x="99.4429" y="344.2417">== adi_gpio_Device.pData</text></a><g class="message" data-entity-1="part2" data-entity-2="part1" id="msg7"><polygon fill="#181818" points="88.3657,366.2969,78.3657,370.2969,88.3657,374.2969,84.3657,370.2969" style="stroke:#181818;stroke-width:1;"/><line style="stroke:#181818;stroke-width:1;stroke-dasharray:2,2;" x1="82.3657" x2="413.1846" y1="370.2969" y2="370.2969"/><text fill="#000000" font-family="sans-serif" font-size="13" lengthAdjust="spacing" textLength="178.3818" x="94.3657" y="365.231">ADI_GPIO_NOT_INITIALIZED</text></g><line style="stroke:#000000;stroke-width:1;stroke-dasharray:2,2;" x1="20" x2="686.2324" y1="379.2969" y2="379.2969"/><a href="(!ArePinsValid(Port," target="_top" title="(!ArePinsValid(Port," xlink:actuate="onRequest" xlink:href="(!ArePinsValid(Port," xlink:show="new" xlink:title="(!ArePinsValid(Port," xlink:type="simple"><text fill="#0000FF" font-family="sans-serif" font-size="11" font-weight="bold" lengthAdjust="spacing" text-decoration="underline" textLength="36.2656" x="25" y="389.5073">Pins))</text></a><g class="message" data-entity-1="part2" data-entity-2="part1" id="msg8"><polygon fill="#181818" points="88.3657,410.2344,78.3657,414.2344,88.3657,418.2344,84.3657,414.2344" style="stroke:#181818;stroke-width:1;"/><line style="stroke:#181818;stroke-width:1;stroke-dasharray:2,2;" x1="82.3657" x2="413.1846" y1="414.2344" y2="414.2344"/><text fill="#000000" font-family="sans-serif" font-size="13" lengthAdjust="spacing" textLength="156.2983" x="94.3657" y="409.1685">ADI_GPIO_INVALID_PINS</text></g><line style="stroke:#000000;stroke-width:1;stroke-dasharray:2,2;" x1="20" x2="686.2324" y1="423.2344" y2="423.2344"/><a href="(valid" target="_top" title="(valid" xlink:actuate="onRequest" xlink:href="(valid" xlink:show="new" xlink:title="(valid" xlink:type="simple"><text fill="#0000FF" font-family="sans-serif" font-size="11" font-weight="bold" lengthAdjust="spacing" text-decoration="underline" textLength="31.0503" x="25" y="433.4448">pins)</text></a><g class="message" data-entity-1="part2" data-entity-2="part2" id="msg9"><line style="stroke:#181818;stroke-width:1;" x1="424.1846" x2="466.1846" y1="458.1719" y2="458.1719"/><line style="stroke:#181818;stroke-width:1;" x1="466.1846" x2="466.1846" y1="458.1719" y2="471.1719"/><line style="stroke:#181818;stroke-width:1;" x1="425.1846" x2="466.1846" y1="471.1719" y2="471.1719"/><polygon fill="#181818" points="435.1846,467.1719,425.1846,471.1719,435.1846,475.1719,431.1846,471.1719" style="stroke:#181818;stroke-width:1;"/><text fill="#000000" font-family="sans-serif" font-size="13" lengthAdjust="spacing" textLength="233.0479" x="431.1846" y="453.106">pPort = adi_gpio_Device.pReg[Port]</text></g><g class="message" data-entity-1="part2" data-entity-2="part2" id="msg10"><line style="stroke:#181818;stroke-width:1;" x1="424.1846" x2="466.1846" y1="500.3047" y2="500.3047"/><line style="stroke:#181818;stroke-width:1;" x1="466.1846" x2="466.1846" y1="500.3047" y2="513.3047"/><line style="stroke:#181818;stroke-width:1;" x1="425.1846" x2="466.1846" y1="513.3047" y2="513.3047"/><polygon fill="#181818" points="435.1846,509.3047,425.1846,513.3047,435.1846,517.3047,431.1846,513.3047" style="stroke:#181818;stroke-width:1;"/><text fill="#000000" font-family="sans-serif" font-size="13" lengthAdjust="spacing" textLength="169.1587" x="431.1846" y="495.2388">return the state of the pin</text></g><g class="message" data-entity-1="part2" data-entity-2="part1" id="msg11"><polygon fill="#181818" points="88.3657,538.4375,78.3657,542.4375,88.3657,546.4375,84.3657,542.4375" style="stroke:#181818;stroke-width:1;"/><line style="stroke:#181818;stroke-width:1;stroke-dasharray:2,2;" x1="82.3657" x2="413.1846" y1="542.4375" y2="542.4375"/><text fill="#000000" font-family="sans-serif" font-size="13" lengthAdjust="spacing" textLength="148.2622" x="94.3657" y="537.3716">uint16_t* const pValue</text></g><g class="message" data-entity-1="part1" data-entity-2="part1" id="msg12"><line style="stroke:#181818;stroke-width:1;" x1="77.3657" x2="119.3657" y1="590.5703" y2="590.5703"/><line style="stroke:#181818;stroke-width:1;" x1="119.3657" x2="119.3657" y1="590.5703" y2="603.5703"/><line style="stroke:#181818;stroke-width:1;" x1="72.3657" x2="119.3657" y1="603.5703" y2="603.5703"/><polygon fill="#181818" points="82.3657,599.5703,72.3657,603.5703,82.3657,607.5703,78.3657,603.5703" style="stroke:#181818;stroke-width:1;"/><text fill="#000000" font-family="sans-serif" font-size="13" lengthAdjust="spacing" textLength="281.8042" x="84.3657" y="585.5044">return ((((uint32_t)Data) &gt;&gt; pin_num) &amp; 1)</text></g><?plantuml-src bP9HJy8m4CVVzobE7iX6X8WcFXWXGGVQ1CS2amU9QUfMiMPqpTQX7z-sszW2Id1FlVNkzx_h_GL99GkP85n2QorOWebWlR0598CgnA4bccaaObZVbMbLgDAikWIwmmO0ReeWfIIopKb29tdxT2mIIhObaZRLZc6UxiOk7YqMutbWAq1tA1Y7im7OFkCUsL37ktUErUUCowjB9I-ILC80TepX41vyDCF-R1xWnIEQ1ATX6CSytpH9RRZudami4ajOsSMq2UKhBVYgPSeIHoNsdLSBr7T4oIMIA7g1oQN89TwIkAIrmUx3xUqEQT4ueqeraHyq_MBg798uXWSgDUPNiNfzIcmNb1MsbZdV4pc7jg4Ps6v_3HkOoRtdwHG6W_g_IxSif3sXQuj6J7qjtzqVVUGYR7RYpGACF1IWqHIzZDrgohDHIjNQioM9MMJxfbKTEyu_-SXRAhABVUGjAlXMG_NCsH-qlQSJVc6eWtddTBtIToTHKYhpb8DQ7sHIFsloRWBLnqaZQL_shx7iG9ZmJDbJlKrEJIdbaMKE4VrjQURwY0_BpcprLUPtZ0qEB6qr16h43m00?></g></svg>