<?plantuml 1.2026.1?><svg xmlns="http://www.w3.org/2000/svg" xmlns:xlink="http://www.w3.org/1999/xlink" contentStyleType="text/css" data-diagram-type="SEQUENCE" height="709px" preserveAspectRatio="none" style="width:753px;height:709px;background:#FFFFFF;" version="1.1" viewBox="0 0 753 709" width="753px" zoomAndPan="magnify"><defs/><g><g><title>adi_gpio</title><rect fill="#FFFFFF" height="396.6094" style="stroke:#181818;stroke-width:1;" width="10" x="394.1074" y="268.0938"/></g><g><title>adi_gpio</title><rect fill="#FFFFFF" height="297.5391" style="stroke:#181818;stroke-width:1;" width="10" x="399.1074" y="317.0313"/></g><g><title>ArePinsValid</title><rect fill="#FFFFFF" height="48.9375" style="stroke:#181818;stroke-width:1;" width="10" x="671.0283" y="378.2969"/></g><rect fill="none" height="392.7422" style="stroke:#000000;stroke-width:1.5;" width="736.6621" x="10" y="221.8281"/><rect fill="none" height="275.5391" style="stroke:#000000;stroke-width:1.5;" width="393.8467" x="342.8154" y="332.0313"/><rect fill="none" height="158.3359" style="stroke:#000000;stroke-width:1.5;" width="369.9336" x="352.8154" y="442.2344"/><g class="participant-lifeline" data-entity-uid="part1" data-qualified-name="gpio_api" id="part1-lifeline"><g><title>gpio_api</title><rect fill="#000000" fill-opacity="0.00000" height="637.4063" width="8" x="52.292" y="36.2969"/><line style="stroke:#181818;stroke-width:0.5;stroke-dasharray:5,5;" x1="56" x2="56" y1="36.2969" y2="673.7031"/></g></g><g class="participant-lifeline" data-entity-uid="part2" data-qualified-name="adi_gpio" id="part2-lifeline"><g><title>adi_gpio</title><rect fill="#000000" fill-opacity="0.00000" height="637.4063" width="8" x="395.1074" y="36.2969"/><line style="stroke:#181818;stroke-width:0.5;stroke-dasharray:5,5;" x1="398.8154" x2="398.8154" y1="36.2969" y2="673.7031"/></g></g><g class="participant-lifeline" data-entity-uid="part3" data-qualified-name="ArePinsValid" id="part3-lifeline"><g><title>ArePinsValid</title><rect fill="#000000" fill-opacity="0.00000" height="637.4063" width="8" x="672.0283" y="36.2969"/><line style="stroke:#181818;stroke-width:0.5;stroke-dasharray:5,5;" x1="675.3945" x2="675.3945" y1="36.2969" y2="673.7031"/></g></g><g class="participant participant-head" data-entity-uid="part1" data-qualified-name="gpio_api" id="part1-head"><rect fill="#E2E2F0" height="30.2969" rx="2.5" ry="2.5" style="stroke:#181818;stroke-width:0.5;" width="72.584" x="20" y="5"/><text fill="#000000" font-family="sans-serif" font-size="14" lengthAdjust="spacing" textLength="58.584" x="27" y="24.9951">gpio_api</text></g><g class="participant participant-tail" data-entity-uid="part1" data-qualified-name="gpio_api" id="part1-tail"><rect fill="#E2E2F0" height="30.2969" rx="2.5" ry="2.5" style="stroke:#181818;stroke-width:0.5;" width="72.584" x="20" y="672.7031"/><text fill="#000000" font-family="sans-serif" font-size="14" lengthAdjust="spacing" textLength="58.584" x="27" y="692.6982">gpio_api</text></g><g class="participant participant-head" data-entity-uid="part2" data-qualified-name="adi_gpio" id="part2-head"><rect fill="#E2E2F0" height="30.2969" rx="2.5" ry="2.5" style="stroke:#181818;stroke-width:0.5;" width="72.584" x="362.8154" y="5"/><text fill="#000000" font-family="sans-serif" font-size="14" lengthAdjust="spacing" textLength="58.584" x="369.8154" y="24.9951">adi_gpio</text></g><g class="participant participant-tail" data-entity-uid="part2" data-qualified-name="adi_gpio" id="part2-tail"><rect fill="#E2E2F0" height="30.2969" rx="2.5" ry="2.5" style="stroke:#181818;stroke-width:0.5;" width="72.584" x="362.8154" y="672.7031"/><text fill="#000000" font-family="sans-serif" font-size="14" lengthAdjust="spacing" textLength="58.584" x="369.8154" y="692.6982">adi_gpio</text></g><g class="participant participant-head" data-entity-uid="part3" data-qualified-name="ArePinsValid" id="part3-head"><rect fill="#E2E2F0" height="30.2969" rx="2.5" ry="2.5" style="stroke:#181818;stroke-width:0.5;" width="101.2676" x="625.3945" y="5"/><text fill="#000000" font-family="sans-serif" font-size="14" lengthAdjust="spacing" textLength="87.2676" x="632.3945" y="24.9951">ArePinsValid</text></g><g class="participant participant-tail" data-entity-uid="part3" data-qualified-name="ArePinsValid" id="part3-tail"><rect fill="#E2E2F0" height="30.2969" rx="2.5" ry="2.5" style="stroke:#181818;stroke-width:0.5;" width="101.2676" x="625.3945" y="672.7031"/><text fill="#000000" font-family="sans-serif" font-size="14" lengthAdjust="spacing" textLength="87.2676" x="632.3945" y="692.6982">ArePinsValid</text></g><g><title>adi_gpio</title><rect fill="#FFFFFF" height="396.6094" style="stroke:#181818;stroke-width:1;" width="10" x="394.1074" y="268.0938"/></g><g><title>adi_gpio</title><rect fill="#FFFFFF" height="297.5391" style="stroke:#181818;stroke-width:1;" width="10" x="399.1074" y="317.0313"/></g><g><title>ArePinsValid</title><rect fill="#FFFFFF" height="48.9375" style="stroke:#181818;stroke-width:1;" width="10" x="671.0283" y="378.2969"/></g><g class="message" data-entity-1="part1" data-entity-2="part1" id="msg1"><line style="stroke:#181818;stroke-width:1;" x1="56.292" x2="98.292" y1="67.4297" y2="67.4297"/><line style="stroke:#181818;stroke-width:1;" x1="98.292" x2="98.292" y1="67.4297" y2="80.4297"/><line style="stroke:#181818;stroke-width:1;" x1="57.292" x2="98.292" y1="80.4297" y2="80.4297"/><polygon fill="#181818" points="67.292,76.4297,57.292,80.4297,67.292,84.4297,63.292,80.4297" style="stroke:#181818;stroke-width:1;"/><text fill="#000000" font-family="sans-serif" font-size="13" lengthAdjust="spacing" textLength="272.4478" x="63.292" y="62.3638">MBED_ASSERT(obj-&gt;pin != (PinName)NC)</text></g><g class="message" data-entity-1="part1" data-entity-2="part1" id="msg2"><line style="stroke:#181818;stroke-width:1;" x1="56.292" x2="98.292" y1="109.5625" y2="109.5625"/><line style="stroke:#181818;stroke-width:1;" x1="98.292" x2="98.292" y1="109.5625" y2="122.5625"/><line style="stroke:#181818;stroke-width:1;" x1="57.292" x2="98.292" y1="122.5625" y2="122.5625"/><polygon fill="#181818" points="67.292,118.5625,57.292,122.5625,67.292,126.5625,63.292,122.5625" style="stroke:#181818;stroke-width:1;"/><text fill="#000000" font-family="sans-serif" font-size="13" lengthAdjust="spacing" textLength="306.1221" x="63.292" y="104.4966">uint32_t port = obj-&gt;pin &gt;&gt; GPIO_PORT_SHIFT</text></g><g class="message" data-entity-1="part1" data-entity-2="part1" id="msg3"><line style="stroke:#181818;stroke-width:1;" x1="56.292" x2="98.292" y1="151.6953" y2="151.6953"/><line style="stroke:#181818;stroke-width:1;" x1="98.292" x2="98.292" y1="151.6953" y2="164.6953"/><line style="stroke:#181818;stroke-width:1;" x1="57.292" x2="98.292" y1="164.6953" y2="164.6953"/><polygon fill="#181818" points="67.292,160.6953,57.292,164.6953,67.292,168.6953,63.292,164.6953" style="stroke:#181818;stroke-width:1;"/><text fill="#000000" font-family="sans-serif" font-size="13" lengthAdjust="spacing" textLength="237.1865" x="63.292" y="146.6294">uint32_t pin_num = obj-&gt;pin &amp; 0xFF</text></g><g class="message" data-entity-1="part1" data-entity-2="part1" id="msg4"><line style="stroke:#181818;stroke-width:1;" x1="56.292" x2="98.292" y1="193.8281" y2="193.8281"/><line style="stroke:#181818;stroke-width:1;" x1="98.292" x2="98.292" y1="193.8281" y2="206.8281"/><line style="stroke:#181818;stroke-width:1;" x1="57.292" x2="98.292" y1="206.8281" y2="206.8281"/><polygon fill="#181818" points="67.292,202.8281,57.292,206.8281,67.292,210.8281,63.292,206.8281" style="stroke:#181818;stroke-width:1;"/><text fill="#000000" font-family="sans-serif" font-size="13" lengthAdjust="spacing" textLength="88.499" x="63.292" y="188.7622">uint16_t Data</text></g><path d="M10,221.8281 L74.4429,221.8281 L74.4429,228.9609 L64.4429,238.9609 L10,238.9609 L10,221.8281" fill="#EEEEEE" style="stroke:#000000;stroke-width:1.5;"/><rect fill="none" height="392.7422" style="stroke:#000000;stroke-width:1.5;" width="736.6621" x="10" y="221.8281"/><text fill="#000000" font-family="sans-serif" font-size="13" font-weight="bold" lengthAdjust="spacing" textLength="19.4429" x="25" y="234.895">alt</text><text fill="#000000" font-family="sans-serif" font-size="11" font-weight="bold" lengthAdjust="spacing" textLength="224.8555" x="89.4429" y="234.0386">[((gpio_oen[port] &gt;&gt; pin_num) &amp; 1)]</text><g class="message" data-entity-1="part1" data-entity-2="part1" id="msg5"><line style="stroke:#181818;stroke-width:1;" x1="56.292" x2="98.292" y1="260.0938" y2="260.0938"/><line style="stroke:#181818;stroke-width:1;" x1="98.292" x2="98.292" y1="260.0938" y2="273.0938"/><line style="stroke:#181818;stroke-width:1;" x1="57.292" x2="98.292" y1="273.0938" y2="273.0938"/><polygon fill="#181818" points="67.292,269.0938,57.292,273.0938,67.292,277.0938,63.292,273.0938" style="stroke:#181818;stroke-width:1;"/><text fill="#000000" font-family="sans-serif" font-size="13" lengthAdjust="spacing" textLength="312.8188" x="63.292" y="255.0278">Data = gpio_output_val[port] &amp; (1 &lt;&lt; pin_num)</text></g><line style="stroke:#000000;stroke-width:1;stroke-dasharray:2,2;" x1="10" x2="746.6621" y1="282.0938" y2="282.0938"/><text fill="#000000" font-family="sans-serif" font-size="11" font-weight="bold" lengthAdjust="spacing" textLength="161.7075" x="15" y="292.3042">[(otherwise call GetData)]</text><g class="message" data-entity-1="part1" data-entity-2="part2" id="msg6"><polygon fill="#181818" points="387.1074,313.0313,397.1074,317.0313,387.1074,321.0313,391.1074,317.0313" style="stroke:#181818;stroke-width:1;"/><line style="stroke:#181818;stroke-width:1;" x1="56.292" x2="393.1074" y1="317.0313" y2="317.0313"/><text fill="#000000" font-family="sans-serif" font-size="13" lengthAdjust="spacing" textLength="313.8154" x="63.292" y="311.9653">adi_gpio_GetData(port, (1 &lt;&lt; pin_num), &amp;Data)</text></g><path d="M342.8154,332.0313 L407.2583,332.0313 L407.2583,339.1641 L397.2583,349.1641 L342.8154,349.1641 L342.8154,332.0313" fill="#EEEEEE" style="stroke:#000000;stroke-width:1.5;"/><rect fill="none" height="275.5391" style="stroke:#000000;stroke-width:1.5;" width="393.8467" x="342.8154" y="332.0313"/><text fill="#000000" font-family="sans-serif" font-size="13" font-weight="bold" lengthAdjust="spacing" textLength="19.4429" x="357.8154" y="345.0981">alt</text><text fill="#000000" font-family="sans-serif" font-size="11" font-weight="bold" lengthAdjust="spacing" textLength="208.248" x="422.2583" y="344.2417">[NULL == adi_gpio_Device.pData]</text><g class="message" data-entity-1="part2" data-entity-2="part2" id="msg7"><line style="stroke:#181818;stroke-width:1;" x1="409.1074" x2="451.1074" y1="370.2969" y2="370.2969"/><line style="stroke:#181818;stroke-width:1;" x1="451.1074" x2="451.1074" y1="370.2969" y2="383.2969"/><line style="stroke:#181818;stroke-width:1;" x1="410.1074" x2="451.1074" y1="383.2969" y2="383.2969"/><polygon fill="#181818" points="420.1074,379.2969,410.1074,383.2969,420.1074,387.2969,416.1074,383.2969" style="stroke:#181818;stroke-width:1;"/><text fill="#000000" font-family="sans-serif" font-size="13" lengthAdjust="spacing" textLength="232.9209" x="416.1074" y="365.231">return (ADI_GPIO_NOT_INITIALIZED)</text></g><line style="stroke:#000000;stroke-width:1;stroke-dasharray:2,2;" x1="342.8154" x2="736.6621" y1="392.2969" y2="392.2969"/><text fill="#000000" font-family="sans-serif" font-size="11" font-weight="bold" lengthAdjust="spacing" textLength="169.646" x="347.8154" y="402.5073">[(ArePinsValid(Port, Pins))]</text><g class="message" data-entity-1="part2" data-entity-2="part3" id="msg8"><polygon fill="#181818" points="664.0283,423.2344,674.0283,427.2344,664.0283,431.2344,668.0283,427.2344" style="stroke:#181818;stroke-width:1;"/><line style="stroke:#181818;stroke-width:1;" x1="409.1074" x2="670.0283" y1="427.2344" y2="427.2344"/><text fill="#000000" font-family="sans-serif" font-size="13" lengthAdjust="spacing" textLength="152.1406" x="416.1074" y="422.1685">ArePinsValid(Port, Pins)</text></g><path d="M352.8154,442.2344 L417.2583,442.2344 L417.2583,449.3672 L407.2583,459.3672 L352.8154,459.3672 L352.8154,442.2344" fill="#EEEEEE" style="stroke:#000000;stroke-width:1.5;"/><rect fill="none" height="158.3359" style="stroke:#000000;stroke-width:1.5;" width="369.9336" x="352.8154" y="442.2344"/><text fill="#000000" font-family="sans-serif" font-size="13" font-weight="bold" lengthAdjust="spacing" textLength="19.4429" x="367.8154" y="455.3013">alt</text><text fill="#000000" font-family="sans-serif" font-size="11" font-weight="bold" lengthAdjust="spacing" textLength="164.6079" x="432.2583" y="454.4448">[!ArePinsValid(Port, Pins)]</text><g class="message" data-entity-1="part2" data-entity-2="part2" id="msg9"><line style="stroke:#181818;stroke-width:1;" x1="409.1074" x2="451.1074" y1="480.5" y2="480.5"/><line style="stroke:#181818;stroke-width:1;" x1="451.1074" x2="451.1074" y1="480.5" y2="493.5"/><line style="stroke:#181818;stroke-width:1;" x1="410.1074" x2="451.1074" y1="493.5" y2="493.5"/><polygon fill="#181818" points="420.1074,489.5,410.1074,493.5,420.1074,497.5,416.1074,493.5" style="stroke:#181818;stroke-width:1;"/><text fill="#000000" font-family="sans-serif" font-size="13" lengthAdjust="spacing" textLength="210.8374" x="416.1074" y="475.4341">return (ADI_GPIO_INVALID_PINS)</text></g><line style="stroke:#000000;stroke-width:1;stroke-dasharray:2,2;" x1="352.8154" x2="722.749" y1="502.5" y2="502.5"/><text fill="#000000" font-family="sans-serif" font-size="11" font-weight="bold" lengthAdjust="spacing" textLength="364.9336" x="357.8154" y="512.7104">[adi_gpio -&gt; adi_gpio: pPort = adi_gpio_Device.pReg[Port]]</text><g class="message" data-entity-1="part2" data-entity-2="part2" id="msg10"><line style="stroke:#181818;stroke-width:1;" x1="409.1074" x2="451.1074" y1="537.4375" y2="537.4375"/><line style="stroke:#181818;stroke-width:1;" x1="451.1074" x2="451.1074" y1="537.4375" y2="550.4375"/><line style="stroke:#181818;stroke-width:1;" x1="410.1074" x2="451.1074" y1="550.4375" y2="550.4375"/><polygon fill="#181818" points="420.1074,546.4375,410.1074,550.4375,420.1074,554.4375,416.1074,550.4375" style="stroke:#181818;stroke-width:1;"/><ellipse cx="421.6074" cy="527.9375" fill="#000000" rx="2.5" ry="2.5"/><text fill="#000000" font-family="sans-serif" font-size="13" lengthAdjust="spacing" textLength="182.7554" x="428.1074" y="532.3716">pValue = (pPort-&gt;IN) &amp; Pins</text></g><g class="message" data-entity-1="part2" data-entity-2="part2" id="msg11"><line style="stroke:#181818;stroke-width:1;" x1="409.1074" x2="451.1074" y1="579.5703" y2="579.5703"/><line style="stroke:#181818;stroke-width:1;" x1="451.1074" x2="451.1074" y1="579.5703" y2="592.5703"/><line style="stroke:#181818;stroke-width:1;" x1="410.1074" x2="451.1074" y1="592.5703" y2="592.5703"/><polygon fill="#181818" points="420.1074,588.5703,410.1074,592.5703,420.1074,596.5703,416.1074,592.5703" style="stroke:#181818;stroke-width:1;"/><text fill="#000000" font-family="sans-serif" font-size="13" lengthAdjust="spacing" textLength="182.895" x="416.1074" y="574.5044">return (ADI_GPIO_SUCCESS)</text></g><g class="message" data-entity-1="part1" data-entity-2="part1" id="msg12"><line style="stroke:#181818;stroke-width:1;" x1="56.292" x2="98.292" y1="642.7031" y2="642.7031"/><line style="stroke:#181818;stroke-width:1;" x1="98.292" x2="98.292" y1="642.7031" y2="655.7031"/><line style="stroke:#181818;stroke-width:1;" x1="57.292" x2="98.292" y1="655.7031" y2="655.7031"/><polygon fill="#181818" points="67.292,651.7031,57.292,655.7031,67.292,659.7031,63.292,655.7031" style="stroke:#181818;stroke-width:1;"/><text fill="#000000" font-family="sans-serif" font-size="13" lengthAdjust="spacing" textLength="281.8042" x="63.292" y="637.6372">return ((((uint32_t)Data) &gt;&gt; pin_num) &amp; 1)</text></g><?plantuml-src dPDTJy8m58RlzoiEDwGpO4GJBuWiGGRO1CV29XSQqjJHQCtecjcXFzzsR6FYyAitwtPwdlSzPwUIfef7N5AXu4doX539BLdxIDUSc81bbM7eEjNHFjnUZrqo38Bn8aJ9uqlNaLn0Qm38vyAZ6sPx8_j8QiQ5kZWd2cIIAXX0bUuuCFNndFZpHKY26pm9VoHmGKIsgKFQSFO-cNoJsBlKYIvLrAAn0eJoQCB4Wx6pCYOAggrPFTi2lPff1gAbTu1CoKoHBOqBJXjG3wwkAfZ5ubS6A57FB7tZUXlHE8OfKuQoKw6HubkgsBxvXzfbe5_jI450HhLpeDc1zdTqKxztDvl1OB3dkMpB8tOgymv1iShePmyfKrag00rTJF8Vvyr3WZqSuk4Ctu_TikPXolHKl2vfpDV8ptsQTzlUyqjlzQEDwlK3VJX6hbBNh1bjIc_zcFs7qh6tr4MxnCTUKDJTd2dztTH_QVY2FJsOsEeNyYTIcywOng2SrtMmPyRLsF-F--1kD1e7mRvo9dRjBv-rFbRZOs97xbafe5TvL-ry4hzUhmy0?></g></svg>