<?plantuml 1.2026.1?><svg xmlns="http://www.w3.org/2000/svg" xmlns:xlink="http://www.w3.org/1999/xlink" contentStyleType="text/css" data-diagram-type="SEQUENCE" height="697px" preserveAspectRatio="none" style="width:1073px;height:697px;background:#FFFFFF;" version="1.1" viewBox="0 0 1073 697" width="1073px" zoomAndPan="magnify"><defs/><g><g><title>gpio_api.c</title><rect fill="#FFFFFF" height="569.8594" style="stroke:#181818;stroke-width:1;" width="10" x="103.6841" y="67.4297"/></g><g><title>pinmap.c</title><rect fill="#FFFFFF" height="540.7266" style="stroke:#181818;stroke-width:1;" width="10" x="592.6035" y="96.5625"/></g><g class="participant-lifeline" data-entity-uid="part1" data-qualified-name="gpio_api_c" id="part1-lifeline"><g><title>gpio_api.c</title><rect fill="#000000" fill-opacity="0.00000" height="625.9922" width="8" x="104.6841" y="36.2969"/><line style="stroke:#181818;stroke-width:0.5;stroke-dasharray:5,5;" x1="108.3184" x2="108.3184" y1="36.2969" y2="662.2891"/></g></g><g class="participant-lifeline" data-entity-uid="part2" data-qualified-name="pinmap_c" id="part2-lifeline"><g><title>pinmap.c</title><rect fill="#000000" fill-opacity="0.00000" height="625.9922" width="8" x="593.6035" y="36.2969"/><line style="stroke:#181818;stroke-width:0.5;stroke-dasharray:5,5;" x1="597.1533" x2="597.1533" y1="36.2969" y2="662.2891"/></g></g><g class="participant participant-head" data-entity-uid="part1" data-qualified-name="gpio_api_c" id="part1-head"><rect fill="#E2E2F0" height="30.2969" rx="2.5" ry="2.5" style="stroke:#181818;stroke-width:0.5;" width="84.7314" x="66.3184" y="5"/><text fill="#000000" font-family="sans-serif" font-size="14" lengthAdjust="spacing" textLength="70.7314" x="73.3184" y="24.9951">gpio_api.c</text></g><g class="participant participant-tail" data-entity-uid="part1" data-qualified-name="gpio_api_c" id="part1-tail"><rect fill="#E2E2F0" height="30.2969" rx="2.5" ry="2.5" style="stroke:#181818;stroke-width:0.5;" width="84.7314" x="66.3184" y="661.2891"/><text fill="#000000" font-family="sans-serif" font-size="14" lengthAdjust="spacing" textLength="70.7314" x="73.3184" y="681.2842">gpio_api.c</text></g><g class="participant participant-head" data-entity-uid="part2" data-qualified-name="pinmap_c" id="part2-head"><rect fill="#E2E2F0" height="30.2969" rx="2.5" ry="2.5" style="stroke:#181818;stroke-width:0.5;" width="78.9004" x="558.1533" y="5"/><text fill="#000000" font-family="sans-serif" font-size="14" lengthAdjust="spacing" textLength="64.9004" x="565.1533" y="24.9951">pinmap.c</text></g><g class="participant participant-tail" data-entity-uid="part2" data-qualified-name="pinmap_c" id="part2-tail"><rect fill="#E2E2F0" height="30.2969" rx="2.5" ry="2.5" style="stroke:#181818;stroke-width:0.5;" width="78.9004" x="558.1533" y="661.2891"/><text fill="#000000" font-family="sans-serif" font-size="14" lengthAdjust="spacing" textLength="64.9004" x="565.1533" y="681.2842">pinmap.c</text></g><g><title>gpio_api.c</title><rect fill="#FFFFFF" height="569.8594" style="stroke:#181818;stroke-width:1;" width="10" x="103.6841" y="67.4297"/></g><g><title>pinmap.c</title><rect fill="#FFFFFF" height="540.7266" style="stroke:#181818;stroke-width:1;" width="10" x="592.6035" y="96.5625"/></g><g class="message" data-entity-1="part1" data-entity-2="part1" id="msg1"><polygon fill="#181818" points="91.6841,63.4297,101.6841,67.4297,91.6841,71.4297,95.6841,67.4297" style="stroke:#181818;stroke-width:1;"/><line style="stroke:#181818;stroke-width:1;" x1="0" x2="97.6841" y1="67.4297" y2="67.4297"/><text fill="#000000" font-family="sans-serif" font-size="13" lengthAdjust="spacing" textLength="84.6841" x="7" y="62.3638">gpio_set(pin)</text></g><g class="message" data-entity-1="part1" data-entity-2="part2" id="msg2"><polygon fill="#181818" points="580.6035,92.5625,590.6035,96.5625,580.6035,100.5625,584.6035,96.5625" style="stroke:#181818;stroke-width:1;"/><line style="stroke:#181818;stroke-width:1;" x1="113.6841" x2="586.6035" y1="96.5625" y2="96.5625"/><text fill="#000000" font-family="sans-serif" font-size="13" lengthAdjust="spacing" textLength="459.9194" x="120.6841" y="91.4966">pin_function(pin, STM_PIN_DATA(STM_MODE_INPUT, GPIO_NOPULL, 0))</text></g><g class="message" data-entity-1="part2" data-entity-2="part2" id="msg3"><line style="stroke:#181818;stroke-width:1;" x1="602.6035" x2="644.6035" y1="125.6953" y2="125.6953"/><line style="stroke:#181818;stroke-width:1;" x1="644.6035" x2="644.6035" y1="125.6953" y2="138.6953"/><line style="stroke:#181818;stroke-width:1;" x1="603.6035" x2="644.6035" y1="138.6953" y2="138.6953"/><polygon fill="#181818" points="613.6035,134.6953,603.6035,138.6953,613.6035,142.6953,609.6035,138.6953" style="stroke:#181818;stroke-width:1;"/><text fill="#000000" font-family="sans-serif" font-size="13" lengthAdjust="spacing" textLength="456.7012" x="609.6035" y="120.6294">is_dualpad_switch_gpio_configurable(pin, function, pLL_AnalogSwitch)</text></g><g class="message" data-entity-1="part2" data-entity-2="part2" id="msg4"><line style="stroke:#181818;stroke-width:1;" x1="602.6035" x2="644.6035" y1="167.8281" y2="167.8281"/><line style="stroke:#181818;stroke-width:1;" x1="644.6035" x2="644.6035" y1="167.8281" y2="180.8281"/><line style="stroke:#181818;stroke-width:1;" x1="603.6035" x2="644.6035" y1="180.8281" y2="180.8281"/><polygon fill="#181818" points="613.6035,176.8281,603.6035,180.8281,613.6035,184.8281,609.6035,180.8281" style="stroke:#181818;stroke-width:1;"/><text fill="#000000" font-family="sans-serif" font-size="13" lengthAdjust="spacing" textLength="377.165" x="609.6035" y="162.7622">configure_dualpad_switch(pin, function, LL_AnalogSwitch)</text></g><g class="message" data-entity-1="part2" data-entity-2="part2" id="msg5"><line style="stroke:#181818;stroke-width:1;" x1="602.6035" x2="644.6035" y1="209.9609" y2="209.9609"/><line style="stroke:#181818;stroke-width:1;" x1="644.6035" x2="644.6035" y1="209.9609" y2="222.9609"/><line style="stroke:#181818;stroke-width:1;" x1="603.6035" x2="644.6035" y1="222.9609" y2="222.9609"/><polygon fill="#181818" points="613.6035,218.9609,603.6035,222.9609,613.6035,226.9609,609.6035,222.9609" style="stroke:#181818;stroke-width:1;"/><text fill="#000000" font-family="sans-serif" font-size="13" lengthAdjust="spacing" textLength="164.4932" x="609.6035" y="204.895">Set_GPIO_Clock(port_idx)</text></g><g class="message" data-entity-1="part2" data-entity-2="part2" id="msg6"><line style="stroke:#181818;stroke-width:1;" x1="602.6035" x2="644.6035" y1="252.0938" y2="252.0938"/><line style="stroke:#181818;stroke-width:1;" x1="644.6035" x2="644.6035" y1="252.0938" y2="265.0938"/><line style="stroke:#181818;stroke-width:1;" x1="603.6035" x2="644.6035" y1="265.0938" y2="265.0938"/><polygon fill="#181818" points="613.6035,261.0938,603.6035,265.0938,613.6035,269.0938,609.6035,265.0938" style="stroke:#181818;stroke-width:1;"/><text fill="#000000" font-family="sans-serif" font-size="13" lengthAdjust="spacing" textLength="330.8145" x="609.6035" y="247.0278">LL_HSEM_1StepLock(HSEM, CFG_HW_GPIO_SEMID)</text></g><g class="message" data-entity-1="part2" data-entity-2="part2" id="msg7"><line style="stroke:#181818;stroke-width:1;" x1="602.6035" x2="644.6035" y1="294.2266" y2="294.2266"/><line style="stroke:#181818;stroke-width:1;" x1="644.6035" x2="644.6035" y1="294.2266" y2="307.2266"/><line style="stroke:#181818;stroke-width:1;" x1="603.6035" x2="644.6035" y1="307.2266" y2="307.2266"/><polygon fill="#181818" points="613.6035,303.2266,603.6035,307.2266,613.6035,311.2266,609.6035,307.2266" style="stroke:#181818;stroke-width:1;"/><text fill="#000000" font-family="sans-serif" font-size="13" lengthAdjust="spacing" textLength="268.0425" x="609.6035" y="289.1606">LL_GPIO_SetPinSpeed(GPIOx, Pin, Speed)</text></g><g class="message" data-entity-1="part2" data-entity-2="part2" id="msg8"><line style="stroke:#181818;stroke-width:1;" x1="602.6035" x2="644.6035" y1="336.3594" y2="336.3594"/><line style="stroke:#181818;stroke-width:1;" x1="644.6035" x2="644.6035" y1="336.3594" y2="349.3594"/><line style="stroke:#181818;stroke-width:1;" x1="603.6035" x2="644.6035" y1="349.3594" y2="349.3594"/><polygon fill="#181818" points="613.6035,345.3594,603.6035,349.3594,613.6035,353.3594,609.6035,349.3594" style="stroke:#181818;stroke-width:1;"/><text fill="#000000" font-family="sans-serif" font-size="13" lengthAdjust="spacing" textLength="257.3784" x="609.6035" y="331.2935">LL_GPIO_SetPinMode(GPIOx, Pin, Mode)</text></g><g class="message" data-entity-1="part2" data-entity-2="part2" id="msg9"><line style="stroke:#181818;stroke-width:1;" x1="602.6035" x2="644.6035" y1="378.4922" y2="378.4922"/><line style="stroke:#181818;stroke-width:1;" x1="644.6035" x2="644.6035" y1="378.4922" y2="391.4922"/><line style="stroke:#181818;stroke-width:1;" x1="603.6035" x2="644.6035" y1="391.4922" y2="391.4922"/><polygon fill="#181818" points="613.6035,387.4922,603.6035,391.4922,613.6035,395.4922,609.6035,391.4922" style="stroke:#181818;stroke-width:1;"/><text fill="#000000" font-family="sans-serif" font-size="13" lengthAdjust="spacing" textLength="326.8853" x="609.6035" y="373.4263">LL_GPIO_EnablePinAnalogControl(GPIOx, PinMask)</text></g><g class="message" data-entity-1="part2" data-entity-2="part2" id="msg10"><line style="stroke:#181818;stroke-width:1;" x1="602.6035" x2="644.6035" y1="420.625" y2="420.625"/><line style="stroke:#181818;stroke-width:1;" x1="644.6035" x2="644.6035" y1="420.625" y2="433.625"/><line style="stroke:#181818;stroke-width:1;" x1="603.6035" x2="644.6035" y1="433.625" y2="433.625"/><polygon fill="#181818" points="613.6035,429.625,603.6035,433.625,613.6035,437.625,609.6035,433.625" style="stroke:#181818;stroke-width:1;"/><text fill="#000000" font-family="sans-serif" font-size="13" lengthAdjust="spacing" textLength="330.8271" x="609.6035" y="415.5591">LL_GPIO_DisablePinAnalogControl(GPIOx, PinMask)</text></g><g class="message" data-entity-1="part2" data-entity-2="part2" id="msg11"><line style="stroke:#181818;stroke-width:1;" x1="602.6035" x2="644.6035" y1="462.7578" y2="462.7578"/><line style="stroke:#181818;stroke-width:1;" x1="644.6035" x2="644.6035" y1="462.7578" y2="475.7578"/><line style="stroke:#181818;stroke-width:1;" x1="603.6035" x2="644.6035" y1="475.7578" y2="475.7578"/><polygon fill="#181818" points="613.6035,471.7578,603.6035,475.7578,613.6035,479.7578,609.6035,475.7578" style="stroke:#181818;stroke-width:1;"/><text fill="#000000" font-family="sans-serif" font-size="13" lengthAdjust="spacing" textLength="374.1055" x="609.6035" y="457.6919">LL_GPIO_SetPinOutputType(GPIOx, PinMask, OutputType)</text></g><g class="message" data-entity-1="part2" data-entity-2="part2" id="msg12"><line style="stroke:#181818;stroke-width:1;" x1="602.6035" x2="644.6035" y1="504.8906" y2="504.8906"/><line style="stroke:#181818;stroke-width:1;" x1="644.6035" x2="644.6035" y1="504.8906" y2="517.8906"/><line style="stroke:#181818;stroke-width:1;" x1="603.6035" x2="644.6035" y1="517.8906" y2="517.8906"/><polygon fill="#181818" points="613.6035,513.8906,603.6035,517.8906,613.6035,521.8906,609.6035,517.8906" style="stroke:#181818;stroke-width:1;"/><text fill="#000000" font-family="sans-serif" font-size="13" lengthAdjust="spacing" textLength="281.2139" x="609.6035" y="499.8247">stm_pin_PullConfig(gpio, ll_pin, pull_config)</text></g><g class="message" data-entity-1="part2" data-entity-2="part2" id="msg13"><line style="stroke:#181818;stroke-width:1;" x1="602.6035" x2="644.6035" y1="547.0234" y2="547.0234"/><line style="stroke:#181818;stroke-width:1;" x1="644.6035" x2="644.6035" y1="547.0234" y2="560.0234"/><line style="stroke:#181818;stroke-width:1;" x1="603.6035" x2="644.6035" y1="560.0234" y2="560.0234"/><polygon fill="#181818" points="613.6035,556.0234,603.6035,560.0234,613.6035,564.0234,609.6035,560.0234" style="stroke:#181818;stroke-width:1;"/><text fill="#000000" font-family="sans-serif" font-size="13" lengthAdjust="spacing" textLength="377.165" x="609.6035" y="541.9575">configure_dualpad_switch(pin, function, LL_AnalogSwitch)</text></g><g class="message" data-entity-1="part2" data-entity-2="part2" id="msg14"><line style="stroke:#181818;stroke-width:1;" x1="602.6035" x2="644.6035" y1="589.1563" y2="589.1563"/><line style="stroke:#181818;stroke-width:1;" x1="644.6035" x2="644.6035" y1="589.1563" y2="602.1563"/><line style="stroke:#181818;stroke-width:1;" x1="603.6035" x2="644.6035" y1="602.1563" y2="602.1563"/><polygon fill="#181818" points="613.6035,598.1563,603.6035,602.1563,613.6035,606.1563,609.6035,602.1563" style="stroke:#181818;stroke-width:1;"/><text fill="#000000" font-family="sans-serif" font-size="13" lengthAdjust="spacing" textLength="202.8521" x="609.6035" y="584.0903">stm_pin_DisconnectDebug(pin)</text></g><g class="message" data-entity-1="part2" data-entity-2="part2" id="msg15"><line style="stroke:#181818;stroke-width:1;" x1="602.6035" x2="644.6035" y1="636.2891" y2="636.2891"/><line style="stroke:#181818;stroke-width:1;" x1="644.6035" x2="644.6035" y1="636.2891" y2="649.2891"/><line style="stroke:#181818;stroke-width:1;" x1="597.6035" x2="644.6035" y1="649.2891" y2="649.2891"/><polygon fill="#181818" points="607.6035,645.2891,597.6035,649.2891,607.6035,653.2891,603.6035,649.2891" style="stroke:#181818;stroke-width:1;"/><text fill="#000000" font-family="sans-serif" font-size="13" lengthAdjust="spacing" textLength="342.9258" x="609.6035" y="631.2231">LL_HSEM_ReleaseLock(HSEMx, Semaphore, process)</text></g><?plantuml-src lPJ1JuCm5CRl-oiQJon1erSF9WlCRGbiH5WyU7YfvMrhh6r3Yyx_tXPaOpDp7emttkFxVdqjNz6qifnnJQKb5slD5L3DhzW5eOPq9R21xiiqbwzKVudQmaa6JvTtFGkvRGk3Dd2QuM10cULlr6AVszCxTyToNlS8grewYvBU7vAyI26RpI4U5QF05-aY7iDidYsBa4oosGBcYsoP926v7lPNsmsuen-kn0sKDHMQbc3UkMKRQ8PYIgxukgxeiy1sW6wSaEWaWP6aGgtpnZ4ynUuWUBJ4CV2tl1mjD5kDX68lWLQL1LvkJ-eTTvgFKxZ9BUh4MtmPakX-0jF75kKQi_WdGgj2ct6PQyGoy8rjIBBcg_ZEBzsfAl70x1jdlMFfFu7JjoSKAMah9NgSb9gNivIOcx_0j1jPr5RNjlZGUEGFoVxLIPQnh-3ZdTL2H4r00f-ua0W1JIwqU_6LltzBLZUKEoU7biXiZC_rkhswPzBrW0AfmLs-t7daw4GRLQ7RJQKO6kEkP8dVBsM_kVyPV080?></g></svg>