<?plantuml 1.2026.1?><svg xmlns="http://www.w3.org/2000/svg" xmlns:xlink="http://www.w3.org/1999/xlink" contentStyleType="text/css" data-diagram-type="SEQUENCE" height="726px" preserveAspectRatio="none" style="width:1270px;height:726px;background:#FFFFFF;" version="1.1" viewBox="0 0 1270 726" width="1270px" zoomAndPan="magnify"><defs/><g><g><title>gpio_api. GPIO_API</title><rect fill="#FFFFFF" height="605.9922" style="stroke:#181818;stroke-width:1;" width="10" x="300.9849" y="67.4297"/></g><g><title>pinmap. PinMap</title><rect fill="#FFFFFF" height="540.7266" style="stroke:#181818;stroke-width:1;" width="10" x="789.9043" y="96.5625"/></g><g class="participant-lifeline" data-entity-uid="part1" data-qualified-name="Main" id="part1-lifeline"><g><title>main</title><rect fill="#000000" fill-opacity="0.00000" height="655.125" width="8" x="25.4897" y="36.2969"/><line style="stroke:#181818;stroke-width:0.5;stroke-dasharray:5,5;" x1="29" x2="29" y1="36.2969" y2="691.4219"/></g></g><g class="participant-lifeline" data-entity-uid="part2" data-qualified-name="GPIO_API" id="part2-lifeline"><g><title>gpio_api. GPIO_API</title><rect fill="#000000" fill-opacity="0.00000" height="655.125" width="8" x="301.9849" y="36.2969"/><line style="stroke:#181818;stroke-width:0.5;stroke-dasharray:5,5;" x1="305.3154" x2="305.3154" y1="36.2969" y2="691.4219"/></g></g><g class="participant-lifeline" data-entity-uid="part3" data-qualified-name="PinMap" id="part3-lifeline"><g><title>pinmap. PinMap</title><rect fill="#000000" fill-opacity="0.00000" height="655.125" width="8" x="790.9043" y="36.2969"/><line style="stroke:#181818;stroke-width:0.5;stroke-dasharray:5,5;" x1="794.5693" x2="794.5693" y1="36.2969" y2="691.4219"/></g></g><g class="participant participant-head" data-entity-uid="part1" data-qualified-name="Main" id="part1-head"><rect fill="#E2E2F0" height="30.2969" rx="2.5" ry="2.5" style="stroke:#181818;stroke-width:0.5;" width="48.9795" x="5" y="5"/><text fill="#000000" font-family="sans-serif" font-size="14" lengthAdjust="spacing" textLength="34.9795" x="12" y="24.9951">main</text></g><g class="participant participant-tail" data-entity-uid="part1" data-qualified-name="Main" id="part1-tail"><rect fill="#E2E2F0" height="30.2969" rx="2.5" ry="2.5" style="stroke:#181818;stroke-width:0.5;" width="48.9795" x="5" y="690.4219"/><text fill="#000000" font-family="sans-serif" font-size="14" lengthAdjust="spacing" textLength="34.9795" x="12" y="710.417">main</text></g><g class="participant participant-head" data-entity-uid="part2" data-qualified-name="GPIO_API" id="part2-head"><rect fill="#E2E2F0" height="30.2969" rx="2.5" ry="2.5" style="stroke:#181818;stroke-width:0.5;" width="145.3389" x="233.3154" y="5"/><text fill="#000000" font-family="sans-serif" font-size="14" lengthAdjust="spacing" textLength="131.3389" x="240.3154" y="24.9951">gpio_api: GPIO_API</text></g><g class="participant participant-tail" data-entity-uid="part2" data-qualified-name="GPIO_API" id="part2-tail"><rect fill="#E2E2F0" height="30.2969" rx="2.5" ry="2.5" style="stroke:#181818;stroke-width:0.5;" width="145.3389" x="233.3154" y="690.4219"/><text fill="#000000" font-family="sans-serif" font-size="14" lengthAdjust="spacing" textLength="131.3389" x="240.3154" y="710.417">gpio_api: GPIO_API</text></g><g class="participant participant-head" data-entity-uid="part3" data-qualified-name="PinMap" id="part3-head"><rect fill="#E2E2F0" height="30.2969" rx="2.5" ry="2.5" style="stroke:#181818;stroke-width:0.5;" width="126.6699" x="731.5693" y="5"/><text fill="#000000" font-family="sans-serif" font-size="14" lengthAdjust="spacing" textLength="112.6699" x="738.5693" y="24.9951">pinmap: PinMap</text></g><g class="participant participant-tail" data-entity-uid="part3" data-qualified-name="PinMap" id="part3-tail"><rect fill="#E2E2F0" height="30.2969" rx="2.5" ry="2.5" style="stroke:#181818;stroke-width:0.5;" width="126.6699" x="731.5693" y="690.4219"/><text fill="#000000" font-family="sans-serif" font-size="14" lengthAdjust="spacing" textLength="112.6699" x="738.5693" y="710.417">pinmap: PinMap</text></g><g><title>gpio_api. GPIO_API</title><rect fill="#FFFFFF" height="605.9922" style="stroke:#181818;stroke-width:1;" width="10" x="300.9849" y="67.4297"/></g><g><title>pinmap. PinMap</title><rect fill="#FFFFFF" height="540.7266" style="stroke:#181818;stroke-width:1;" width="10" x="789.9043" y="96.5625"/></g><g class="message" data-entity-1="part1" data-entity-2="part2" id="msg1"><polygon fill="#181818" points="288.9849,63.4297,298.9849,67.4297,288.9849,71.4297,292.9849,67.4297" style="stroke:#181818;stroke-width:1;"/><line style="stroke:#181818;stroke-width:1;" x1="29.4897" x2="294.9849" y1="67.4297" y2="67.4297"/><text fill="#000000" font-family="sans-serif" font-size="13" lengthAdjust="spacing" textLength="84.6841" x="36.4897" y="62.3638">gpio_set(pin)</text></g><g class="message" data-entity-1="part2" data-entity-2="part3" id="msg2"><polygon fill="#181818" points="777.9043,92.5625,787.9043,96.5625,777.9043,100.5625,781.9043,96.5625" style="stroke:#181818;stroke-width:1;"/><line style="stroke:#181818;stroke-width:1;" x1="310.9849" x2="783.9043" y1="96.5625" y2="96.5625"/><text fill="#000000" font-family="sans-serif" font-size="13" lengthAdjust="spacing" textLength="459.9194" x="317.9849" y="91.4966">pin_function(pin, STM_PIN_DATA(STM_MODE_INPUT, GPIO_NOPULL, 0))</text></g><g class="message" data-entity-1="part3" data-entity-2="part3" id="msg3"><line style="stroke:#181818;stroke-width:1;" x1="799.9043" x2="841.9043" y1="125.6953" y2="125.6953"/><line style="stroke:#181818;stroke-width:1;" x1="841.9043" x2="841.9043" y1="125.6953" y2="138.6953"/><line style="stroke:#181818;stroke-width:1;" x1="800.9043" x2="841.9043" y1="138.6953" y2="138.6953"/><polygon fill="#181818" points="810.9043,134.6953,800.9043,138.6953,810.9043,142.6953,806.9043,138.6953" style="stroke:#181818;stroke-width:1;"/><text fill="#000000" font-family="sans-serif" font-size="13" lengthAdjust="spacing" textLength="456.7012" x="806.9043" y="120.6294">is_dualpad_switch_gpio_configurable(pin, function, pLL_AnalogSwitch)</text></g><g class="message" data-entity-1="part3" data-entity-2="part3" id="msg4"><line style="stroke:#181818;stroke-width:1;" x1="799.9043" x2="841.9043" y1="167.8281" y2="167.8281"/><line style="stroke:#181818;stroke-width:1;" x1="841.9043" x2="841.9043" y1="167.8281" y2="180.8281"/><line style="stroke:#181818;stroke-width:1;" x1="800.9043" x2="841.9043" y1="180.8281" y2="180.8281"/><polygon fill="#181818" points="810.9043,176.8281,800.9043,180.8281,810.9043,184.8281,806.9043,180.8281" style="stroke:#181818;stroke-width:1;"/><text fill="#000000" font-family="sans-serif" font-size="13" lengthAdjust="spacing" textLength="377.165" x="806.9043" y="162.7622">configure_dualpad_switch(pin, function, LL_AnalogSwitch)</text></g><g class="message" data-entity-1="part3" data-entity-2="part3" id="msg5"><line style="stroke:#181818;stroke-width:1;" x1="799.9043" x2="841.9043" y1="209.9609" y2="209.9609"/><line style="stroke:#181818;stroke-width:1;" x1="841.9043" x2="841.9043" y1="209.9609" y2="222.9609"/><line style="stroke:#181818;stroke-width:1;" x1="800.9043" x2="841.9043" y1="222.9609" y2="222.9609"/><polygon fill="#181818" points="810.9043,218.9609,800.9043,222.9609,810.9043,226.9609,806.9043,222.9609" style="stroke:#181818;stroke-width:1;"/><text fill="#000000" font-family="sans-serif" font-size="13" lengthAdjust="spacing" textLength="164.4932" x="806.9043" y="204.895">Set_GPIO_Clock(port_idx)</text></g><g class="message" data-entity-1="part3" data-entity-2="part3" id="msg6"><line style="stroke:#181818;stroke-width:1;" x1="799.9043" x2="841.9043" y1="252.0938" y2="252.0938"/><line style="stroke:#181818;stroke-width:1;" x1="841.9043" x2="841.9043" y1="252.0938" y2="265.0938"/><line style="stroke:#181818;stroke-width:1;" x1="800.9043" x2="841.9043" y1="265.0938" y2="265.0938"/><polygon fill="#181818" points="810.9043,261.0938,800.9043,265.0938,810.9043,269.0938,806.9043,265.0938" style="stroke:#181818;stroke-width:1;"/><text fill="#000000" font-family="sans-serif" font-size="13" lengthAdjust="spacing" textLength="330.8145" x="806.9043" y="247.0278">LL_HSEM_1StepLock(HSEM, CFG_HW_GPIO_SEMID)</text></g><g class="message" data-entity-1="part3" data-entity-2="part3" id="msg7"><line style="stroke:#181818;stroke-width:1;" x1="799.9043" x2="841.9043" y1="294.2266" y2="294.2266"/><line style="stroke:#181818;stroke-width:1;" x1="841.9043" x2="841.9043" y1="294.2266" y2="307.2266"/><line style="stroke:#181818;stroke-width:1;" x1="800.9043" x2="841.9043" y1="307.2266" y2="307.2266"/><polygon fill="#181818" points="810.9043,303.2266,800.9043,307.2266,810.9043,311.2266,806.9043,307.2266" style="stroke:#181818;stroke-width:1;"/><text fill="#000000" font-family="sans-serif" font-size="13" lengthAdjust="spacing" textLength="268.0425" x="806.9043" y="289.1606">LL_GPIO_SetPinSpeed(GPIOx, Pin, Speed)</text></g><g class="message" data-entity-1="part3" data-entity-2="part3" id="msg8"><line style="stroke:#181818;stroke-width:1;" x1="799.9043" x2="841.9043" y1="336.3594" y2="336.3594"/><line style="stroke:#181818;stroke-width:1;" x1="841.9043" x2="841.9043" y1="336.3594" y2="349.3594"/><line style="stroke:#181818;stroke-width:1;" x1="800.9043" x2="841.9043" y1="349.3594" y2="349.3594"/><polygon fill="#181818" points="810.9043,345.3594,800.9043,349.3594,810.9043,353.3594,806.9043,349.3594" style="stroke:#181818;stroke-width:1;"/><text fill="#000000" font-family="sans-serif" font-size="13" lengthAdjust="spacing" textLength="257.3784" x="806.9043" y="331.2935">LL_GPIO_SetPinMode(GPIOx, Pin, Mode)</text></g><g class="message" data-entity-1="part3" data-entity-2="part3" id="msg9"><line style="stroke:#181818;stroke-width:1;" x1="799.9043" x2="841.9043" y1="378.4922" y2="378.4922"/><line style="stroke:#181818;stroke-width:1;" x1="841.9043" x2="841.9043" y1="378.4922" y2="391.4922"/><line style="stroke:#181818;stroke-width:1;" x1="800.9043" x2="841.9043" y1="391.4922" y2="391.4922"/><polygon fill="#181818" points="810.9043,387.4922,800.9043,391.4922,810.9043,395.4922,806.9043,391.4922" style="stroke:#181818;stroke-width:1;"/><text fill="#000000" font-family="sans-serif" font-size="13" lengthAdjust="spacing" textLength="326.8853" x="806.9043" y="373.4263">LL_GPIO_EnablePinAnalogControl(GPIOx, PinMask)</text></g><g class="message" data-entity-1="part3" data-entity-2="part3" id="msg10"><line style="stroke:#181818;stroke-width:1;" x1="799.9043" x2="841.9043" y1="420.625" y2="420.625"/><line style="stroke:#181818;stroke-width:1;" x1="841.9043" x2="841.9043" y1="420.625" y2="433.625"/><line style="stroke:#181818;stroke-width:1;" x1="800.9043" x2="841.9043" y1="433.625" y2="433.625"/><polygon fill="#181818" points="810.9043,429.625,800.9043,433.625,810.9043,437.625,806.9043,433.625" style="stroke:#181818;stroke-width:1;"/><text fill="#000000" font-family="sans-serif" font-size="13" lengthAdjust="spacing" textLength="330.8271" x="806.9043" y="415.5591">LL_GPIO_DisablePinAnalogControl(GPIOx, PinMask)</text></g><g class="message" data-entity-1="part3" data-entity-2="part3" id="msg11"><line style="stroke:#181818;stroke-width:1;" x1="799.9043" x2="841.9043" y1="462.7578" y2="462.7578"/><line style="stroke:#181818;stroke-width:1;" x1="841.9043" x2="841.9043" y1="462.7578" y2="475.7578"/><line style="stroke:#181818;stroke-width:1;" x1="800.9043" x2="841.9043" y1="475.7578" y2="475.7578"/><polygon fill="#181818" points="810.9043,471.7578,800.9043,475.7578,810.9043,479.7578,806.9043,475.7578" style="stroke:#181818;stroke-width:1;"/><text fill="#000000" font-family="sans-serif" font-size="13" lengthAdjust="spacing" textLength="374.1055" x="806.9043" y="457.6919">LL_GPIO_SetPinOutputType(GPIOx, PinMask, OutputType)</text></g><g class="message" data-entity-1="part3" data-entity-2="part3" id="msg12"><line style="stroke:#181818;stroke-width:1;" x1="799.9043" x2="841.9043" y1="504.8906" y2="504.8906"/><line style="stroke:#181818;stroke-width:1;" x1="841.9043" x2="841.9043" y1="504.8906" y2="517.8906"/><line style="stroke:#181818;stroke-width:1;" x1="800.9043" x2="841.9043" y1="517.8906" y2="517.8906"/><polygon fill="#181818" points="810.9043,513.8906,800.9043,517.8906,810.9043,521.8906,806.9043,517.8906" style="stroke:#181818;stroke-width:1;"/><text fill="#000000" font-family="sans-serif" font-size="13" lengthAdjust="spacing" textLength="281.2139" x="806.9043" y="499.8247">stm_pin_PullConfig(gpio, ll_pin, pull_config)</text></g><g class="message" data-entity-1="part3" data-entity-2="part3" id="msg13"><line style="stroke:#181818;stroke-width:1;" x1="799.9043" x2="841.9043" y1="547.0234" y2="547.0234"/><line style="stroke:#181818;stroke-width:1;" x1="841.9043" x2="841.9043" y1="547.0234" y2="560.0234"/><line style="stroke:#181818;stroke-width:1;" x1="800.9043" x2="841.9043" y1="560.0234" y2="560.0234"/><polygon fill="#181818" points="810.9043,556.0234,800.9043,560.0234,810.9043,564.0234,806.9043,560.0234" style="stroke:#181818;stroke-width:1;"/><text fill="#000000" font-family="sans-serif" font-size="13" lengthAdjust="spacing" textLength="377.165" x="806.9043" y="541.9575">configure_dualpad_switch(pin, function, LL_AnalogSwitch)</text></g><g class="message" data-entity-1="part3" data-entity-2="part3" id="msg14"><line style="stroke:#181818;stroke-width:1;" x1="799.9043" x2="841.9043" y1="589.1563" y2="589.1563"/><line style="stroke:#181818;stroke-width:1;" x1="841.9043" x2="841.9043" y1="589.1563" y2="602.1563"/><line style="stroke:#181818;stroke-width:1;" x1="800.9043" x2="841.9043" y1="602.1563" y2="602.1563"/><polygon fill="#181818" points="810.9043,598.1563,800.9043,602.1563,810.9043,606.1563,806.9043,602.1563" style="stroke:#181818;stroke-width:1;"/><text fill="#000000" font-family="sans-serif" font-size="13" lengthAdjust="spacing" textLength="202.8521" x="806.9043" y="584.0903">stm_pin_DisconnectDebug(pin)</text></g><g class="message" data-entity-1="part3" data-entity-2="part3" id="msg15"><line style="stroke:#181818;stroke-width:1;" x1="799.9043" x2="841.9043" y1="636.2891" y2="636.2891"/><line style="stroke:#181818;stroke-width:1;" x1="841.9043" x2="841.9043" y1="636.2891" y2="649.2891"/><line style="stroke:#181818;stroke-width:1;" x1="794.9043" x2="841.9043" y1="649.2891" y2="649.2891"/><polygon fill="#181818" points="804.9043,645.2891,794.9043,649.2891,804.9043,653.2891,800.9043,649.2891" style="stroke:#181818;stroke-width:1;"/><text fill="#000000" font-family="sans-serif" font-size="13" lengthAdjust="spacing" textLength="342.9258" x="806.9043" y="631.2231">LL_HSEM_ReleaseLock(HSEMx, Semaphore, process)</text></g><g class="message" data-entity-1="part2" data-entity-2="part1" id="msg16"><polygon fill="#181818" points="40.4897,669.4219,30.4897,673.4219,40.4897,677.4219,36.4897,673.4219" style="stroke:#181818;stroke-width:1;"/><line style="stroke:#181818;stroke-width:1;stroke-dasharray:2,2;" x1="34.4897" x2="304.9849" y1="673.4219" y2="673.4219"/><text fill="#000000" font-family="sans-serif" font-size="13" lengthAdjust="spacing" textLength="247.4951" x="46.4897" y="668.356">(uint32_t)(1 &lt;&lt; ((uint32_t)pin &amp; 0xF))</text></g><?plantuml-src jPJ1JkCm48RlUOeH1vH8GOBTMuLMgfe2aP8ssXHnj4mo50lNjc9djxmzuuIqeNGhf1KtU_p_dyUJcHZUE549mvM3imqNwWouXPmMWHaVhOtGZ1inWTiYNR9faNR2OVDHR8JQS3E1GgYScqxOBuF0a-7Yryu84-ZG5br8jYZWbHD_kCCzEjXfoTTpo4LYzjGgKclbdJ6KgvmLwO8bqzKqz9jycSnPkYZkLt5FMooB-ooBuJ8QtJDazauUto4igrik3Q-P_IjSzSowN2kjdiIwRVYZnFxg8P4OJ9QngU9IhylE4HtZ3W0ym1_2li8gqR7kSJEfgvVGwCOnKM-FQebtLyvpTbKwD9cN-sqCivjRTlVGOoYG9lzozmfq52iDOXtwm3Rs6gg_Ztp1cUiQFnXzuAHlhdofATnNOwQLQxGSCN9kNquI4c7_5z4dlsoTQTtgrU21DuRzqL6ETHlccxPefPnr3H3wRef1IjPzTqC7xxtrxLqp94Dr8Qp2oYNusAxx4JpHERzH8hUuwnrwVuaqwy-wGNf1eokqDWg26Z_DrtwA2Tpz1YOGjaAvdp-OYy8hkBw6S1-WJE0SBhStDAiZsa1v0m00?></g></svg>