<?plantuml 1.2026.1?><svg xmlns="http://www.w3.org/2000/svg" xmlns:xlink="http://www.w3.org/1999/xlink" contentStyleType="text/css" data-diagram-type="SEQUENCE" height="989px" preserveAspectRatio="none" style="width:707px;height:989px;background:#FFFFFF;" version="1.1" viewBox="0 0 707 989" width="707px" zoomAndPan="magnify"><defs/><g><g><title>gpio_api</title><rect fill="#FFFFFF" height="853.875" style="stroke:#181818;stroke-width:1;" width="10" x="51.292" y="75.4297"/></g><g><title>adi_gpio</title><rect fill="#FFFFFF" height="536.0078" style="stroke:#181818;stroke-width:1;" width="10" x="398.1108" y="359.1641"/></g><g><title>adi_gpio</title><rect fill="#FFFFFF" height="269.6016" style="stroke:#181818;stroke-width:1;" width="10" x="403.1108" y="477.3672"/></g><rect fill="none" height="631.2109" style="stroke:#000000;stroke-width:1.5;" width="690.1587" x="10" y="263.9609"/><rect fill="none" height="514.0078" style="stroke:#000000;stroke-width:1.5;" width="343.3398" x="346.8188" y="374.1641"/><rect fill="none" height="200.4688" style="stroke:#000000;stroke-width:1.5;" width="323.3398" x="356.8188" y="539.5"/><g class="participant-lifeline" data-entity-uid="part1" data-qualified-name="gpio_api" id="part1-lifeline"><g><title>gpio_api</title><rect fill="#000000" fill-opacity="0.00000" height="918.0078" width="8" x="52.292" y="36.2969"/><line style="stroke:#181818;stroke-width:0.5;stroke-dasharray:5,5;" x1="56" x2="56" y1="36.2969" y2="954.3047"/></g></g><g class="participant-lifeline" data-entity-uid="part2" data-qualified-name="adi_gpio" id="part2-lifeline"><g><title>adi_gpio</title><rect fill="#000000" fill-opacity="0.00000" height="918.0078" width="8" x="399.1108" y="36.2969"/><line style="stroke:#181818;stroke-width:0.5;stroke-dasharray:5,5;" x1="402.8188" x2="402.8188" y1="36.2969" y2="954.3047"/></g></g><g class="participant participant-head" data-entity-uid="part1" data-qualified-name="gpio_api" id="part1-head"><rect fill="#E2E2F0" height="30.2969" rx="2.5" ry="2.5" style="stroke:#181818;stroke-width:0.5;" width="72.584" x="20" y="5"/><text fill="#000000" font-family="sans-serif" font-size="14" lengthAdjust="spacing" textLength="58.584" x="27" y="24.9951">gpio_api</text></g><g class="participant participant-tail" data-entity-uid="part1" data-qualified-name="gpio_api" id="part1-tail"><rect fill="#E2E2F0" height="30.2969" rx="2.5" ry="2.5" style="stroke:#181818;stroke-width:0.5;" width="72.584" x="20" y="953.3047"/><text fill="#000000" font-family="sans-serif" font-size="14" lengthAdjust="spacing" textLength="58.584" x="27" y="973.2998">gpio_api</text></g><g class="participant participant-head" data-entity-uid="part2" data-qualified-name="adi_gpio" id="part2-head"><rect fill="#E2E2F0" height="30.2969" rx="2.5" ry="2.5" style="stroke:#181818;stroke-width:0.5;" width="72.584" x="366.8188" y="5"/><text fill="#000000" font-family="sans-serif" font-size="14" lengthAdjust="spacing" textLength="58.584" x="373.8188" y="24.9951">adi_gpio</text></g><g class="participant participant-tail" data-entity-uid="part2" data-qualified-name="adi_gpio" id="part2-tail"><rect fill="#E2E2F0" height="30.2969" rx="2.5" ry="2.5" style="stroke:#181818;stroke-width:0.5;" width="72.584" x="366.8188" y="953.3047"/><text fill="#000000" font-family="sans-serif" font-size="14" lengthAdjust="spacing" textLength="58.584" x="373.8188" y="973.2998">adi_gpio</text></g><g><title>gpio_api</title><rect fill="#FFFFFF" height="853.875" style="stroke:#181818;stroke-width:1;" width="10" x="51.292" y="75.4297"/></g><g><title>adi_gpio</title><rect fill="#FFFFFF" height="536.0078" style="stroke:#181818;stroke-width:1;" width="10" x="398.1108" y="359.1641"/></g><g><title>adi_gpio</title><rect fill="#FFFFFF" height="269.6016" style="stroke:#181818;stroke-width:1;" width="10" x="403.1108" y="477.3672"/></g><g class="message" data-entity-1="part1" data-entity-2="part1" id="msg1"><line style="stroke:#181818;stroke-width:1;" x1="56.292" x2="103.292" y1="62.4297" y2="62.4297"/><line style="stroke:#181818;stroke-width:1;" x1="103.292" x2="103.292" y1="62.4297" y2="75.4297"/><line style="stroke:#181818;stroke-width:1;" x1="62.292" x2="103.292" y1="75.4297" y2="75.4297"/><polygon fill="#181818" points="72.292,71.4297,62.292,75.4297,72.292,79.4297,68.292,75.4297" style="stroke:#181818;stroke-width:1;"/><text fill="#000000" font-family="sans-serif" font-size="13" lengthAdjust="spacing" textLength="94.0913" x="68.292" y="57.3638">gpio_read(obj)</text></g><g class="message" data-entity-1="part1" data-entity-2="part1" id="msg2"><line style="stroke:#181818;stroke-width:1;" x1="61.292" x2="103.292" y1="109.5625" y2="109.5625"/><line style="stroke:#181818;stroke-width:1;" x1="103.292" x2="103.292" y1="109.5625" y2="122.5625"/><line style="stroke:#181818;stroke-width:1;" x1="62.292" x2="103.292" y1="122.5625" y2="122.5625"/><polygon fill="#181818" points="72.292,118.5625,62.292,122.5625,72.292,126.5625,68.292,122.5625" style="stroke:#181818;stroke-width:1;"/><text fill="#000000" font-family="sans-serif" font-size="13" lengthAdjust="spacing" textLength="272.4478" x="68.292" y="104.4966">MBED_ASSERT(obj-&gt;pin != (PinName)NC)</text></g><g class="message" data-entity-1="part1" data-entity-2="part1" id="msg3"><line style="stroke:#181818;stroke-width:1;" x1="61.292" x2="103.292" y1="151.6953" y2="151.6953"/><line style="stroke:#181818;stroke-width:1;" x1="103.292" x2="103.292" y1="151.6953" y2="164.6953"/><line style="stroke:#181818;stroke-width:1;" x1="62.292" x2="103.292" y1="164.6953" y2="164.6953"/><polygon fill="#181818" points="72.292,160.6953,62.292,164.6953,72.292,168.6953,68.292,164.6953" style="stroke:#181818;stroke-width:1;"/><text fill="#000000" font-family="sans-serif" font-size="13" lengthAdjust="spacing" textLength="306.1221" x="68.292" y="146.6294">uint32_t port = obj-&gt;pin &gt;&gt; GPIO_PORT_SHIFT</text></g><g class="message" data-entity-1="part1" data-entity-2="part1" id="msg4"><line style="stroke:#181818;stroke-width:1;" x1="61.292" x2="103.292" y1="193.8281" y2="193.8281"/><line style="stroke:#181818;stroke-width:1;" x1="103.292" x2="103.292" y1="193.8281" y2="206.8281"/><line style="stroke:#181818;stroke-width:1;" x1="62.292" x2="103.292" y1="206.8281" y2="206.8281"/><polygon fill="#181818" points="72.292,202.8281,62.292,206.8281,72.292,210.8281,68.292,206.8281" style="stroke:#181818;stroke-width:1;"/><text fill="#000000" font-family="sans-serif" font-size="13" lengthAdjust="spacing" textLength="237.1865" x="68.292" y="188.7622">uint32_t pin_num = obj-&gt;pin &amp; 0xFF</text></g><g class="message" data-entity-1="part1" data-entity-2="part1" id="msg5"><line style="stroke:#181818;stroke-width:1;" x1="61.292" x2="103.292" y1="235.9609" y2="235.9609"/><line style="stroke:#181818;stroke-width:1;" x1="103.292" x2="103.292" y1="235.9609" y2="248.9609"/><line style="stroke:#181818;stroke-width:1;" x1="62.292" x2="103.292" y1="248.9609" y2="248.9609"/><polygon fill="#181818" points="72.292,244.9609,62.292,248.9609,72.292,252.9609,68.292,248.9609" style="stroke:#181818;stroke-width:1;"/><text fill="#000000" font-family="sans-serif" font-size="13" lengthAdjust="spacing" textLength="88.499" x="68.292" y="230.895">uint16_t Data</text></g><path d="M10,263.9609 L74.4429,263.9609 L74.4429,271.0938 L64.4429,281.0938 L10,281.0938 L10,263.9609" fill="#EEEEEE" style="stroke:#000000;stroke-width:1.5;"/><rect fill="none" height="631.2109" style="stroke:#000000;stroke-width:1.5;" width="690.1587" x="10" y="263.9609"/><text fill="#000000" font-family="sans-serif" font-size="13" font-weight="bold" lengthAdjust="spacing" textLength="19.4429" x="25" y="277.0278">alt</text><text fill="#000000" font-family="sans-serif" font-size="11" font-weight="bold" lengthAdjust="spacing" textLength="224.8555" x="89.4429" y="276.1714">[((gpio_oen[port] &gt;&gt; pin_num) &amp; 1)]</text><g class="message" data-entity-1="part1" data-entity-2="part1" id="msg6"><line style="stroke:#181818;stroke-width:1;" x1="61.292" x2="103.292" y1="302.2266" y2="302.2266"/><line style="stroke:#181818;stroke-width:1;" x1="103.292" x2="103.292" y1="302.2266" y2="315.2266"/><line style="stroke:#181818;stroke-width:1;" x1="62.292" x2="103.292" y1="315.2266" y2="315.2266"/><polygon fill="#181818" points="72.292,311.2266,62.292,315.2266,72.292,319.2266,68.292,315.2266" style="stroke:#181818;stroke-width:1;"/><text fill="#000000" font-family="sans-serif" font-size="13" lengthAdjust="spacing" textLength="312.8188" x="68.292" y="297.1606">Data = gpio_output_val[port] &amp; (1 &lt;&lt; pin_num)</text></g><line style="stroke:#000000;stroke-width:1;stroke-dasharray:2,2;" x1="10" x2="700.1587" y1="324.2266" y2="324.2266"/><text fill="#000000" font-family="sans-serif" font-size="11" font-weight="bold" lengthAdjust="spacing" textLength="161.7075" x="15" y="334.437">[(otherwise call GetData)]</text><g class="message" data-entity-1="part1" data-entity-2="part2" id="msg7"><polygon fill="#181818" points="386.1108,355.1641,396.1108,359.1641,386.1108,363.1641,390.1108,359.1641" style="stroke:#181818;stroke-width:1;"/><line style="stroke:#181818;stroke-width:1;" x1="61.292" x2="392.1108" y1="359.1641" y2="359.1641"/><text fill="#000000" font-family="sans-serif" font-size="13" lengthAdjust="spacing" textLength="313.8154" x="68.292" y="354.0981">adi_gpio_GetData(port, (1 &lt;&lt; pin_num), &amp;Data)</text></g><path d="M346.8188,374.1641 L411.2617,374.1641 L411.2617,381.2969 L401.2617,391.2969 L346.8188,391.2969 L346.8188,374.1641" fill="#EEEEEE" style="stroke:#000000;stroke-width:1.5;"/><rect fill="none" height="514.0078" style="stroke:#000000;stroke-width:1.5;" width="343.3398" x="346.8188" y="374.1641"/><text fill="#000000" font-family="sans-serif" font-size="13" font-weight="bold" lengthAdjust="spacing" textLength="19.4429" x="361.8188" y="387.231">alt</text><text fill="#000000" font-family="sans-serif" font-size="11" font-weight="bold" lengthAdjust="spacing" textLength="208.248" x="426.2617" y="386.3745">[NULL == adi_gpio_Device.pData]</text><g class="message" data-entity-1="part2" data-entity-2="part2" id="msg8"><line style="stroke:#181818;stroke-width:1;" x1="408.1108" x2="450.1108" y1="412.4297" y2="412.4297"/><line style="stroke:#181818;stroke-width:1;" x1="450.1108" x2="450.1108" y1="412.4297" y2="425.4297"/><line style="stroke:#181818;stroke-width:1;" x1="409.1108" x2="450.1108" y1="425.4297" y2="425.4297"/><polygon fill="#181818" points="419.1108,421.4297,409.1108,425.4297,419.1108,429.4297,415.1108,425.4297" style="stroke:#181818;stroke-width:1;"/><text fill="#000000" font-family="sans-serif" font-size="13" lengthAdjust="spacing" textLength="222.7773" x="415.1108" y="407.3638">return ADI_GPIO_NOT_INITIALIZED</text></g><line style="stroke:#000000;stroke-width:1;stroke-dasharray:2,2;" x1="346.8188" x2="690.1587" y1="434.4297" y2="434.4297"/><text fill="#000000" font-family="sans-serif" font-size="11" font-weight="bold" lengthAdjust="spacing" textLength="169.646" x="351.8188" y="444.6401">[(ArePinsValid(Port, Pins))]</text><g class="message" data-entity-1="part2" data-entity-2="part2" id="msg9"><line style="stroke:#181818;stroke-width:1;" x1="408.1108" x2="455.1108" y1="464.3672" y2="464.3672"/><line style="stroke:#181818;stroke-width:1;" x1="455.1108" x2="455.1108" y1="464.3672" y2="477.3672"/><line style="stroke:#181818;stroke-width:1;" x1="414.1108" x2="455.1108" y1="477.3672" y2="477.3672"/><polygon fill="#181818" points="424.1108,473.3672,414.1108,477.3672,424.1108,481.3672,420.1108,477.3672" style="stroke:#181818;stroke-width:1;"/><text fill="#000000" font-family="sans-serif" font-size="13" lengthAdjust="spacing" textLength="152.1406" x="420.1108" y="459.3013">ArePinsValid(Port, Pins)</text></g><g class="message" data-entity-1="part2" data-entity-2="part2" id="msg10"><line style="stroke:#181818;stroke-width:1;" x1="413.1108" x2="455.1108" y1="511.5" y2="511.5"/><line style="stroke:#181818;stroke-width:1;" x1="455.1108" x2="455.1108" y1="511.5" y2="524.5"/><line style="stroke:#181818;stroke-width:1;" x1="414.1108" x2="455.1108" y1="524.5" y2="524.5"/><polygon fill="#181818" points="424.1108,520.5,414.1108,524.5,424.1108,528.5,420.1108,524.5" style="stroke:#181818;stroke-width:1;"/><text fill="#000000" font-family="sans-serif" font-size="13" lengthAdjust="spacing" textLength="179.8164" x="420.1108" y="506.4341">if (!ArePinsValid(Port, Pins))</text></g><path d="M356.8188,539.5 L421.2617,539.5 L421.2617,546.6328 L411.2617,556.6328 L356.8188,556.6328 L356.8188,539.5" fill="#EEEEEE" style="stroke:#000000;stroke-width:1.5;"/><rect fill="none" height="200.4688" style="stroke:#000000;stroke-width:1.5;" width="323.3398" x="356.8188" y="539.5"/><text fill="#000000" font-family="sans-serif" font-size="13" font-weight="bold" lengthAdjust="spacing" textLength="19.4429" x="371.8188" y="552.5669">alt</text><text fill="#000000" font-family="sans-serif" font-size="11" font-weight="bold" lengthAdjust="spacing" textLength="164.6079" x="436.2617" y="551.7104">[!ArePinsValid(Port, Pins)]</text><g class="message" data-entity-1="part2" data-entity-2="part2" id="msg11"><line style="stroke:#181818;stroke-width:1;" x1="413.1108" x2="455.1108" y1="577.7656" y2="577.7656"/><line style="stroke:#181818;stroke-width:1;" x1="455.1108" x2="455.1108" y1="577.7656" y2="590.7656"/><line style="stroke:#181818;stroke-width:1;" x1="414.1108" x2="455.1108" y1="590.7656" y2="590.7656"/><polygon fill="#181818" points="424.1108,586.7656,414.1108,590.7656,424.1108,594.7656,420.1108,590.7656" style="stroke:#181818;stroke-width:1;"/><text fill="#000000" font-family="sans-serif" font-size="13" lengthAdjust="spacing" textLength="200.6938" x="420.1108" y="572.6997">return ADI_GPIO_INVALID_PINS</text></g><line style="stroke:#000000;stroke-width:1;stroke-dasharray:2,2;" x1="356.8188" x2="680.1587" y1="599.7656" y2="599.7656"/><text fill="#000000" font-family="sans-serif" font-size="11" font-weight="bold" lengthAdjust="spacing" textLength="81.5815" x="361.8188" y="609.9761">[(otherwise)]</text><g class="message" data-entity-1="part2" data-entity-2="part2" id="msg12"><line style="stroke:#181818;stroke-width:1;" x1="413.1108" x2="455.1108" y1="634.7031" y2="634.7031"/><line style="stroke:#181818;stroke-width:1;" x1="455.1108" x2="455.1108" y1="634.7031" y2="647.7031"/><line style="stroke:#181818;stroke-width:1;" x1="414.1108" x2="455.1108" y1="647.7031" y2="647.7031"/><polygon fill="#181818" points="424.1108,643.7031,414.1108,647.7031,424.1108,651.7031,420.1108,647.7031" style="stroke:#181818;stroke-width:1;"/><text fill="#000000" font-family="sans-serif" font-size="13" lengthAdjust="spacing" textLength="233.0479" x="420.1108" y="629.6372">pPort = adi_gpio_Device.pReg[Port]</text></g><g class="message" data-entity-1="part2" data-entity-2="part2" id="msg13"><line style="stroke:#181818;stroke-width:1;" x1="413.1108" x2="455.1108" y1="676.8359" y2="676.8359"/><line style="stroke:#181818;stroke-width:1;" x1="455.1108" x2="455.1108" y1="676.8359" y2="689.8359"/><line style="stroke:#181818;stroke-width:1;" x1="414.1108" x2="455.1108" y1="689.8359" y2="689.8359"/><polygon fill="#181818" points="424.1108,685.8359,414.1108,689.8359,424.1108,693.8359,420.1108,689.8359" style="stroke:#181818;stroke-width:1;"/><ellipse cx="425.6108" cy="667.3359" fill="#000000" rx="2.5" ry="2.5"/><text fill="#000000" font-family="sans-serif" font-size="13" lengthAdjust="spacing" textLength="182.7554" x="432.1108" y="671.77">pValue = (pPort-&gt;IN) &amp; Pins</text></g><g class="message" data-entity-1="part2" data-entity-2="part2" id="msg14"><line style="stroke:#181818;stroke-width:1;" x1="413.1108" x2="455.1108" y1="718.9688" y2="718.9688"/><line style="stroke:#181818;stroke-width:1;" x1="455.1108" x2="455.1108" y1="718.9688" y2="731.9688"/><line style="stroke:#181818;stroke-width:1;" x1="414.1108" x2="455.1108" y1="731.9688" y2="731.9688"/><polygon fill="#181818" points="424.1108,727.9688,414.1108,731.9688,424.1108,735.9688,420.1108,731.9688" style="stroke:#181818;stroke-width:1;"/><text fill="#000000" font-family="sans-serif" font-size="13" lengthAdjust="spacing" textLength="172.7515" x="420.1108" y="713.9028">return ADI_GPIO_SUCCESS</text></g><line style="stroke:#000000;stroke-width:1;stroke-dasharray:2,2;" x1="346.8188" x2="690.1587" y1="747.9688" y2="747.9688"/><text fill="#000000" font-family="sans-serif" font-size="11" font-weight="bold" lengthAdjust="spacing" textLength="81.5815" x="351.8188" y="758.1792">[(otherwise)]</text><g class="message" data-entity-1="part2" data-entity-2="part2" id="msg15"><line style="stroke:#181818;stroke-width:1;" x1="408.1108" x2="450.1108" y1="782.9063" y2="782.9063"/><line style="stroke:#181818;stroke-width:1;" x1="450.1108" x2="450.1108" y1="782.9063" y2="795.9063"/><line style="stroke:#181818;stroke-width:1;" x1="409.1108" x2="450.1108" y1="795.9063" y2="795.9063"/><polygon fill="#181818" points="419.1108,791.9063,409.1108,795.9063,419.1108,799.9063,415.1108,795.9063" style="stroke:#181818;stroke-width:1;"/><text fill="#000000" font-family="sans-serif" font-size="13" lengthAdjust="spacing" textLength="233.0479" x="415.1108" y="777.8403">pPort = adi_gpio_Device.pReg[Port]</text></g><g class="message" data-entity-1="part2" data-entity-2="part2" id="msg16"><line style="stroke:#181818;stroke-width:1;" x1="408.1108" x2="450.1108" y1="825.0391" y2="825.0391"/><line style="stroke:#181818;stroke-width:1;" x1="450.1108" x2="450.1108" y1="825.0391" y2="838.0391"/><line style="stroke:#181818;stroke-width:1;" x1="409.1108" x2="450.1108" y1="838.0391" y2="838.0391"/><polygon fill="#181818" points="419.1108,834.0391,409.1108,838.0391,419.1108,842.0391,415.1108,838.0391" style="stroke:#181818;stroke-width:1;"/><ellipse cx="420.6108" cy="815.5391" fill="#000000" rx="2.5" ry="2.5"/><text fill="#000000" font-family="sans-serif" font-size="13" lengthAdjust="spacing" textLength="182.7554" x="427.1108" y="819.9731">pValue = (pPort-&gt;IN) &amp; Pins</text></g><g class="message" data-entity-1="part2" data-entity-2="part2" id="msg17"><line style="stroke:#181818;stroke-width:1;" x1="408.1108" x2="450.1108" y1="867.1719" y2="867.1719"/><line style="stroke:#181818;stroke-width:1;" x1="450.1108" x2="450.1108" y1="867.1719" y2="880.1719"/><line style="stroke:#181818;stroke-width:1;" x1="409.1108" x2="450.1108" y1="880.1719" y2="880.1719"/><polygon fill="#181818" points="419.1108,876.1719,409.1108,880.1719,419.1108,884.1719,415.1108,880.1719" style="stroke:#181818;stroke-width:1;"/><text fill="#000000" font-family="sans-serif" font-size="13" lengthAdjust="spacing" textLength="172.7515" x="415.1108" y="862.106">return ADI_GPIO_SUCCESS</text></g><g class="message" data-entity-1="part1" data-entity-2="part1" id="msg18"><line style="stroke:#181818;stroke-width:1;" x1="61.292" x2="103.292" y1="928.3047" y2="928.3047"/><line style="stroke:#181818;stroke-width:1;" x1="103.292" x2="103.292" y1="928.3047" y2="941.3047"/><line style="stroke:#181818;stroke-width:1;" x1="56.292" x2="103.292" y1="941.3047" y2="941.3047"/><polygon fill="#181818" points="66.292,937.3047,56.292,941.3047,66.292,945.3047,62.292,941.3047" style="stroke:#181818;stroke-width:1;"/><text fill="#000000" font-family="sans-serif" font-size="13" lengthAdjust="spacing" textLength="281.8042" x="68.292" y="923.2388">return ((((uint32_t)Data) &gt;&gt; pin_num) &amp; 1)</text></g><?plantuml-src fPHVJy8m5CNVzoakBwGpOaGJ7umiGGRQ1CV2fWyQqrHMjMPspUpGZsyxzWST4zG-bTsTN--vXrNILF45brGeU98y8LHoIwuzf14dfc1PPHbwJlNgwMgNCXgXvE75jkX2yILLh8QrwAxEnouP1i5u7Xfbpv5SG6S0oEV2ew_CzaPsYpJZGXqV4GKoIHKCe98x3bpuU4RysJmamIMUX5i9N12HlQv3kd3uCPdy8EoVQA5B5RLeh02Xl9emSMVQkJTD55HRi_gs1NfjfXc8Fde5o9JC55dIkE1q0VNXxAo2MIn-Ou0IzSpITwwt2nh7SC6KeJHFANCxhNQaU1SP_lut-ZvqQquLOXM-SUfTJwSm6DGybotvWXt8V1PGhBBwjOUKgImLC7GnoHFoPY717WxnS8flnsxXRPWodVxR3OrvXFoyI_FRjhVGstIrh65e2v4_0kgqjsF6qTbwwkxZmDwD7eHBVEm5ttFUXIVzrPVGY6REdkvCxNu7o9xKLZAcCIZdzHpicR-mCVK7Jy7rQ3GEWah9H5HFFMBDI5fz_zlpF_p-tclbSwD7Kzny6HHCf5TvFTdv9zcyKTR8fVuJ?></g></svg>