<?plantuml 1.2026.1?><svg xmlns="http://www.w3.org/2000/svg" xmlns:xlink="http://www.w3.org/1999/xlink" contentStyleType="text/css" data-diagram-type="SEQUENCE" height="664px" preserveAspectRatio="none" style="width:678px;height:664px;background:#FFFFFF;" version="1.1" viewBox="0 0 678 664" width="678px" zoomAndPan="magnify"><defs/><g><g><title>api</title><rect fill="#FFFFFF" height="529.1406" style="stroke:#181818;stroke-width:1;" width="10" x="42.6777" y="75.4297"/></g><g><title>adi_gpio</title><rect fill="#FFFFFF" height="211.2734" style="stroke:#181818;stroke-width:1;" width="10" x="389.4966" y="359.1641"/></g><rect fill="none" height="306.4766" style="stroke:#000000;stroke-width:1.5;" width="661.5444" x="10" y="263.9609"/><rect fill="none" height="189.2734" style="stroke:#000000;stroke-width:1.5;" width="641.5444" x="20" y="374.1641"/><g class="participant-lifeline" data-entity-uid="part1" data-qualified-name="API" id="part1-lifeline"><g><title>api</title><rect fill="#000000" fill-opacity="0.00000" height="593.2734" width="8" x="43.6777" y="36.2969"/><line style="stroke:#181818;stroke-width:0.5;stroke-dasharray:5,5;" x1="47" x2="47" y1="36.2969" y2="629.5703"/></g></g><g class="participant-lifeline" data-entity-uid="part2" data-qualified-name="ADI_GPIO" id="part2-lifeline"><g><title>adi_gpio</title><rect fill="#000000" fill-opacity="0.00000" height="593.2734" width="8" x="390.4966" y="36.2969"/><line style="stroke:#181818;stroke-width:0.5;stroke-dasharray:5,5;" x1="394.2046" x2="394.2046" y1="36.2969" y2="629.5703"/></g></g><g class="participant participant-head" data-entity-uid="part1" data-qualified-name="API" id="part1-head"><rect fill="#E2E2F0" height="30.2969" rx="2.5" ry="2.5" style="stroke:#181818;stroke-width:0.5;" width="35.3555" x="30" y="5"/><text fill="#000000" font-family="sans-serif" font-size="14" lengthAdjust="spacing" textLength="21.3555" x="37" y="24.9951">api</text></g><g class="participant participant-tail" data-entity-uid="part1" data-qualified-name="API" id="part1-tail"><rect fill="#E2E2F0" height="30.2969" rx="2.5" ry="2.5" style="stroke:#181818;stroke-width:0.5;" width="35.3555" x="30" y="628.5703"/><text fill="#000000" font-family="sans-serif" font-size="14" lengthAdjust="spacing" textLength="21.3555" x="37" y="648.5654">api</text></g><g class="participant participant-head" data-entity-uid="part2" data-qualified-name="ADI_GPIO" id="part2-head"><rect fill="#E2E2F0" height="30.2969" rx="2.5" ry="2.5" style="stroke:#181818;stroke-width:0.5;" width="72.584" x="358.2046" y="5"/><text fill="#000000" font-family="sans-serif" font-size="14" lengthAdjust="spacing" textLength="58.584" x="365.2046" y="24.9951">adi_gpio</text></g><g class="participant participant-tail" data-entity-uid="part2" data-qualified-name="ADI_GPIO" id="part2-tail"><rect fill="#E2E2F0" height="30.2969" rx="2.5" ry="2.5" style="stroke:#181818;stroke-width:0.5;" width="72.584" x="358.2046" y="628.5703"/><text fill="#000000" font-family="sans-serif" font-size="14" lengthAdjust="spacing" textLength="58.584" x="365.2046" y="648.5654">adi_gpio</text></g><g><title>api</title><rect fill="#FFFFFF" height="529.1406" style="stroke:#181818;stroke-width:1;" width="10" x="42.6777" y="75.4297"/></g><g><title>adi_gpio</title><rect fill="#FFFFFF" height="211.2734" style="stroke:#181818;stroke-width:1;" width="10" x="389.4966" y="359.1641"/></g><g class="message" data-entity-1="part1" data-entity-2="part1" id="msg1"><line style="stroke:#181818;stroke-width:1;" x1="47.6777" x2="94.6777" y1="62.4297" y2="62.4297"/><line style="stroke:#181818;stroke-width:1;" x1="94.6777" x2="94.6777" y1="62.4297" y2="75.4297"/><line style="stroke:#181818;stroke-width:1;" x1="53.6777" x2="94.6777" y1="75.4297" y2="75.4297"/><polygon fill="#181818" points="63.6777,71.4297,53.6777,75.4297,63.6777,79.4297,59.6777,75.4297" style="stroke:#181818;stroke-width:1;"/><text fill="#000000" font-family="sans-serif" font-size="13" lengthAdjust="spacing" textLength="144.3901" x="59.6777" y="57.3638">gpio_read(gpio_t *obj)</text></g><g class="message" data-entity-1="part1" data-entity-2="part1" id="msg2"><line style="stroke:#181818;stroke-width:1;" x1="52.6777" x2="94.6777" y1="109.5625" y2="109.5625"/><line style="stroke:#181818;stroke-width:1;" x1="94.6777" x2="94.6777" y1="109.5625" y2="122.5625"/><line style="stroke:#181818;stroke-width:1;" x1="53.6777" x2="94.6777" y1="122.5625" y2="122.5625"/><polygon fill="#181818" points="63.6777,118.5625,53.6777,122.5625,63.6777,126.5625,59.6777,122.5625" style="stroke:#181818;stroke-width:1;"/><text fill="#000000" font-family="sans-serif" font-size="13" lengthAdjust="spacing" textLength="272.4478" x="59.6777" y="104.4966">MBED_ASSERT(obj-&gt;pin != (PinName)NC)</text></g><g class="message" data-entity-1="part1" data-entity-2="part1" id="msg3"><line style="stroke:#181818;stroke-width:1;" x1="52.6777" x2="94.6777" y1="151.6953" y2="151.6953"/><line style="stroke:#181818;stroke-width:1;" x1="94.6777" x2="94.6777" y1="151.6953" y2="164.6953"/><line style="stroke:#181818;stroke-width:1;" x1="53.6777" x2="94.6777" y1="164.6953" y2="164.6953"/><polygon fill="#181818" points="63.6777,160.6953,53.6777,164.6953,63.6777,168.6953,59.6777,164.6953" style="stroke:#181818;stroke-width:1;"/><text fill="#000000" font-family="sans-serif" font-size="13" lengthAdjust="spacing" textLength="306.1221" x="59.6777" y="146.6294">uint32_t port = obj-&gt;pin &gt;&gt; GPIO_PORT_SHIFT</text></g><g class="message" data-entity-1="part1" data-entity-2="part1" id="msg4"><line style="stroke:#181818;stroke-width:1;" x1="52.6777" x2="94.6777" y1="193.8281" y2="193.8281"/><line style="stroke:#181818;stroke-width:1;" x1="94.6777" x2="94.6777" y1="193.8281" y2="206.8281"/><line style="stroke:#181818;stroke-width:1;" x1="53.6777" x2="94.6777" y1="206.8281" y2="206.8281"/><polygon fill="#181818" points="63.6777,202.8281,53.6777,206.8281,63.6777,210.8281,59.6777,206.8281" style="stroke:#181818;stroke-width:1;"/><text fill="#000000" font-family="sans-serif" font-size="13" lengthAdjust="spacing" textLength="237.1865" x="59.6777" y="188.7622">uint32_t pin_num = obj-&gt;pin &amp; 0xFF</text></g><g class="message" data-entity-1="part1" data-entity-2="part1" id="msg5"><line style="stroke:#181818;stroke-width:1;" x1="52.6777" x2="94.6777" y1="235.9609" y2="235.9609"/><line style="stroke:#181818;stroke-width:1;" x1="94.6777" x2="94.6777" y1="235.9609" y2="248.9609"/><line style="stroke:#181818;stroke-width:1;" x1="53.6777" x2="94.6777" y1="248.9609" y2="248.9609"/><polygon fill="#181818" points="63.6777,244.9609,53.6777,248.9609,63.6777,252.9609,59.6777,248.9609" style="stroke:#181818;stroke-width:1;"/><text fill="#000000" font-family="sans-serif" font-size="13" lengthAdjust="spacing" textLength="88.499" x="59.6777" y="230.895">uint16_t Data</text></g><path d="M10,263.9609 L74.4429,263.9609 L74.4429,271.0938 L64.4429,281.0938 L10,281.0938 L10,263.9609" fill="#EEEEEE" style="stroke:#000000;stroke-width:1.5;"/><rect fill="none" height="306.4766" style="stroke:#000000;stroke-width:1.5;" width="661.5444" x="10" y="263.9609"/><text fill="#000000" font-family="sans-serif" font-size="13" font-weight="bold" lengthAdjust="spacing" textLength="19.4429" x="25" y="277.0278">alt</text><text fill="#000000" font-family="sans-serif" font-size="11" font-weight="bold" lengthAdjust="spacing" textLength="234.9102" x="89.4429" y="276.1714">[[((gpio_oen[port] &gt;&gt; pin_num) &amp; 1)]]</text><g class="message" data-entity-1="part1" data-entity-2="part1" id="msg6"><line style="stroke:#181818;stroke-width:1;" x1="52.6777" x2="94.6777" y1="302.2266" y2="302.2266"/><line style="stroke:#181818;stroke-width:1;" x1="94.6777" x2="94.6777" y1="302.2266" y2="315.2266"/><line style="stroke:#181818;stroke-width:1;" x1="53.6777" x2="94.6777" y1="315.2266" y2="315.2266"/><polygon fill="#181818" points="63.6777,311.2266,53.6777,315.2266,63.6777,319.2266,59.6777,315.2266" style="stroke:#181818;stroke-width:1;"/><text fill="#000000" font-family="sans-serif" font-size="13" lengthAdjust="spacing" textLength="312.8188" x="59.6777" y="297.1606">Data = gpio_output_val[port] &amp; (1 &lt;&lt; pin_num)</text></g><line style="stroke:#000000;stroke-width:1;stroke-dasharray:2,2;" x1="10" x2="671.5444" y1="324.2266" y2="324.2266"/><a href="(otherwise" target="_top" title="(otherwise" xlink:actuate="onRequest" xlink:href="(otherwise" xlink:show="new" xlink:title="(otherwise" xlink:type="simple"><text fill="#0000FF" font-family="sans-serif" font-size="11" font-weight="bold" lengthAdjust="spacing" text-decoration="underline" textLength="81.3237" x="15" y="334.437">call GetData)</text></a><g class="message" data-entity-1="part1" data-entity-2="part2" id="msg7"><polygon fill="#181818" points="377.4966,355.1641,387.4966,359.1641,377.4966,363.1641,381.4966,359.1641" style="stroke:#181818;stroke-width:1;"/><line style="stroke:#181818;stroke-width:1;" x1="52.6777" x2="383.4966" y1="359.1641" y2="359.1641"/><text fill="#000000" font-family="sans-serif" font-size="13" lengthAdjust="spacing" textLength="313.8154" x="59.6777" y="354.0981">adi_gpio_GetData(port, (1 &lt;&lt; pin_num), &amp;Data)</text></g><path d="M20,374.1641 L84.4429,374.1641 L84.4429,381.2969 L74.4429,391.2969 L20,391.2969 L20,374.1641" fill="#EEEEEE" style="stroke:#000000;stroke-width:1.5;"/><rect fill="none" height="189.2734" style="stroke:#000000;stroke-width:1.5;" width="641.5444" x="20" y="374.1641"/><text fill="#000000" font-family="sans-serif" font-size="13" font-weight="bold" lengthAdjust="spacing" textLength="19.4429" x="35" y="387.231">alt</text><a href="NULL" target="_top" title="NULL" xlink:actuate="onRequest" xlink:href="NULL" xlink:show="new" xlink:title="NULL" xlink:type="simple"><text fill="#0000FF" font-family="sans-serif" font-size="11" font-weight="bold" lengthAdjust="spacing" text-decoration="underline" textLength="162.207" x="99.4429" y="386.3745">== adi_gpio_Device.pData</text></a><g class="message" data-entity-1="part2" data-entity-2="part1" id="msg8"><polygon fill="#181818" points="63.6777,408.4297,53.6777,412.4297,63.6777,416.4297,59.6777,412.4297" style="stroke:#181818;stroke-width:1;"/><line style="stroke:#181818;stroke-width:1;stroke-dasharray:2,2;" x1="57.6777" x2="388.4966" y1="412.4297" y2="412.4297"/><text fill="#000000" font-family="sans-serif" font-size="13" lengthAdjust="spacing" textLength="178.3818" x="69.6777" y="407.3638">ADI_GPIO_NOT_INITIALIZED</text></g><line style="stroke:#000000;stroke-width:1;stroke-dasharray:2,2;" x1="20" x2="661.5444" y1="421.4297" y2="421.4297"/><a href="(!ArePinsValid(Port," target="_top" title="(!ArePinsValid(Port," xlink:actuate="onRequest" xlink:href="(!ArePinsValid(Port," xlink:show="new" xlink:title="(!ArePinsValid(Port," xlink:type="simple"><text fill="#0000FF" font-family="sans-serif" font-size="11" font-weight="bold" lengthAdjust="spacing" text-decoration="underline" textLength="36.2656" x="25" y="431.6401">Pins))</text></a><g class="message" data-entity-1="part2" data-entity-2="part1" id="msg9"><polygon fill="#181818" points="63.6777,452.3672,53.6777,456.3672,63.6777,460.3672,59.6777,456.3672" style="stroke:#181818;stroke-width:1;"/><line style="stroke:#181818;stroke-width:1;stroke-dasharray:2,2;" x1="57.6777" x2="388.4966" y1="456.3672" y2="456.3672"/><text fill="#000000" font-family="sans-serif" font-size="13" lengthAdjust="spacing" textLength="156.2983" x="69.6777" y="451.3013">ADI_GPIO_INVALID_PINS</text></g><line style="stroke:#000000;stroke-width:1;stroke-dasharray:2,2;" x1="20" x2="661.5444" y1="465.3672" y2="465.3672"/><a href="(valid" target="_top" title="(valid" xlink:actuate="onRequest" xlink:href="(valid" xlink:show="new" xlink:title="(valid" xlink:type="simple"><text fill="#0000FF" font-family="sans-serif" font-size="11" font-weight="bold" lengthAdjust="spacing" text-decoration="underline" textLength="31.0503" x="25" y="475.5776">pins)</text></a><g class="message" data-entity-1="part2" data-entity-2="part2" id="msg10"><line style="stroke:#181818;stroke-width:1;" x1="399.4966" x2="441.4966" y1="500.3047" y2="500.3047"/><line style="stroke:#181818;stroke-width:1;" x1="441.4966" x2="441.4966" y1="500.3047" y2="513.3047"/><line style="stroke:#181818;stroke-width:1;" x1="400.4966" x2="441.4966" y1="513.3047" y2="513.3047"/><polygon fill="#181818" points="410.4966,509.3047,400.4966,513.3047,410.4966,517.3047,406.4966,513.3047" style="stroke:#181818;stroke-width:1;"/><text fill="#000000" font-family="sans-serif" font-size="13" lengthAdjust="spacing" textLength="233.0479" x="406.4966" y="495.2388">pPort = adi_gpio_Device.pReg[Port]</text></g><g class="message" data-entity-1="part2" data-entity-2="part2" id="msg11"><line style="stroke:#181818;stroke-width:1;" x1="399.4966" x2="441.4966" y1="542.4375" y2="542.4375"/><line style="stroke:#181818;stroke-width:1;" x1="441.4966" x2="441.4966" y1="542.4375" y2="555.4375"/><line style="stroke:#181818;stroke-width:1;" x1="400.4966" x2="441.4966" y1="555.4375" y2="555.4375"/><polygon fill="#181818" points="410.4966,551.4375,400.4966,555.4375,410.4966,559.4375,406.4966,555.4375" style="stroke:#181818;stroke-width:1;"/><text fill="#000000" font-family="sans-serif" font-size="13" lengthAdjust="spacing" textLength="109.8081" x="406.4966" y="537.3716">return the status</text></g><g class="message" data-entity-1="part1" data-entity-2="part1" id="msg12"><line style="stroke:#181818;stroke-width:1;" x1="52.6777" x2="94.6777" y1="603.5703" y2="603.5703"/><line style="stroke:#181818;stroke-width:1;" x1="94.6777" x2="94.6777" y1="603.5703" y2="616.5703"/><line style="stroke:#181818;stroke-width:1;" x1="47.6777" x2="94.6777" y1="616.5703" y2="616.5703"/><polygon fill="#181818" points="57.6777,612.5703,47.6777,616.5703,57.6777,620.5703,53.6777,616.5703" style="stroke:#181818;stroke-width:1;"/><text fill="#000000" font-family="sans-serif" font-size="13" lengthAdjust="spacing" textLength="281.8042" x="59.6777" y="598.5044">return ((((uint32_t)Data) &gt;&gt; pin_num) &amp; 1)</text></g><?plantuml-src ZP9HJy8m4CVV-obE7iXcm8WcFXWWGGVO1CS2amS9QIfhi6PqpTQX7z-ssu21HllKxUx_-z_rJj9KyJMNL2XeKCaRG3CO11Z9MY3YP2DvKaGzJCO1dYAayw3TD-bm3oPEKaOZnzuKN2Pl7owYQyLtL34BhIkU7uOU6SpdmrdewDnsNt815prm0YvykcMk_-ZM5JaNwlP6isMIAkZ1NjNlWoc91DDPIEPFU1J-9kI2Y7nxh6t2zTTeT9xVkTFv7bKKqLZ1qYdwIfXO6lULyInfhcPqt1K2VMeOezPMXJ1NCbTaH-DItmId0ztk7e9Od37jawXtbdvoVL_JE8OnKmPpWYzde3sgsP0oqJ7qrWcx1KqBiOp3IAf9sWRzbya4Uhq3q6CxlcPNqYWBTrj1PTtUjrdz8luq9DZ78HvCyElGgpgw6AHCppHRq9X7Jc3hCz-k-pyizXSQw940-_EAkJCiqr_s8wJsH38erkMiindRB4tiJqBAL9uAq9E1J56LPuY9o8eYTlwS9bRRWrBkw5DjecldSRP4w9WNu6y0?></g></svg>