<?plantuml 1.2026.1?><svg xmlns="http://www.w3.org/2000/svg" xmlns:xlink="http://www.w3.org/1999/xlink" contentStyleType="text/css" data-diagram-type="SEQUENCE" height="355px" preserveAspectRatio="none" style="width:224px;height:355px;background:#FFFFFF;" version="1.1" viewBox="0 0 224 355" width="224px" zoomAndPan="magnify"><defs/><g><g><title>main.cpp</title><rect fill="#FFFFFF" height="235.0625" style="stroke:#181818;stroke-width:1;" width="10" x="58.7046" y="67.4297"/></g><g><title>BusOut.cpp</title><rect fill="#FFFFFF" height="29.1328" style="stroke:#181818;stroke-width:1;" width="10" x="155.6919" y="96.5625"/></g><g><title>BusOut.cpp</title><rect fill="#FFFFFF" height="29.1328" style="stroke:#181818;stroke-width:1;" width="10" x="155.6919" y="178.9609"/></g><g><title>BusOut.cpp</title><rect fill="#FFFFFF" height="29.1328" style="stroke:#181818;stroke-width:1;" width="10" x="155.6919" y="244.2266"/></g><rect fill="none" height="75.3984" style="stroke:#000000;stroke-width:1.5;" width="203.9746" x="14.2544" y="140.6953"/><g class="participant-lifeline" data-entity-uid="part1" data-qualified-name="main_cpp" id="part1-lifeline"><g><title>main.cpp</title><rect fill="#000000" fill-opacity="0.00000" height="284.1953" width="8" x="59.7046" y="36.2969"/><line style="stroke:#181818;stroke-width:0.5;stroke-dasharray:5,5;" x1="63.2544" x2="63.2544" y1="36.2969" y2="320.4922"/></g></g><g class="participant-lifeline" data-entity-uid="part2" data-qualified-name="busout_cpp" id="part2-lifeline"><g><title>BusOut.cpp</title><rect fill="#000000" fill-opacity="0.00000" height="284.1953" width="8" x="156.6919" y="36.2969"/><line style="stroke:#181818;stroke-width:0.5;stroke-dasharray:5,5;" x1="160.1548" x2="160.1548" y1="36.2969" y2="320.4922"/></g></g><g class="participant participant-head" data-entity-uid="part1" data-qualified-name="main_cpp" id="part1-head"><rect fill="#E2E2F0" height="30.2969" rx="2.5" ry="2.5" style="stroke:#181818;stroke-width:0.5;" width="78.9004" x="24.2544" y="5"/><text fill="#000000" font-family="sans-serif" font-size="14" lengthAdjust="spacing" textLength="64.9004" x="31.2544" y="24.9951">main.cpp</text></g><g class="participant participant-tail" data-entity-uid="part1" data-qualified-name="main_cpp" id="part1-tail"><rect fill="#E2E2F0" height="30.2969" rx="2.5" ry="2.5" style="stroke:#181818;stroke-width:0.5;" width="78.9004" x="24.2544" y="319.4922"/><text fill="#000000" font-family="sans-serif" font-size="14" lengthAdjust="spacing" textLength="64.9004" x="31.2544" y="339.4873">main.cpp</text></g><g class="participant participant-head" data-entity-uid="part2" data-qualified-name="busout_cpp" id="part2-head"><rect fill="#E2E2F0" height="30.2969" rx="2.5" ry="2.5" style="stroke:#181818;stroke-width:0.5;" width="95.0742" x="113.1548" y="5"/><text fill="#000000" font-family="sans-serif" font-size="14" lengthAdjust="spacing" textLength="81.0742" x="120.1548" y="24.9951">BusOut.cpp</text></g><g class="participant participant-tail" data-entity-uid="part2" data-qualified-name="busout_cpp" id="part2-tail"><rect fill="#E2E2F0" height="30.2969" rx="2.5" ry="2.5" style="stroke:#181818;stroke-width:0.5;" width="95.0742" x="113.1548" y="319.4922"/><text fill="#000000" font-family="sans-serif" font-size="14" lengthAdjust="spacing" textLength="81.0742" x="120.1548" y="339.4873">BusOut.cpp</text></g><g><title>main.cpp</title><rect fill="#FFFFFF" height="235.0625" style="stroke:#181818;stroke-width:1;" width="10" x="58.7046" y="67.4297"/></g><g><title>BusOut.cpp</title><rect fill="#FFFFFF" height="29.1328" style="stroke:#181818;stroke-width:1;" width="10" x="155.6919" y="96.5625"/></g><g><title>BusOut.cpp</title><rect fill="#FFFFFF" height="29.1328" style="stroke:#181818;stroke-width:1;" width="10" x="155.6919" y="178.9609"/></g><g><title>BusOut.cpp</title><rect fill="#FFFFFF" height="29.1328" style="stroke:#181818;stroke-width:1;" width="10" x="155.6919" y="244.2266"/></g><g class="message" data-entity-1="part1" data-entity-2="part1" id="msg1"><polygon fill="#181818" points="46.7046,63.4297,56.7046,67.4297,46.7046,71.4297,50.7046,67.4297" style="stroke:#181818;stroke-width:1;"/><line style="stroke:#181818;stroke-width:1;" x1="0" x2="52.7046" y1="67.4297" y2="67.4297"/><text fill="#000000" font-family="sans-serif" font-size="13" lengthAdjust="spacing" textLength="39.7046" x="7" y="62.3638">read()</text></g><g class="message" data-entity-1="part1" data-entity-2="part2" id="msg2"><polygon fill="#181818" points="143.6919,92.5625,153.6919,96.5625,143.6919,100.5625,147.6919,96.5625" style="stroke:#181818;stroke-width:1;"/><line style="stroke:#181818;stroke-width:1;" x1="68.7046" x2="149.6919" y1="96.5625" y2="96.5625"/><text fill="#000000" font-family="sans-serif" font-size="13" lengthAdjust="spacing" textLength="36.3848" x="75.7046" y="91.4966">lock()</text></g><g class="message" data-entity-1="part2" data-entity-2="part1" id="msg3"><polygon fill="#181818" points="79.7046,121.6953,69.7046,125.6953,79.7046,129.6953,75.7046,125.6953" style="stroke:#181818;stroke-width:1;"/><line style="stroke:#181818;stroke-width:1;stroke-dasharray:2,2;" x1="73.7046" x2="159.6919" y1="125.6953" y2="125.6953"/><text fill="#000000" font-family="sans-serif" font-size="13" lengthAdjust="spacing" textLength="27.5107" x="85.7046" y="120.6294">void</text></g><path d="M14.2544,140.6953 L78.6973,140.6953 L78.6973,147.8281 L68.6973,157.8281 L14.2544,157.8281 L14.2544,140.6953" fill="#EEEEEE" style="stroke:#000000;stroke-width:1.5;"/><rect fill="none" height="75.3984" style="stroke:#000000;stroke-width:1.5;" width="203.9746" x="14.2544" y="140.6953"/><text fill="#000000" font-family="sans-serif" font-size="13" font-weight="bold" lengthAdjust="spacing" textLength="19.4429" x="29.2544" y="153.7622">alt</text><text fill="#000000" font-family="sans-serif" font-size="11" font-weight="bold" lengthAdjust="spacing" textLength="88.4565" x="93.6973" y="152.9058">[[_pin[i] != 0]]</text><g class="message" data-entity-1="part1" data-entity-2="part2" id="msg4"><polygon fill="#181818" points="143.6919,174.9609,153.6919,178.9609,143.6919,182.9609,147.6919,178.9609" style="stroke:#181818;stroke-width:1;"/><line style="stroke:#181818;stroke-width:1;" x1="68.7046" x2="149.6919" y1="178.9609" y2="178.9609"/><text fill="#000000" font-family="sans-serif" font-size="13" lengthAdjust="spacing" textLength="39.7046" x="75.7046" y="173.895">read()</text></g><g class="message" data-entity-1="part2" data-entity-2="part1" id="msg5"><polygon fill="#181818" points="79.7046,204.0938,69.7046,208.0938,79.7046,212.0938,75.7046,208.0938" style="stroke:#181818;stroke-width:1;"/><line style="stroke:#181818;stroke-width:1;stroke-dasharray:2,2;" x1="73.7046" x2="159.6919" y1="208.0938" y2="208.0938"/><text fill="#000000" font-family="sans-serif" font-size="13" lengthAdjust="spacing" textLength="16.9482" x="85.7046" y="203.0278">int</text></g><g class="message" data-entity-1="part1" data-entity-2="part2" id="msg6"><polygon fill="#181818" points="143.6919,240.2266,153.6919,244.2266,143.6919,248.2266,147.6919,244.2266" style="stroke:#181818;stroke-width:1;"/><line style="stroke:#181818;stroke-width:1;" x1="68.7046" x2="149.6919" y1="244.2266" y2="244.2266"/><text fill="#000000" font-family="sans-serif" font-size="13" lengthAdjust="spacing" textLength="52.8633" x="75.7046" y="239.1606">unlock()</text></g><g class="message" data-entity-1="part2" data-entity-2="part1" id="msg7"><polygon fill="#181818" points="79.7046,269.3594,69.7046,273.3594,79.7046,277.3594,75.7046,273.3594" style="stroke:#181818;stroke-width:1;"/><line style="stroke:#181818;stroke-width:1;stroke-dasharray:2,2;" x1="73.7046" x2="159.6919" y1="273.3594" y2="273.3594"/><text fill="#000000" font-family="sans-serif" font-size="13" lengthAdjust="spacing" textLength="27.5107" x="85.7046" y="268.2935">void</text></g><g class="message" data-entity-1="part1" data-entity-2="part1" id="msg8"><polygon fill="#181818" points="11,298.4922,1,302.4922,11,306.4922,7,302.4922" style="stroke:#181818;stroke-width:1;"/><line style="stroke:#181818;stroke-width:1;stroke-dasharray:2,2;" x1="5" x2="62.7046" y1="302.4922" y2="302.4922"/><text fill="#000000" font-family="sans-serif" font-size="13" lengthAdjust="spacing" textLength="16.9482" x="17" y="297.4263">int</text></g><?plantuml-src hOyn3i8m34Ltdy9qWY686G435-00KLMP98D5IQFMwVb9AsW3QZUysNx_-pjGAsmua1SidiH-Rq8ea3eScYer47Ba6hjRb0cwnww9CcAWrMKIuH5RHtQx0pB2FOcR_IOcyRC-AUh6F795PfvnwljCtx05wvP4L0lgAh3NNEBcZ8SICDNg_NVYWLco6-RhETZBI2n7STx2-kFH__jrq2UbVkDbw6Vp0W00?></g></svg>