<?xml version="1.0" encoding="UTF-8" standalone="no"?>
<!DOCTYPE svg PUBLIC "-//W3C//DTD SVG 1.1//EN"
 "http://www.w3.org/Graphics/SVG/1.1/DTD/svg11.dtd">
<!-- Generated by graphviz version 2.43.0 (0)
 -->
<!-- Title: blink_led Pages: 1 -->
<svg width="306pt" height="813pt"
 viewBox="0.00 0.00 306.00 813.25" xmlns="http://www.w3.org/2000/svg" xmlns:xlink="http://www.w3.org/1999/xlink">
<g id="graph0" class="graph" transform="scale(1 1) rotate(0) translate(18 795.25)">
<title>blink_led</title>
<polygon fill="#d32f2f" stroke="transparent" points="-18,18 -18,-795.25 288,-795.25 288,18 -18,18"/>
<g id="clust1" class="cluster">
<title>cluster_blink_led</title>
<path fill="#d32f2f" stroke="#d32f2f" stroke-width="3" d="M20,-8C20,-8 250,-8 250,-8 256,-8 262,-14 262,-20 262,-20 262,-757.25 262,-757.25 262,-763.25 256,-769.25 250,-769.25 250,-769.25 20,-769.25 20,-769.25 14,-769.25 8,-763.25 8,-757.25 8,-757.25 8,-20 8,-20 8,-14 14,-8 20,-8"/>
<text text-anchor="middle" x="135" y="-754.05" font-family="Helvetica,sans-Serif" font-size="14.00" fill="#333333">blink_led</text>
</g>
<!-- blink_led_START -->
<g id="node1" class="node">
<title>blink_led_START</title>
<ellipse fill="#d32f2f" stroke="black" stroke-width="1.4" cx="135" cy="-711.63" rx="86.5" ry="22.76"/>
<text text-anchor="middle" x="135" y="-714.83" font-family="Helvetica,sans-Serif" font-size="11.00" fill="#333333">START</text>
<text text-anchor="middle" x="135" y="-702.83" font-family="Helvetica,sans-Serif" font-size="11.00" fill="#333333">blink_led()</text>
</g>
<!-- blink_led_N1 -->
<g id="node3" class="node">
<title>blink_led_N1</title>
<polygon fill="#d32f2f" stroke="black" points="242,-620 28,-620 28,-584 242,-584 242,-620"/>
<text text-anchor="middle" x="135" y="-599.2" font-family="Helvetica,sans-Serif" font-size="11.00" fill="#333333">Initialize led as\nDigitalOut on LED1</text>
</g>
<!-- blink_led_START&#45;&gt;blink_led_N1 -->
<g id="edge1" class="edge">
<title>blink_led_START&#45;&gt;blink_led_N1</title>
<path fill="none" stroke="black" d="M135,-688.91C135,-688.91 135,-628.33 135,-628.33"/>
<polygon fill="black" stroke="black" points="137.8,-628.33 135,-620.33 132.2,-628.33 137.8,-628.33"/>
</g>
<!-- blink_led_END -->
<g id="node2" class="node">
<title>blink_led_END</title>
<ellipse fill="#d32f2f" stroke="black" stroke-width="1.2" cx="126" cy="-38" rx="65" ry="18"/>
<text text-anchor="middle" x="126" y="-35.2" font-family="Helvetica,sans-Serif" font-size="11.00" fill="#333333">blink_led_end</text>
</g>
<!-- blink_led_N2 -->
<g id="node4" class="node">
<title>blink_led_N2</title>
<polygon fill="#d32f2f" stroke="black" stroke-width="1.1" points="135,-515 20,-482.5 135,-450 250,-482.5 135,-515"/>
<text text-anchor="middle" x="135" y="-479.7" font-family="Helvetica,sans-Serif" font-size="11.00" fill="#333333">[RUNTIME] while (true)?</text>
</g>
<!-- blink_led_N1&#45;&gt;blink_led_N2 -->
<g id="edge2" class="edge">
<title>blink_led_N1&#45;&gt;blink_led_N2</title>
<path fill="none" stroke="black" d="M135,-583.85C135,-583.85 135,-523.28 135,-523.28"/>
<polygon fill="black" stroke="black" points="137.8,-523.28 135,-515.28 132.2,-523.28 137.8,-523.28"/>
</g>
<!-- blink_led_N2&#45;&gt;blink_led_END -->
<g id="edge4" class="edge">
<title>blink_led_N2&#45;&gt;blink_led_END</title>
<path fill="none" stroke="black" stroke-width="1.4" d="M76.25,-466.42C76.25,-466.42 76.25,-57.71 76.25,-57.71"/>
<polygon fill="black" stroke="black" stroke-width="1.4" points="79.05,-57.71 76.25,-49.71 73.45,-57.71 79.05,-57.71"/>
<text text-anchor="middle" x="59" y="-245.5" font-family="Helvetica,sans-Serif" font-size="10.00">No</text>
</g>
<!-- blink_led_N3 -->
<g id="node5" class="node">
<title>blink_led_N3</title>
<polygon fill="#d32f2f" stroke="black" points="242.5,-371 91.5,-371 91.5,-335 242.5,-335 242.5,-371"/>
<text text-anchor="middle" x="167" y="-350.2" font-family="Helvetica,sans-Serif" font-size="11.00" fill="#333333">Toggle led state</text>
</g>
<!-- blink_led_N2&#45;&gt;blink_led_N3 -->
<g id="edge3" class="edge">
<title>blink_led_N2&#45;&gt;blink_led_N3</title>
<path fill="none" stroke="black" stroke-width="1.4" d="M167,-458.75C167,-458.75 167,-379.17 167,-379.17"/>
<polygon fill="black" stroke="black" stroke-width="1.4" points="169.8,-379.17 167,-371.17 164.2,-379.17 169.8,-379.17"/>
<text text-anchor="middle" x="159" y="-408" font-family="Helvetica,sans-Serif" font-size="10.00">Yes</text>
</g>
<!-- blink_led_N4 -->
<g id="node6" class="node">
<title>blink_led_N4</title>
<polygon fill="#d32f2f" stroke="black" points="249.5,-266 98.5,-266 98.5,-230 249.5,-230 249.5,-266"/>
<text text-anchor="middle" x="174" y="-245.2" font-family="Helvetica,sans-Serif" font-size="11.00" fill="#333333">Sleep for 500ms</text>
</g>
<!-- blink_led_N3&#45;&gt;blink_led_N4 -->
<g id="edge5" class="edge">
<title>blink_led_N3&#45;&gt;blink_led_N4</title>
<path fill="none" stroke="black" d="M170.5,-334.71C170.5,-334.71 170.5,-274.08 170.5,-274.08"/>
<polygon fill="black" stroke="black" points="173.3,-274.08 170.5,-266.08 167.7,-274.08 173.3,-274.08"/>
</g>
<!-- blink_led_N5 -->
<g id="node7" class="node">
<title>blink_led_N5</title>
<polygon fill="#d32f2f" stroke="black" points="242.5,-161 91.5,-161 91.5,-125 242.5,-125 242.5,-161"/>
<text text-anchor="middle" x="167" y="-140.2" font-family="Helvetica,sans-Serif" font-size="11.00" fill="#333333">Jump to decision step 2</text>
</g>
<!-- blink_led_N4&#45;&gt;blink_led_N5 -->
<g id="edge6" class="edge">
<title>blink_led_N4&#45;&gt;blink_led_N5</title>
<path fill="none" stroke="black" d="M170.5,-229.71C170.5,-229.71 170.5,-169.08 170.5,-169.08"/>
<polygon fill="black" stroke="black" points="173.3,-169.08 170.5,-161.08 167.7,-169.08 173.3,-169.08"/>
</g>
<!-- blink_led_N5&#45;&gt;blink_led_END -->
<g id="edge7" class="edge">
<title>blink_led_N5&#45;&gt;blink_led_END</title>
<path fill="none" stroke="black" d="M141.25,-124.71C141.25,-124.71 141.25,-63.73 141.25,-63.73"/>
<polygon fill="black" stroke="black" points="144.05,-63.73 141.25,-55.73 138.45,-63.73 144.05,-63.73"/>
</g>
</g>
</svg>
