<?xml version="1.0" encoding="UTF-8" standalone="no"?>
<!DOCTYPE svg PUBLIC "-//W3C//DTD SVG 1.1//EN"
 "http://www.w3.org/Graphics/SVG/1.1/DTD/svg11.dtd">
<!-- Generated by graphviz version 2.43.0 (0)
 -->
<!-- Title: blink_led Pages: 1 -->
<svg width="324pt" height="823pt"
 viewBox="0.00 0.00 324.00 823.25" xmlns="http://www.w3.org/2000/svg" xmlns:xlink="http://www.w3.org/1999/xlink">
<g id="graph0" class="graph" transform="scale(1 1) rotate(0) translate(18 805.25)">
<title>blink_led</title>
<polygon fill="#d32f2f" stroke="transparent" points="-18,18 -18,-805.25 306,-805.25 306,18 -18,18"/>
<g id="clust1" class="cluster">
<title>cluster_blink_led</title>
<path fill="#d32f2f" stroke="#d32f2f" stroke-width="3" d="M20,-8C20,-8 268,-8 268,-8 274,-8 280,-14 280,-20 280,-20 280,-767.25 280,-767.25 280,-773.25 274,-779.25 268,-779.25 268,-779.25 20,-779.25 20,-779.25 14,-779.25 8,-773.25 8,-767.25 8,-767.25 8,-20 8,-20 8,-14 14,-8 20,-8"/>
<text text-anchor="middle" x="144" y="-764.05" font-family="Helvetica,sans-Serif" font-size="14.00" fill="#333333">blink_led</text>
</g>
<!-- blink_led_START -->
<g id="node1" class="node">
<title>blink_led_START</title>
<ellipse fill="#d32f2f" stroke="black" stroke-width="1.4" cx="144" cy="-721.63" rx="86.5" ry="22.76"/>
<text text-anchor="middle" x="144" y="-724.83" font-family="Helvetica,sans-Serif" font-size="11.00" fill="#333333">START</text>
<text text-anchor="middle" x="144" y="-712.83" font-family="Helvetica,sans-Serif" font-size="11.00" fill="#333333">blink_led()</text>
</g>
<!-- blink_led_N1 -->
<g id="node3" class="node">
<title>blink_led_N1</title>
<polygon fill="#d32f2f" stroke="black" stroke-width="1.1" points="144,-630 19.78,-597.5 144,-565 268.22,-597.5 144,-630"/>
<text text-anchor="middle" x="144" y="-594.7" font-family="Helvetica,sans-Serif" font-size="11.00" fill="#333333">[RUNTIME] i &lt; blink_count?</text>
</g>
<!-- blink_led_START&#45;&gt;blink_led_N1 -->
<g id="edge1" class="edge">
<title>blink_led_START&#45;&gt;blink_led_N1</title>
<path fill="none" stroke="black" d="M144,-698.86C144,-698.86 144,-638.41 144,-638.41"/>
<polygon fill="black" stroke="black" points="146.8,-638.41 144,-630.41 141.2,-638.41 146.8,-638.41"/>
</g>
<!-- blink_led_END -->
<g id="node2" class="node">
<title>blink_led_END</title>
<ellipse fill="#d32f2f" stroke="black" stroke-width="1.2" cx="124" cy="-38" rx="65" ry="18"/>
<text text-anchor="middle" x="124" y="-35.2" font-family="Helvetica,sans-Serif" font-size="11.00" fill="#333333">blink_led_end</text>
</g>
<!-- blink_led_N1&#45;&gt;blink_led_END -->
<g id="edge3" class="edge">
<title>blink_led_N1&#45;&gt;blink_led_END</title>
<path fill="none" stroke="black" stroke-width="1.4" d="M71.5,-583.95C71.5,-583.95 71.5,-57 71.5,-57"/>
<polygon fill="black" stroke="black" stroke-width="1.4" points="74.3,-57 71.5,-49 68.7,-57 74.3,-57"/>
<text text-anchor="middle" x="59" y="-303" font-family="Helvetica,sans-Serif" font-size="10.00">No</text>
</g>
<!-- blink_led_N2 -->
<g id="node4" class="node">
<title>blink_led_N2</title>
<polygon fill="#d32f2f" stroke="black" points="243.5,-486 92.5,-486 92.5,-450 243.5,-450 243.5,-486"/>
<text text-anchor="middle" x="168" y="-465.2" font-family="Helvetica,sans-Serif" font-size="11.00" fill="#333333">led = !led</text>
</g>
<!-- blink_led_N1&#45;&gt;blink_led_N2 -->
<g id="edge2" class="edge">
<title>blink_led_N1&#45;&gt;blink_led_N2</title>
<path fill="none" stroke="black" stroke-width="1.4" d="M168,-570.98C168,-570.98 168,-494.15 168,-494.15"/>
<polygon fill="black" stroke="black" stroke-width="1.4" points="170.8,-494.15 168,-486.15 165.2,-494.15 170.8,-494.15"/>
<text text-anchor="middle" x="164" y="-523" font-family="Helvetica,sans-Serif" font-size="10.00">Yes</text>
</g>
<!-- blink_led_N3 -->
<g id="node5" class="node">
<title>blink_led_N3</title>
<polygon fill="#d32f2f" stroke="black" points="268,-381 84,-381 84,-345 268,-345 268,-381"/>
<text text-anchor="middle" x="176" y="-360.2" font-family="Helvetica,sans-Serif" font-size="11.00" fill="#333333">ThisThread::sleep_for(50ms\n)</text>
</g>
<!-- blink_led_N2&#45;&gt;blink_led_N3 -->
<g id="edge4" class="edge">
<title>blink_led_N2&#45;&gt;blink_led_N3</title>
<path fill="none" stroke="black" d="M168,-449.71C168,-449.71 168,-389.08 168,-389.08"/>
<polygon fill="black" stroke="black" points="170.8,-389.08 168,-381.08 165.2,-389.08 170.8,-389.08"/>
</g>
<!-- blink_led_N4 -->
<g id="node6" class="node">
<title>blink_led_N4</title>
<polygon fill="#d32f2f" stroke="black" points="243.5,-266 92.5,-266 92.5,-230 243.5,-230 243.5,-266"/>
<text text-anchor="middle" x="168" y="-245.2" font-family="Helvetica,sans-Serif" font-size="11.00" fill="#333333">i++</text>
</g>
<!-- blink_led_N3&#45;&gt;blink_led_N4 -->
<g id="edge5" class="edge">
<title>blink_led_N3&#45;&gt;blink_led_N4</title>
<path fill="none" stroke="black" d="M168,-344.78C168,-344.78 168,-274.14 168,-274.14"/>
<polygon fill="black" stroke="black" points="170.8,-274.14 168,-266.14 165.2,-274.14 170.8,-274.14"/>
</g>
<!-- blink_led_N5 -->
<g id="node7" class="node">
<title>blink_led_N5</title>
<polygon fill="#d32f2f" stroke="black" points="239.5,-161 88.5,-161 88.5,-125 239.5,-125 239.5,-161"/>
<text text-anchor="middle" x="164" y="-140.2" font-family="Helvetica,sans-Serif" font-size="11.00" fill="#333333">back to loop_condition</text>
</g>
<!-- blink_led_N4&#45;&gt;blink_led_N5 -->
<g id="edge6" class="edge">
<title>blink_led_N4&#45;&gt;blink_led_N5</title>
<path fill="none" stroke="black" d="M166,-229.71C166,-229.71 166,-169.08 166,-169.08"/>
<polygon fill="black" stroke="black" points="168.8,-169.08 166,-161.08 163.2,-169.08 168.8,-169.08"/>
</g>
<!-- blink_led_N5&#45;&gt;blink_led_END -->
<g id="edge7" class="edge">
<title>blink_led_N5&#45;&gt;blink_led_END</title>
<path fill="none" stroke="black" d="M138.75,-124.71C138.75,-124.71 138.75,-63.73 138.75,-63.73"/>
<polygon fill="black" stroke="black" points="141.55,-63.73 138.75,-55.73 135.95,-63.73 141.55,-63.73"/>
</g>
</g>
</svg>
