<?xml version="1.0" encoding="UTF-8" standalone="no"?>
<!DOCTYPE svg PUBLIC "-//W3C//DTD SVG 1.1//EN"
 "http://www.w3.org/Graphics/SVG/1.1/DTD/svg11.dtd">
<!-- Generated by graphviz version 2.43.0 (0)
 -->
<!-- Title: blink_led Pages: 1 -->
<svg width="448pt" height="813pt"
 viewBox="0.00 0.00 448.00 813.25" xmlns="http://www.w3.org/2000/svg" xmlns:xlink="http://www.w3.org/1999/xlink">
<g id="graph0" class="graph" transform="scale(1 1) rotate(0) translate(18 795.25)">
<title>blink_led</title>
<polygon fill="#ffffff" stroke="transparent" points="-18,18 -18,-795.25 430,-795.25 430,18 -18,18"/>
<g id="clust1" class="cluster">
<title>cluster_blink_led</title>
<path fill="#ffffff" stroke="#ffffff" stroke-width="1.2" d="M20,-8C20,-8 392,-8 392,-8 398,-8 404,-14 404,-20 404,-20 404,-757.25 404,-757.25 404,-763.25 398,-769.25 392,-769.25 392,-769.25 20,-769.25 20,-769.25 14,-769.25 8,-763.25 8,-757.25 8,-757.25 8,-20 8,-20 8,-14 14,-8 20,-8"/>
<text text-anchor="middle" x="206" y="-754.05" font-family="Helvetica,sans-Serif" font-size="14.00" fill="#333333">blink_led</text>
</g>
<!-- blink_led_START -->
<g id="node1" class="node">
<title>blink_led_START</title>
<ellipse fill="#ffffff" stroke="black" stroke-width="1.4" cx="153" cy="-711.63" rx="86.5" ry="22.76"/>
<text text-anchor="middle" x="153" y="-714.83" font-family="Helvetica,sans-Serif" font-size="11.00" fill="#333333">START</text>
<text text-anchor="middle" x="153" y="-702.83" font-family="Helvetica,sans-Serif" font-size="11.00" fill="#333333">blink_led()</text>
</g>
<!-- blink_led_N1 -->
<g id="node3" class="node">
<title>blink_led_N1</title>
<polygon fill="#ffffff" stroke="black" points="245.5,-620 60.5,-620 60.5,-584 245.5,-584 245.5,-620"/>
<text text-anchor="middle" x="153" y="-599.2" font-family="Helvetica,sans-Serif" font-size="11.00" fill="#333333">Initialize DigitalOut\nled(LED1)</text>
</g>
<!-- blink_led_START&#45;&gt;blink_led_N1 -->
<g id="edge1" class="edge">
<title>blink_led_START&#45;&gt;blink_led_N1</title>
<path fill="none" stroke="black" d="M153,-688.91C153,-688.91 153,-628.33 153,-628.33"/>
<polygon fill="black" stroke="black" points="155.8,-628.33 153,-620.33 150.2,-628.33 155.8,-628.33"/>
</g>
<!-- blink_led_END -->
<g id="node2" class="node">
<title>blink_led_END</title>
<ellipse fill="#ffffff" stroke="black" stroke-width="1.2" cx="144" cy="-38" rx="65" ry="18"/>
<text text-anchor="middle" x="144" y="-35.2" font-family="Helvetica,sans-Serif" font-size="11.00" fill="#333333">blink_led_end</text>
</g>
<!-- blink_led_N2 -->
<g id="node4" class="node">
<title>blink_led_N2</title>
<polygon fill="#ffffff" stroke="black" stroke-width="1.1" points="153,-515 38,-482.5 153,-450 268,-482.5 153,-515"/>
<text text-anchor="middle" x="153" y="-479.7" font-family="Helvetica,sans-Serif" font-size="11.00" fill="#333333">[RUNTIME] while (true)</text>
</g>
<!-- blink_led_N1&#45;&gt;blink_led_N2 -->
<g id="edge2" class="edge">
<title>blink_led_N1&#45;&gt;blink_led_N2</title>
<path fill="none" stroke="black" d="M153,-583.85C153,-583.85 153,-523.28 153,-523.28"/>
<polygon fill="black" stroke="black" points="155.8,-523.28 153,-515.28 150.2,-523.28 155.8,-523.28"/>
</g>
<!-- blink_led_N2&#45;&gt;blink_led_END -->
<g id="edge4" class="edge">
<title>blink_led_N2&#45;&gt;blink_led_END</title>
<path fill="none" stroke="black" stroke-width="1.4" d="M88.5,-468.21C88.5,-468.21 88.5,-55.54 88.5,-55.54"/>
<polygon fill="black" stroke="black" stroke-width="1.4" points="91.3,-55.54 88.5,-47.54 85.7,-55.54 91.3,-55.54"/>
<text text-anchor="middle" x="59" y="-245.5" font-family="Helvetica,sans-Serif" font-size="10.00">No</text>
</g>
<!-- blink_led_N3 -->
<g id="node5" class="node">
<title>blink_led_N3</title>
<polygon fill="#ffffff" stroke="black" points="294,-371 122,-371 122,-335 294,-335 294,-371"/>
<text text-anchor="middle" x="208" y="-350.2" font-family="Helvetica,sans-Serif" font-size="11.00" fill="#333333">Toggle led state: led =\n!led</text>
</g>
<!-- blink_led_N2&#45;&gt;blink_led_N3 -->
<g id="edge3" class="edge">
<title>blink_led_N2&#45;&gt;blink_led_N3</title>
<path fill="none" stroke="black" stroke-width="1.4" d="M195,-461.69C195,-461.69 195,-379.24 195,-379.24"/>
<polygon fill="black" stroke="black" stroke-width="1.4" points="197.8,-379.24 195,-371.24 192.2,-379.24 197.8,-379.24"/>
<text text-anchor="middle" x="188" y="-408" font-family="Helvetica,sans-Serif" font-size="10.00">Yes</text>
</g>
<!-- blink_led_N4 -->
<g id="node6" class="node">
<title>blink_led_N4</title>
<polygon fill="#ffffff" stroke="black" points="392,-266 98,-266 98,-230 392,-230 392,-266"/>
<text text-anchor="middle" x="245" y="-245.2" font-family="Helvetica,sans-Serif" font-size="11.00" fill="#333333">Sleep for 500ms:\nThisThread::sleep_for(500m\ns)</text>
</g>
<!-- blink_led_N3&#45;&gt;blink_led_N4 -->
<g id="edge5" class="edge">
<title>blink_led_N3&#45;&gt;blink_led_N4</title>
<path fill="none" stroke="black" d="M208,-334.71C208,-334.71 208,-274.08 208,-274.08"/>
<polygon fill="black" stroke="black" points="210.8,-274.08 208,-266.08 205.2,-274.08 210.8,-274.08"/>
</g>
<!-- blink_led_N5 -->
<g id="node7" class="node">
<title>blink_led_N5</title>
<path fill="#ffffff" stroke="black" stroke-width="1.2" d="M266.5,-161C266.5,-161 139.5,-161 139.5,-161 133.5,-161 127.5,-155 127.5,-149 127.5,-149 127.5,-137 127.5,-137 127.5,-131 133.5,-125 139.5,-125 139.5,-125 266.5,-125 266.5,-125 272.5,-125 278.5,-131 278.5,-137 278.5,-137 278.5,-149 278.5,-149 278.5,-155 272.5,-161 266.5,-161"/>
<text text-anchor="middle" x="203" y="-140.2" font-family="Helvetica,sans-Serif" font-size="11.00" fill="#333333">call blink_led()</text>
</g>
<!-- blink_led_N4&#45;&gt;blink_led_N5 -->
<g id="edge6" class="edge">
<title>blink_led_N4&#45;&gt;blink_led_N5</title>
<path fill="none" stroke="black" d="M203,-229.71C203,-229.71 203,-169.08 203,-169.08"/>
<polygon fill="black" stroke="black" points="205.8,-169.08 203,-161.08 200.2,-169.08 205.8,-169.08"/>
</g>
<!-- blink_led_N5&#45;&gt;blink_led_END -->
<g id="edge7" class="edge">
<title>blink_led_N5&#45;&gt;blink_led_END</title>
<path fill="none" stroke="black" d="M168.25,-124.71C168.25,-124.71 168.25,-63.04 168.25,-63.04"/>
<polygon fill="black" stroke="black" points="171.05,-63.04 168.25,-55.04 165.45,-63.04 171.05,-63.04"/>
</g>
</g>
</svg>
