<?xml version="1.0" encoding="UTF-8" standalone="no"?>
<!DOCTYPE svg PUBLIC "-//W3C//DTD SVG 1.1//EN"
 "http://www.w3.org/Graphics/SVG/1.1/DTD/svg11.dtd">
<!-- Generated by graphviz version 2.43.0 (0)
 -->
<!-- Title: main Pages: 1 -->
<svg width="514pt" height="1751pt"
 viewBox="0.00 0.00 514.00 1751.25" xmlns="http://www.w3.org/2000/svg" xmlns:xlink="http://www.w3.org/1999/xlink">
<g id="graph0" class="graph" transform="scale(1 1) rotate(0) translate(18 1733.25)">
<title>main</title>
<polygon fill="#d32f2f" stroke="transparent" points="-18,18 -18,-1733.25 496,-1733.25 496,18 -18,18"/>
<g id="clust1" class="cluster">
<title>cluster_main</title>
<path fill="#d32f2f" stroke="#d32f2f" stroke-width="3" d="M20,-8C20,-8 458,-8 458,-8 464,-8 470,-14 470,-20 470,-20 470,-1695.25 470,-1695.25 470,-1701.25 464,-1707.25 458,-1707.25 458,-1707.25 20,-1707.25 20,-1707.25 14,-1707.25 8,-1701.25 8,-1695.25 8,-1695.25 8,-20 8,-20 8,-14 14,-8 20,-8"/>
<text text-anchor="middle" x="239" y="-1692.05" font-family="Helvetica,sans-Serif" font-size="14.00" fill="#333333">main</text>
</g>
<!-- main_START -->
<g id="node1" class="node">
<title>main_START</title>
<ellipse fill="#d32f2f" stroke="black" stroke-width="1.4" cx="239" cy="-1649.63" rx="86.5" ry="22.76"/>
<text text-anchor="middle" x="239" y="-1652.83" font-family="Helvetica,sans-Serif" font-size="11.00" fill="#333333">START</text>
<text text-anchor="middle" x="239" y="-1640.83" font-family="Helvetica,sans-Serif" font-size="11.00" fill="#333333">main()</text>
</g>
<!-- main_N1 -->
<g id="node3" class="node">
<title>main_N1</title>
<polygon fill="#d32f2f" stroke="black" stroke-width="1.1" points="239,-1558 19.54,-1525.5 239,-1493 458.46,-1525.5 239,-1558"/>
<text text-anchor="middle" x="239" y="-1522.7" font-family="Helvetica,sans-Serif" font-size="11.00" fill="#333333">[COMPILE] !defined(LED1) ||\n!defined(BUTTON1)?</text>
</g>
<!-- main_START&#45;&gt;main_N1 -->
<g id="edge1" class="edge">
<title>main_START&#45;&gt;main_N1</title>
<path fill="none" stroke="black" d="M239,-1626.86C239,-1626.86 239,-1566.41 239,-1566.41"/>
<polygon fill="black" stroke="black" points="241.8,-1566.41 239,-1558.41 236.2,-1566.41 241.8,-1566.41"/>
</g>
<!-- main_END -->
<g id="node2" class="node">
<title>main_END</title>
<ellipse fill="#d32f2f" stroke="black" stroke-width="1.2" cx="358" cy="-1396" rx="65" ry="18"/>
<text text-anchor="middle" x="358" y="-1393.2" font-family="Helvetica,sans-Serif" font-size="11.00" fill="#333333">main_end</text>
</g>
<!-- main_N2 -->
<g id="node4" class="node">
<title>main_N2</title>
<polygon fill="#d32f2f" stroke="black" points="330,-1309 148,-1309 148,-1273 330,-1273 330,-1309"/>
<text text-anchor="middle" x="239" y="-1288.2" font-family="Helvetica,sans-Serif" font-size="11.00" fill="#333333">Initialize led with LED1\nand 0</text>
</g>
<!-- main_END&#45;&gt;main_N2 -->
<g id="edge4" class="edge">
<title>main_END&#45;&gt;main_N2</title>
<path fill="none" stroke="black" d="M311.5,-1383.12C311.5,-1383.12 311.5,-1317.27 311.5,-1317.27"/>
<polygon fill="black" stroke="black" points="314.3,-1317.27 311.5,-1309.27 308.7,-1317.27 314.3,-1317.27"/>
</g>
<!-- main_N1&#45;&gt;main_END -->
<g id="edge2" class="edge">
<title>main_N1&#45;&gt;main_END</title>
<path fill="none" stroke="black" stroke-width="1.4" d="M358,-1510.39C358,-1510.39 358,-1422.34 358,-1422.34"/>
<polygon fill="black" stroke="black" stroke-width="1.4" points="360.8,-1422.34 358,-1414.34 355.2,-1422.34 360.8,-1422.34"/>
<text text-anchor="middle" x="330" y="-1451" font-family="Helvetica,sans-Serif" font-size="10.00">Yes</text>
</g>
<!-- main_N1&#45;&gt;main_N2 -->
<g id="edge3" class="edge">
<title>main_N1&#45;&gt;main_N2</title>
<path fill="none" stroke="black" stroke-width="1.4" d="M220.5,-1495.32C220.5,-1495.32 220.5,-1317.25 220.5,-1317.25"/>
<polygon fill="black" stroke="black" stroke-width="1.4" points="223.3,-1317.25 220.5,-1309.25 217.7,-1317.25 223.3,-1317.25"/>
<text text-anchor="middle" x="246" y="-1393.5" font-family="Helvetica,sans-Serif" font-size="10.00">No</text>
</g>
<!-- main_N3 -->
<g id="node5" class="node">
<title>main_N3</title>
<polygon fill="#d32f2f" stroke="black" points="332.5,-1204 77.5,-1204 77.5,-1168 332.5,-1168 332.5,-1204"/>
<text text-anchor="middle" x="205" y="-1183.2" font-family="Helvetica,sans-Serif" font-size="11.00" fill="#333333">Initialize button with\nBUTTON1 and PullUp</text>
</g>
<!-- main_N2&#45;&gt;main_N3 -->
<g id="edge5" class="edge">
<title>main_N2&#45;&gt;main_N3</title>
<path fill="none" stroke="black" d="M239,-1272.71C239,-1272.71 239,-1212.08 239,-1212.08"/>
<polygon fill="black" stroke="black" points="241.8,-1212.08 239,-1204.08 236.2,-1212.08 241.8,-1212.08"/>
</g>
<!-- main_N4 -->
<g id="node6" class="node">
<title>main_N4</title>
<polygon fill="#d32f2f" stroke="black" points="282.5,-1089 131.5,-1089 131.5,-1053 282.5,-1053 282.5,-1089"/>
<text text-anchor="middle" x="207" y="-1068.2" font-family="Helvetica,sans-Serif" font-size="11.00" fill="#333333">Set blink_count to 0</text>
</g>
<!-- main_N3&#45;&gt;main_N4 -->
<g id="edge6" class="edge">
<title>main_N3&#45;&gt;main_N4</title>
<path fill="none" stroke="black" d="M207,-1167.78C207,-1167.78 207,-1097.14 207,-1097.14"/>
<polygon fill="black" stroke="black" points="209.8,-1097.14 207,-1089.14 204.2,-1097.14 209.8,-1097.14"/>
</g>
<!-- main_N5 -->
<g id="node7" class="node">
<title>main_N5</title>
<polygon fill="#d32f2f" stroke="black" points="305,-984 119,-984 119,-948 305,-948 305,-984"/>
<text text-anchor="middle" x="212" y="-963.2" font-family="Helvetica,sans-Serif" font-size="11.00" fill="#333333">Set previous_pressed to\nfalse</text>
</g>
<!-- main_N4&#45;&gt;main_N5 -->
<g id="edge7" class="edge">
<title>main_N4&#45;&gt;main_N5</title>
<path fill="none" stroke="black" d="M207,-1052.71C207,-1052.71 207,-992.08 207,-992.08"/>
<polygon fill="black" stroke="black" points="209.8,-992.08 207,-984.08 204.2,-992.08 209.8,-992.08"/>
</g>
<!-- main_N6 -->
<g id="node8" class="node">
<title>main_N6</title>
<polygon fill="#d32f2f" stroke="black" stroke-width="1.1" points="213,-879 98,-846.5 213,-814 328,-846.5 213,-879"/>
<text text-anchor="middle" x="213" y="-843.7" font-family="Helvetica,sans-Serif" font-size="11.00" fill="#333333">[RUNTIME] true?</text>
</g>
<!-- main_N5&#45;&gt;main_N6 -->
<g id="edge8" class="edge">
<title>main_N5&#45;&gt;main_N6</title>
<path fill="none" stroke="black" d="M212,-947.85C212,-947.85 212,-886.81 212,-886.81"/>
<polygon fill="black" stroke="black" points="214.8,-886.81 212,-878.81 209.2,-886.81 214.8,-886.81"/>
</g>
<!-- main_N6&#45;&gt;main_END -->
<g id="edge10" class="edge">
<title>main_N6&#45;&gt;main_END</title>
<path fill="none" stroke="black" stroke-width="1.4" d="M326.63,-846C350.88,-846 369.36,-846 369.36,-846 369.36,-846 369.36,-1370.01 369.36,-1370.01"/>
<polygon fill="black" stroke="black" stroke-width="1.4" points="366.56,-1370.01 369.36,-1378.01 372.16,-1370.01 366.56,-1370.01"/>
<text text-anchor="middle" x="373" y="-1126" font-family="Helvetica,sans-Serif" font-size="10.00">No</text>
</g>
<!-- main_N7 -->
<g id="node9" class="node">
<title>main_N7</title>
<polygon fill="#d32f2f" stroke="black" points="310.5,-735 115.5,-735 115.5,-699 310.5,-699 310.5,-735"/>
<text text-anchor="middle" x="213" y="-714.2" font-family="Helvetica,sans-Serif" font-size="11.00" fill="#333333">Read button state into\npressed</text>
</g>
<!-- main_N6&#45;&gt;main_N7 -->
<g id="edge9" class="edge">
<title>main_N6&#45;&gt;main_N7</title>
<path fill="none" stroke="black" stroke-width="1.4" d="M213,-813.82C213,-813.82 213,-743.26 213,-743.26"/>
<polygon fill="black" stroke="black" stroke-width="1.4" points="215.8,-743.26 213,-735.26 210.2,-743.26 215.8,-743.26"/>
<text text-anchor="middle" x="221" y="-772" font-family="Helvetica,sans-Serif" font-size="10.00">Yes</text>
</g>
<!-- main_N8 -->
<g id="node10" class="node">
<title>main_N8</title>
<polygon fill="#d32f2f" stroke="black" stroke-width="1.1" points="213,-630 19.56,-597.5 213,-565 406.44,-597.5 213,-630"/>
<text text-anchor="middle" x="213" y="-594.7" font-family="Helvetica,sans-Serif" font-size="11.00" fill="#333333">[RUNTIME] pressed &amp;&amp;\n!previous_pressed?</text>
</g>
<!-- main_N7&#45;&gt;main_N8 -->
<g id="edge11" class="edge">
<title>main_N7&#45;&gt;main_N8</title>
<path fill="none" stroke="black" d="M213,-698.85C213,-698.85 213,-638.28 213,-638.28"/>
<polygon fill="black" stroke="black" points="215.8,-638.28 213,-630.28 210.2,-638.28 215.8,-638.28"/>
</g>
<!-- main_N9 -->
<g id="node11" class="node">
<title>main_N9</title>
<polygon fill="#d32f2f" stroke="black" points="279.5,-486 128.5,-486 128.5,-450 279.5,-450 279.5,-486"/>
<text text-anchor="middle" x="204" y="-465.2" font-family="Helvetica,sans-Serif" font-size="11.00" fill="#333333">Toggle led state</text>
</g>
<!-- main_N8&#45;&gt;main_N9 -->
<g id="edge12" class="edge">
<title>main_N8&#45;&gt;main_N9</title>
<path fill="none" stroke="black" stroke-width="1.4" d="M204,-566.48C204,-566.48 204,-494.37 204,-494.37"/>
<polygon fill="black" stroke="black" stroke-width="1.4" points="206.8,-494.37 204,-486.37 201.2,-494.37 206.8,-494.37"/>
<text text-anchor="middle" x="217" y="-523" font-family="Helvetica,sans-Serif" font-size="10.00">Yes</text>
</g>
<!-- main_N11 -->
<g id="node13" class="node">
<title>main_N11</title>
<polygon fill="#d32f2f" stroke="black" points="405.5,-266 202.5,-266 202.5,-230 405.5,-230 405.5,-266"/>
<text text-anchor="middle" x="304" y="-245.2" font-family="Helvetica,sans-Serif" font-size="11.00" fill="#333333">Set previous_pressed to\npressed</text>
</g>
<!-- main_N8&#45;&gt;main_N11 -->
<g id="edge13" class="edge">
<title>main_N8&#45;&gt;main_N11</title>
<path fill="none" stroke="black" stroke-width="1.4" d="M342.5,-586.66C342.5,-586.66 342.5,-274.14 342.5,-274.14"/>
<polygon fill="black" stroke="black" stroke-width="1.4" points="345.3,-274.14 342.5,-266.14 339.7,-274.14 345.3,-274.14"/>
<text text-anchor="middle" x="320" y="-408" font-family="Helvetica,sans-Serif" font-size="10.00">No</text>
</g>
<!-- main_N10 -->
<g id="node12" class="node">
<title>main_N10</title>
<polygon fill="#d32f2f" stroke="black" points="279.5,-371 128.5,-371 128.5,-335 279.5,-335 279.5,-371"/>
<text text-anchor="middle" x="204" y="-350.2" font-family="Helvetica,sans-Serif" font-size="11.00" fill="#333333">Sleep for 50ms</text>
</g>
<!-- main_N9&#45;&gt;main_N10 -->
<g id="edge14" class="edge">
<title>main_N9&#45;&gt;main_N10</title>
<path fill="none" stroke="black" d="M204,-449.78C204,-449.78 204,-379.14 204,-379.14"/>
<polygon fill="black" stroke="black" points="206.8,-379.14 204,-371.14 201.2,-379.14 206.8,-379.14"/>
</g>
<!-- main_N10&#45;&gt;main_N11 -->
<g id="edge15" class="edge">
<title>main_N10&#45;&gt;main_N11</title>
<path fill="none" stroke="black" d="M241,-334.71C241,-334.71 241,-274.08 241,-274.08"/>
<polygon fill="black" stroke="black" points="243.8,-274.08 241,-266.08 238.2,-274.08 243.8,-274.08"/>
</g>
<!-- main_N12 -->
<g id="node14" class="node">
<title>main_N12</title>
<polygon fill="#d32f2f" stroke="black" points="392.5,-161 241.5,-161 241.5,-125 392.5,-125 392.5,-161"/>
<text text-anchor="middle" x="317" y="-140.2" font-family="Helvetica,sans-Serif" font-size="11.00" fill="#333333">Sleep for 10ms</text>
</g>
<!-- main_N11&#45;&gt;main_N12 -->
<g id="edge16" class="edge">
<title>main_N11&#45;&gt;main_N12</title>
<path fill="none" stroke="black" d="M317,-229.71C317,-229.71 317,-169.08 317,-169.08"/>
<polygon fill="black" stroke="black" points="319.8,-169.08 317,-161.08 314.2,-169.08 319.8,-169.08"/>
</g>
<!-- main_N13 -->
<g id="node15" class="node">
<title>main_N13</title>
<path fill="#d32f2f" stroke="black" stroke-width="1.2" d="M413.5,-56C413.5,-56 286.5,-56 286.5,-56 280.5,-56 274.5,-50 274.5,-44 274.5,-44 274.5,-32 274.5,-32 274.5,-26 280.5,-20 286.5,-20 286.5,-20 413.5,-20 413.5,-20 419.5,-20 425.5,-26 425.5,-32 425.5,-32 425.5,-44 425.5,-44 425.5,-50 419.5,-56 413.5,-56"/>
<text text-anchor="middle" x="350" y="-35.2" font-family="Helvetica,sans-Serif" font-size="11.00" fill="#333333">call main()</text>
</g>
<!-- main_N12&#45;&gt;main_N13 -->
<g id="edge17" class="edge">
<title>main_N12&#45;&gt;main_N13</title>
<path fill="none" stroke="black" d="M333.5,-124.71C333.5,-124.71 333.5,-64.08 333.5,-64.08"/>
<polygon fill="black" stroke="black" points="336.3,-64.08 333.5,-56.08 330.7,-64.08 336.3,-64.08"/>
</g>
<!-- main_N13&#45;&gt;main_END -->
<g id="edge18" class="edge">
<title>main_N13&#45;&gt;main_END</title>
<path fill="none" stroke="black" d="M414.61,-56.17C414.61,-56.17 414.61,-1378.83 414.61,-1378.83"/>
<polygon fill="black" stroke="black" points="411.81,-1378.83 414.61,-1386.83 417.41,-1378.83 411.81,-1378.83"/>
</g>
</g>
</svg>
