<?xml version="1.0" encoding="UTF-8" standalone="no"?>
<!DOCTYPE svg PUBLIC "-//W3C//DTD SVG 1.1//EN"
 "http://www.w3.org/Graphics/SVG/1.1/DTD/svg11.dtd">
<!-- Generated by graphviz version 2.43.0 (0)
 -->
<!-- Title: main Pages: 1 -->
<svg width="490pt" height="1443pt"
 viewBox="0.00 0.00 490.00 1443.25" xmlns="http://www.w3.org/2000/svg" xmlns:xlink="http://www.w3.org/1999/xlink">
<g id="graph0" class="graph" transform="scale(1 1) rotate(0) translate(18 1425.25)">
<title>main</title>
<polygon fill="#ffffff" stroke="transparent" points="-18,18 -18,-1425.25 472,-1425.25 472,18 -18,18"/>
<g id="clust1" class="cluster">
<title>cluster_main</title>
<path fill="#ffffff" stroke="#d32f2f" stroke-width="3" d="M20,-8C20,-8 434,-8 434,-8 440,-8 446,-14 446,-20 446,-20 446,-1387.25 446,-1387.25 446,-1393.25 440,-1399.25 434,-1399.25 434,-1399.25 20,-1399.25 20,-1399.25 14,-1399.25 8,-1393.25 8,-1387.25 8,-1387.25 8,-20 8,-20 8,-14 14,-8 20,-8"/>
<text text-anchor="middle" x="227" y="-1384.05" font-family="Helvetica,sans-Serif" font-size="14.00" fill="#d32f2f">main</text>
</g>
<!-- main_START -->
<g id="node1" class="node">
<title>main_START</title>
<ellipse fill="#ffffff" stroke="black" stroke-width="1.4" cx="227" cy="-1341.63" rx="86.5" ry="22.76"/>
<text text-anchor="middle" x="227" y="-1344.83" font-family="Helvetica,sans-Serif" font-size="11.00" fill="#333333">START</text>
<text text-anchor="middle" x="227" y="-1332.83" font-family="Helvetica,sans-Serif" font-size="11.00" fill="#333333">main()</text>
</g>
<!-- main_N1 -->
<g id="node3" class="node">
<title>main_N1</title>
<polygon fill="#ffffff" stroke="black" points="351,-1250 103,-1250 103,-1214 351,-1214 351,-1250"/>
<text text-anchor="middle" x="227" y="-1229.2" font-family="Helvetica,sans-Serif" font-size="11.00" fill="#333333">Check for LED1 and BUTTON1\ndefinitions</text>
</g>
<!-- main_START&#45;&gt;main_N1 -->
<g id="edge1" class="edge">
<title>main_START&#45;&gt;main_N1</title>
<path fill="none" stroke="black" d="M227,-1318.91C227,-1318.91 227,-1258.33 227,-1258.33"/>
<polygon fill="black" stroke="black" points="229.8,-1258.33 227,-1250.33 224.2,-1258.33 229.8,-1258.33"/>
</g>
<!-- main_END -->
<g id="node2" class="node">
<title>main_END</title>
<ellipse fill="#ffffff" stroke="black" stroke-width="1.2" cx="181" cy="-38" rx="65" ry="18"/>
<text text-anchor="middle" x="181" y="-35.2" font-family="Helvetica,sans-Serif" font-size="11.00" fill="#333333">main_end</text>
</g>
<!-- main_N2 -->
<g id="node4" class="node">
<title>main_N2</title>
<path fill="#ffffff" stroke="black" stroke-width="1.2" d="M314,-1145C314,-1145 140,-1145 140,-1145 134,-1145 128,-1139 128,-1133 128,-1133 128,-1121 128,-1121 128,-1115 134,-1109 140,-1109 140,-1109 314,-1109 314,-1109 320,-1109 326,-1115 326,-1121 326,-1121 326,-1133 326,-1133 326,-1139 320,-1145 314,-1145"/>
<text text-anchor="middle" x="227" y="-1124.2" font-family="Helvetica,sans-Serif" font-size="11.00" fill="#333333">call Initialize led with\nDigitalOut</text>
</g>
<!-- main_N1&#45;&gt;main_N2 -->
<g id="edge2" class="edge">
<title>main_N1&#45;&gt;main_N2</title>
<path fill="none" stroke="black" d="M227,-1213.71C227,-1213.71 227,-1153.08 227,-1153.08"/>
<polygon fill="black" stroke="black" points="229.8,-1153.08 227,-1145.08 224.2,-1153.08 229.8,-1153.08"/>
</g>
<!-- main_N3 -->
<g id="node5" class="node">
<title>main_N3</title>
<path fill="#ffffff" stroke="black" stroke-width="1.2" d="M318.5,-1040C318.5,-1040 135.5,-1040 135.5,-1040 129.5,-1040 123.5,-1034 123.5,-1028 123.5,-1028 123.5,-1016 123.5,-1016 123.5,-1010 129.5,-1004 135.5,-1004 135.5,-1004 318.5,-1004 318.5,-1004 324.5,-1004 330.5,-1010 330.5,-1016 330.5,-1016 330.5,-1028 330.5,-1028 330.5,-1034 324.5,-1040 318.5,-1040"/>
<text text-anchor="middle" x="227" y="-1019.2" font-family="Helvetica,sans-Serif" font-size="11.00" fill="#333333">call Initialize button with\nDigitalIn</text>
</g>
<!-- main_N2&#45;&gt;main_N3 -->
<g id="edge3" class="edge">
<title>main_N2&#45;&gt;main_N3</title>
<path fill="none" stroke="black" d="M227,-1108.71C227,-1108.71 227,-1048.08 227,-1048.08"/>
<polygon fill="black" stroke="black" points="229.8,-1048.08 227,-1040.08 224.2,-1048.08 229.8,-1048.08"/>
</g>
<!-- main_N4 -->
<g id="node6" class="node">
<title>main_N4</title>
<polygon fill="#ffffff" stroke="black" points="320,-935 134,-935 134,-899 320,-899 320,-935"/>
<text text-anchor="middle" x="227" y="-914.2" font-family="Helvetica,sans-Serif" font-size="11.00" fill="#333333">Set previous_pressed to\nfalse</text>
</g>
<!-- main_N3&#45;&gt;main_N4 -->
<g id="edge4" class="edge">
<title>main_N3&#45;&gt;main_N4</title>
<path fill="none" stroke="black" d="M227,-1003.71C227,-1003.71 227,-943.08 227,-943.08"/>
<polygon fill="black" stroke="black" points="229.8,-943.08 227,-935.08 224.2,-943.08 229.8,-943.08"/>
</g>
<!-- main_N5 -->
<g id="node7" class="node">
<title>main_N5</title>
<polygon fill="#ffffff" stroke="black" stroke-width="1.1" points="227,-830 19.82,-797.5 227,-765 434.18,-797.5 227,-830"/>
<text text-anchor="middle" x="227" y="-794.7" font-family="Helvetica,sans-Serif" font-size="11.00" fill="#333333">Is button pressed and not\npreviously pressed?</text>
</g>
<!-- main_N4&#45;&gt;main_N5 -->
<g id="edge5" class="edge">
<title>main_N4&#45;&gt;main_N5</title>
<path fill="none" stroke="black" d="M227,-898.85C227,-898.85 227,-838.28 227,-838.28"/>
<polygon fill="black" stroke="black" points="229.8,-838.28 227,-830.28 224.2,-838.28 229.8,-838.28"/>
</g>
<!-- main_N6 -->
<g id="node8" class="node">
<title>main_N6</title>
<polygon fill="#ffffff" stroke="black" points="181.5,-686 30.5,-686 30.5,-650 181.5,-650 181.5,-686"/>
<text text-anchor="middle" x="106" y="-665.2" font-family="Helvetica,sans-Serif" font-size="11.00" fill="#333333">Toggle led state</text>
</g>
<!-- main_N5&#45;&gt;main_N6 -->
<g id="edge6" class="edge">
<title>main_N5&#45;&gt;main_N6</title>
<path fill="none" stroke="black" stroke-width="1.4" d="M106,-783.64C106,-783.64 106,-694.31 106,-694.31"/>
<polygon fill="black" stroke="black" stroke-width="1.4" points="108.8,-694.31 106,-686.31 103.2,-694.31 108.8,-694.31"/>
<text text-anchor="middle" x="173" y="-723" font-family="Helvetica,sans-Serif" font-size="10.00">Yes</text>
</g>
<!-- main_N7 -->
<g id="node9" class="node">
<title>main_N7</title>
<path fill="#ffffff" stroke="black" stroke-width="1.2" d="M244.5,-581C244.5,-581 117.5,-581 117.5,-581 111.5,-581 105.5,-575 105.5,-569 105.5,-569 105.5,-557 105.5,-557 105.5,-551 111.5,-545 117.5,-545 117.5,-545 244.5,-545 244.5,-545 250.5,-545 256.5,-551 256.5,-557 256.5,-557 256.5,-569 256.5,-569 256.5,-575 250.5,-581 244.5,-581"/>
<text text-anchor="middle" x="181" y="-560.2" font-family="Helvetica,sans-Serif" font-size="11.00" fill="#333333">call Sleep for 50ms</text>
</g>
<!-- main_N5&#45;&gt;main_N7 -->
<g id="edge7" class="edge">
<title>main_N5&#45;&gt;main_N7</title>
<path fill="none" stroke="black" stroke-width="1.4" d="M219,-765.87C219,-765.87 219,-589.29 219,-589.29"/>
<polygon fill="black" stroke="black" stroke-width="1.4" points="221.8,-589.29 219,-581.29 216.2,-589.29 221.8,-589.29"/>
<text text-anchor="middle" x="253" y="-665.5" font-family="Helvetica,sans-Serif" font-size="10.00">No</text>
</g>
<!-- main_N6&#45;&gt;main_N7 -->
<g id="edge8" class="edge">
<title>main_N6&#45;&gt;main_N7</title>
<path fill="none" stroke="black" d="M143.5,-649.71C143.5,-649.71 143.5,-589.08 143.5,-589.08"/>
<polygon fill="black" stroke="black" points="146.3,-589.08 143.5,-581.08 140.7,-589.08 146.3,-589.08"/>
</g>
<!-- main_N8 -->
<g id="node10" class="node">
<title>main_N8</title>
<path fill="#ffffff" stroke="black" stroke-width="1.2" d="M244.5,-476C244.5,-476 117.5,-476 117.5,-476 111.5,-476 105.5,-470 105.5,-464 105.5,-464 105.5,-452 105.5,-452 105.5,-446 111.5,-440 117.5,-440 117.5,-440 244.5,-440 244.5,-440 250.5,-440 256.5,-446 256.5,-452 256.5,-452 256.5,-464 256.5,-464 256.5,-470 250.5,-476 244.5,-476"/>
<text text-anchor="middle" x="181" y="-455.2" font-family="Helvetica,sans-Serif" font-size="11.00" fill="#333333">call blink_led()</text>
</g>
<!-- main_N7&#45;&gt;main_N8 -->
<g id="edge9" class="edge">
<title>main_N7&#45;&gt;main_N8</title>
<path fill="none" stroke="black" d="M181,-544.71C181,-544.71 181,-484.08 181,-484.08"/>
<polygon fill="black" stroke="black" points="183.8,-484.08 181,-476.08 178.2,-484.08 183.8,-484.08"/>
</g>
<!-- main_N9 -->
<g id="node11" class="node">
<title>main_N9</title>
<polygon fill="#d32f2f" stroke="black" points="275.5,-371 86.5,-371 86.5,-335 275.5,-335 275.5,-371"/>
<text text-anchor="middle" x="181" y="-350.2" font-family="Helvetica,sans-Serif" font-size="11.00" fill="#ffffff">Print button pressed\nmessage</text>
</g>
<!-- main_N8&#45;&gt;main_N9 -->
<g id="edge10" class="edge">
<title>main_N8&#45;&gt;main_N9</title>
<path fill="none" stroke="black" d="M181,-439.71C181,-439.71 181,-379.08 181,-379.08"/>
<polygon fill="black" stroke="black" points="183.8,-379.08 181,-371.08 178.2,-379.08 183.8,-379.08"/>
</g>
<!-- main_N10 -->
<g id="node12" class="node">
<title>main_N10</title>
<polygon fill="#ffffff" stroke="black" points="278.5,-266 83.5,-266 83.5,-230 278.5,-230 278.5,-266"/>
<text text-anchor="middle" x="181" y="-245.2" font-family="Helvetica,sans-Serif" font-size="11.00" fill="#333333">Update previous_pressed\nstate</text>
</g>
<!-- main_N9&#45;&gt;main_N10 -->
<g id="edge11" class="edge">
<title>main_N9&#45;&gt;main_N10</title>
<path fill="none" stroke="black" d="M181,-334.71C181,-334.71 181,-274.08 181,-274.08"/>
<polygon fill="black" stroke="black" points="183.8,-274.08 181,-266.08 178.2,-274.08 183.8,-274.08"/>
</g>
<!-- main_N11 -->
<g id="node13" class="node">
<title>main_N11</title>
<path fill="#ffffff" stroke="black" stroke-width="1.2" d="M244.5,-161C244.5,-161 117.5,-161 117.5,-161 111.5,-161 105.5,-155 105.5,-149 105.5,-149 105.5,-137 105.5,-137 105.5,-131 111.5,-125 117.5,-125 117.5,-125 244.5,-125 244.5,-125 250.5,-125 256.5,-131 256.5,-137 256.5,-137 256.5,-149 256.5,-149 256.5,-155 250.5,-161 244.5,-161"/>
<text text-anchor="middle" x="181" y="-140.2" font-family="Helvetica,sans-Serif" font-size="11.00" fill="#333333">call Sleep for 10ms</text>
</g>
<!-- main_N10&#45;&gt;main_N11 -->
<g id="edge12" class="edge">
<title>main_N10&#45;&gt;main_N11</title>
<path fill="none" stroke="black" d="M181,-229.71C181,-229.71 181,-169.08 181,-169.08"/>
<polygon fill="black" stroke="black" points="183.8,-169.08 181,-161.08 178.2,-169.08 183.8,-169.08"/>
</g>
<!-- main_N11&#45;&gt;main_END -->
<g id="edge13" class="edge">
<title>main_N11&#45;&gt;main_END</title>
<path fill="none" stroke="black" d="M181,-124.71C181,-124.71 181,-64.08 181,-64.08"/>
<polygon fill="black" stroke="black" points="183.8,-64.08 181,-56.08 178.2,-64.08 183.8,-64.08"/>
</g>
</g>
</svg>
