<?xml version="1.0" encoding="UTF-8" standalone="no"?>
<!DOCTYPE svg PUBLIC "-//W3C//DTD SVG 1.1//EN"
 "http://www.w3.org/Graphics/SVG/1.1/DTD/svg11.dtd">
<!-- Generated by graphviz version 2.43.0 (0)
 -->
<!-- Title: main Pages: 1 -->
<svg width="514pt" height="1636pt"
 viewBox="0.00 0.00 514.00 1636.25" xmlns="http://www.w3.org/2000/svg" xmlns:xlink="http://www.w3.org/1999/xlink">
<g id="graph0" class="graph" transform="scale(1 1) rotate(0) translate(18 1618.25)">
<title>main</title>
<polygon fill="#ffffff" stroke="transparent" points="-18,18 -18,-1618.25 496,-1618.25 496,18 -18,18"/>
<g id="clust1" class="cluster">
<title>cluster_main</title>
<path fill="#ffffff" stroke="#ffffff" stroke-width="1.2" d="M20,-8C20,-8 458,-8 458,-8 464,-8 470,-14 470,-20 470,-20 470,-1580.25 470,-1580.25 470,-1586.25 464,-1592.25 458,-1592.25 458,-1592.25 20,-1592.25 20,-1592.25 14,-1592.25 8,-1586.25 8,-1580.25 8,-1580.25 8,-20 8,-20 8,-14 14,-8 20,-8"/>
<text text-anchor="middle" x="239" y="-1577.05" font-family="Helvetica,sans-Serif" font-size="14.00" fill="#333333">main</text>
</g>
<!-- main_START -->
<g id="node1" class="node">
<title>main_START</title>
<ellipse fill="#ffffff" stroke="black" stroke-width="1.4" cx="239" cy="-1534.63" rx="86.5" ry="22.76"/>
<text text-anchor="middle" x="239" y="-1537.83" font-family="Helvetica,sans-Serif" font-size="11.00" fill="#333333">START</text>
<text text-anchor="middle" x="239" y="-1525.83" font-family="Helvetica,sans-Serif" font-size="11.00" fill="#333333">main()</text>
</g>
<!-- main_N1 -->
<g id="node3" class="node">
<title>main_N1</title>
<polygon fill="#ffffff" stroke="black" stroke-width="1.1" points="239,-1443 19.54,-1410.5 239,-1378 458.46,-1410.5 239,-1443"/>
<text text-anchor="middle" x="239" y="-1407.7" font-family="Helvetica,sans-Serif" font-size="11.00" fill="#333333">[COMPILE] !defined(LED1) ||\n!defined(BUTTON1)?</text>
</g>
<!-- main_START&#45;&gt;main_N1 -->
<g id="edge1" class="edge">
<title>main_START&#45;&gt;main_N1</title>
<path fill="none" stroke="black" d="M239,-1511.86C239,-1511.86 239,-1451.41 239,-1451.41"/>
<polygon fill="black" stroke="black" points="241.8,-1451.41 239,-1443.41 236.2,-1451.41 241.8,-1451.41"/>
</g>
<!-- main_END -->
<g id="node2" class="node">
<title>main_END</title>
<ellipse fill="#ffffff" stroke="black" stroke-width="1.2" cx="371" cy="-1281" rx="65" ry="18"/>
<text text-anchor="middle" x="371" y="-1278.2" font-family="Helvetica,sans-Serif" font-size="11.00" fill="#333333">main_end</text>
</g>
<!-- main_N2 -->
<g id="node4" class="node">
<title>main_N2</title>
<polygon fill="#ffffff" stroke="black" points="330,-1194 148,-1194 148,-1158 330,-1158 330,-1194"/>
<text text-anchor="middle" x="239" y="-1173.2" font-family="Helvetica,sans-Serif" font-size="11.00" fill="#333333">Initialize led with LED1\nand 0</text>
</g>
<!-- main_END&#45;&gt;main_N2 -->
<g id="edge4" class="edge">
<title>main_END&#45;&gt;main_N2</title>
<path fill="none" stroke="black" d="M318,-1270.55C318,-1270.55 318,-1202.09 318,-1202.09"/>
<polygon fill="black" stroke="black" points="320.8,-1202.09 318,-1194.09 315.2,-1202.09 320.8,-1202.09"/>
</g>
<!-- main_N1&#45;&gt;main_END -->
<g id="edge2" class="edge">
<title>main_N1&#45;&gt;main_END</title>
<path fill="none" stroke="black" stroke-width="1.4" d="M371,-1397.13C371,-1397.13 371,-1307.04 371,-1307.04"/>
<polygon fill="black" stroke="black" stroke-width="1.4" points="373.8,-1307.04 371,-1299.04 368.2,-1307.04 373.8,-1307.04"/>
<text text-anchor="middle" x="339" y="-1336" font-family="Helvetica,sans-Serif" font-size="10.00">Yes</text>
</g>
<!-- main_N1&#45;&gt;main_N2 -->
<g id="edge3" class="edge">
<title>main_N1&#45;&gt;main_N2</title>
<path fill="none" stroke="black" stroke-width="1.4" d="M227,-1379.36C227,-1379.36 227,-1202.08 227,-1202.08"/>
<polygon fill="black" stroke="black" stroke-width="1.4" points="229.8,-1202.08 227,-1194.08 224.2,-1202.08 229.8,-1202.08"/>
<text text-anchor="middle" x="246" y="-1278.5" font-family="Helvetica,sans-Serif" font-size="10.00">No</text>
</g>
<!-- main_N3 -->
<g id="node5" class="node">
<title>main_N3</title>
<polygon fill="#ffffff" stroke="black" points="318.5,-1089 63.5,-1089 63.5,-1053 318.5,-1053 318.5,-1089"/>
<text text-anchor="middle" x="191" y="-1068.2" font-family="Helvetica,sans-Serif" font-size="11.00" fill="#333333">Initialize button with\nBUTTON1 and PullUp</text>
</g>
<!-- main_N2&#45;&gt;main_N3 -->
<g id="edge5" class="edge">
<title>main_N2&#45;&gt;main_N3</title>
<path fill="none" stroke="black" d="M233.25,-1157.71C233.25,-1157.71 233.25,-1097.08 233.25,-1097.08"/>
<polygon fill="black" stroke="black" points="236.05,-1097.08 233.25,-1089.08 230.45,-1097.08 236.05,-1097.08"/>
</g>
<!-- main_N4 -->
<g id="node6" class="node">
<title>main_N4</title>
<polygon fill="#ffffff" stroke="black" points="298,-984 112,-984 112,-948 298,-948 298,-984"/>
<text text-anchor="middle" x="205" y="-963.2" font-family="Helvetica,sans-Serif" font-size="11.00" fill="#333333">Set previous_pressed to\nfalse</text>
</g>
<!-- main_N3&#45;&gt;main_N4 -->
<g id="edge6" class="edge">
<title>main_N3&#45;&gt;main_N4</title>
<path fill="none" stroke="black" d="M205,-1052.71C205,-1052.71 205,-992.08 205,-992.08"/>
<polygon fill="black" stroke="black" points="207.8,-992.08 205,-984.08 202.2,-992.08 207.8,-992.08"/>
</g>
<!-- main_N5 -->
<g id="node7" class="node">
<title>main_N5</title>
<polygon fill="#ffffff" stroke="black" stroke-width="1.1" points="213,-879 98,-846.5 213,-814 328,-846.5 213,-879"/>
<text text-anchor="middle" x="213" y="-843.7" font-family="Helvetica,sans-Serif" font-size="11.00" fill="#333333">[RUNTIME] true?</text>
</g>
<!-- main_N4&#45;&gt;main_N5 -->
<g id="edge7" class="edge">
<title>main_N4&#45;&gt;main_N5</title>
<path fill="none" stroke="black" d="M205,-947.85C205,-947.85 205,-884.93 205,-884.93"/>
<polygon fill="black" stroke="black" points="207.8,-884.93 205,-876.93 202.2,-884.93 207.8,-884.93"/>
</g>
<!-- main_N5&#45;&gt;main_END -->
<g id="edge9" class="edge">
<title>main_N5&#45;&gt;main_END</title>
<path fill="none" stroke="black" stroke-width="1.4" d="M326.54,-846C350.2,-846 368.11,-846 368.11,-846 368.11,-846 368.11,-1254.86 368.11,-1254.86"/>
<polygon fill="black" stroke="black" stroke-width="1.4" points="365.31,-1254.86 368.11,-1262.86 370.91,-1254.86 365.31,-1254.86"/>
<text text-anchor="middle" x="390" y="-1068.5" font-family="Helvetica,sans-Serif" font-size="10.00">No</text>
</g>
<!-- main_N6 -->
<g id="node8" class="node">
<title>main_N6</title>
<polygon fill="#ffffff" stroke="black" points="310.5,-735 115.5,-735 115.5,-699 310.5,-699 310.5,-735"/>
<text text-anchor="middle" x="213" y="-714.2" font-family="Helvetica,sans-Serif" font-size="11.00" fill="#333333">Read button state into\npressed</text>
</g>
<!-- main_N5&#45;&gt;main_N6 -->
<g id="edge8" class="edge">
<title>main_N5&#45;&gt;main_N6</title>
<path fill="none" stroke="black" stroke-width="1.4" d="M213,-813.82C213,-813.82 213,-743.26 213,-743.26"/>
<polygon fill="black" stroke="black" stroke-width="1.4" points="215.8,-743.26 213,-735.26 210.2,-743.26 215.8,-743.26"/>
<text text-anchor="middle" x="221" y="-772" font-family="Helvetica,sans-Serif" font-size="10.00">Yes</text>
</g>
<!-- main_N7 -->
<g id="node9" class="node">
<title>main_N7</title>
<polygon fill="#ffffff" stroke="black" stroke-width="1.1" points="213,-630 19.56,-597.5 213,-565 406.44,-597.5 213,-630"/>
<text text-anchor="middle" x="213" y="-594.7" font-family="Helvetica,sans-Serif" font-size="11.00" fill="#333333">[RUNTIME] pressed &amp;&amp;\n!previous_pressed?</text>
</g>
<!-- main_N6&#45;&gt;main_N7 -->
<g id="edge10" class="edge">
<title>main_N6&#45;&gt;main_N7</title>
<path fill="none" stroke="black" d="M213,-698.85C213,-698.85 213,-638.28 213,-638.28"/>
<polygon fill="black" stroke="black" points="215.8,-638.28 213,-630.28 210.2,-638.28 215.8,-638.28"/>
</g>
<!-- main_N8 -->
<g id="node10" class="node">
<title>main_N8</title>
<polygon fill="#ffffff" stroke="black" points="280.5,-486 129.5,-486 129.5,-450 280.5,-450 280.5,-486"/>
<text text-anchor="middle" x="205" y="-465.2" font-family="Helvetica,sans-Serif" font-size="11.00" fill="#333333">Toggle led state</text>
</g>
<!-- main_N7&#45;&gt;main_N8 -->
<g id="edge11" class="edge">
<title>main_N7&#45;&gt;main_N8</title>
<path fill="none" stroke="black" stroke-width="1.4" d="M205,-566.15C205,-566.15 205,-494.28 205,-494.28"/>
<polygon fill="black" stroke="black" stroke-width="1.4" points="207.8,-494.28 205,-486.28 202.2,-494.28 207.8,-494.28"/>
<text text-anchor="middle" x="218" y="-523" font-family="Helvetica,sans-Serif" font-size="10.00">Yes</text>
</g>
<!-- main_N10 -->
<g id="node12" class="node">
<title>main_N10</title>
<polygon fill="#ffffff" stroke="black" points="405.5,-266 202.5,-266 202.5,-230 405.5,-230 405.5,-266"/>
<text text-anchor="middle" x="304" y="-245.2" font-family="Helvetica,sans-Serif" font-size="11.00" fill="#333333">Set previous_pressed to\npressed</text>
</g>
<!-- main_N7&#45;&gt;main_N10 -->
<g id="edge12" class="edge">
<title>main_N7&#45;&gt;main_N10</title>
<path fill="none" stroke="black" stroke-width="1.4" d="M343,-586.66C343,-586.66 343,-274.14 343,-274.14"/>
<polygon fill="black" stroke="black" stroke-width="1.4" points="345.8,-274.14 343,-266.14 340.2,-274.14 345.8,-274.14"/>
<text text-anchor="middle" x="321" y="-408" font-family="Helvetica,sans-Serif" font-size="10.00">No</text>
</g>
<!-- main_N9 -->
<g id="node11" class="node">
<title>main_N9</title>
<polygon fill="#ffffff" stroke="black" points="280.5,-371 129.5,-371 129.5,-335 280.5,-335 280.5,-371"/>
<text text-anchor="middle" x="205" y="-350.2" font-family="Helvetica,sans-Serif" font-size="11.00" fill="#333333">Sleep for 50ms</text>
</g>
<!-- main_N8&#45;&gt;main_N9 -->
<g id="edge13" class="edge">
<title>main_N8&#45;&gt;main_N9</title>
<path fill="none" stroke="black" d="M205,-449.78C205,-449.78 205,-379.14 205,-379.14"/>
<polygon fill="black" stroke="black" points="207.8,-379.14 205,-371.14 202.2,-379.14 207.8,-379.14"/>
</g>
<!-- main_N9&#45;&gt;main_N10 -->
<g id="edge14" class="edge">
<title>main_N9&#45;&gt;main_N10</title>
<path fill="none" stroke="black" d="M241.5,-334.71C241.5,-334.71 241.5,-274.08 241.5,-274.08"/>
<polygon fill="black" stroke="black" points="244.3,-274.08 241.5,-266.08 238.7,-274.08 244.3,-274.08"/>
</g>
<!-- main_N11 -->
<g id="node13" class="node">
<title>main_N11</title>
<polygon fill="#ffffff" stroke="black" points="392.5,-161 241.5,-161 241.5,-125 392.5,-125 392.5,-161"/>
<text text-anchor="middle" x="317" y="-140.2" font-family="Helvetica,sans-Serif" font-size="11.00" fill="#333333">Sleep for 10ms</text>
</g>
<!-- main_N10&#45;&gt;main_N11 -->
<g id="edge15" class="edge">
<title>main_N10&#45;&gt;main_N11</title>
<path fill="none" stroke="black" d="M317,-229.71C317,-229.71 317,-169.08 317,-169.08"/>
<polygon fill="black" stroke="black" points="319.8,-169.08 317,-161.08 314.2,-169.08 319.8,-169.08"/>
</g>
<!-- main_N12 -->
<g id="node14" class="node">
<title>main_N12</title>
<path fill="#ffffff" stroke="black" stroke-width="1.2" d="M413.5,-56C413.5,-56 286.5,-56 286.5,-56 280.5,-56 274.5,-50 274.5,-44 274.5,-44 274.5,-32 274.5,-32 274.5,-26 280.5,-20 286.5,-20 286.5,-20 413.5,-20 413.5,-20 419.5,-20 425.5,-26 425.5,-32 425.5,-32 425.5,-44 425.5,-44 425.5,-50 419.5,-56 413.5,-56"/>
<text text-anchor="middle" x="350" y="-35.2" font-family="Helvetica,sans-Serif" font-size="11.00" fill="#333333">call main()</text>
</g>
<!-- main_N11&#45;&gt;main_N12 -->
<g id="edge16" class="edge">
<title>main_N11&#45;&gt;main_N12</title>
<path fill="none" stroke="black" d="M333.5,-124.71C333.5,-124.71 333.5,-64.08 333.5,-64.08"/>
<polygon fill="black" stroke="black" points="336.3,-64.08 333.5,-56.08 330.7,-64.08 336.3,-64.08"/>
</g>
<!-- main_N12&#45;&gt;main_END -->
<g id="edge17" class="edge">
<title>main_N12&#45;&gt;main_END</title>
<path fill="none" stroke="black" d="M415.86,-56.05C415.86,-56.05 415.86,-1259.79 415.86,-1259.79"/>
<polygon fill="black" stroke="black" points="413.06,-1259.79 415.86,-1267.79 418.66,-1259.79 413.06,-1259.79"/>
</g>
</g>
</svg>
