<?xml version="1.0" encoding="UTF-8" standalone="no"?>
<!DOCTYPE svg PUBLIC "-//W3C//DTD SVG 1.1//EN"
 "http://www.w3.org/Graphics/SVG/1.1/DTD/svg11.dtd">
<!-- Generated by graphviz version 2.43.0 (0)
 -->
<!-- Title: main Pages: 1 -->
<svg width="338pt" height="1338pt"
 viewBox="0.00 0.00 338.00 1338.25" xmlns="http://www.w3.org/2000/svg" xmlns:xlink="http://www.w3.org/1999/xlink">
<g id="graph0" class="graph" transform="scale(1 1) rotate(0) translate(18 1320.25)">
<title>main</title>
<polygon fill="#ffffff" stroke="transparent" points="-18,18 -18,-1320.25 320,-1320.25 320,18 -18,18"/>
<g id="clust1" class="cluster">
<title>cluster_main</title>
<path fill="#ffffff" stroke="#d32f2f" stroke-width="3" d="M20,-8C20,-8 282,-8 282,-8 288,-8 294,-14 294,-20 294,-20 294,-1282.25 294,-1282.25 294,-1288.25 288,-1294.25 282,-1294.25 282,-1294.25 20,-1294.25 20,-1294.25 14,-1294.25 8,-1288.25 8,-1282.25 8,-1282.25 8,-20 8,-20 8,-14 14,-8 20,-8"/>
<text text-anchor="middle" x="151" y="-1279.05" font-family="Helvetica,sans-Serif" font-size="14.00" fill="#d32f2f">main</text>
</g>
<!-- main_START -->
<g id="node1" class="node">
<title>main_START</title>
<ellipse fill="#ffffff" stroke="black" stroke-width="1.4" cx="151" cy="-1236.63" rx="86.5" ry="22.76"/>
<text text-anchor="middle" x="151" y="-1239.83" font-family="Helvetica,sans-Serif" font-size="11.00" fill="#333333">START</text>
<text text-anchor="middle" x="151" y="-1227.83" font-family="Helvetica,sans-Serif" font-size="11.00" fill="#333333">main()</text>
</g>
<!-- main_N1 -->
<g id="node3" class="node">
<title>main_N1</title>
<polygon fill="#ffffff" stroke="black" points="266,-1145 36,-1145 36,-1109 266,-1109 266,-1145"/>
<text text-anchor="middle" x="151" y="-1124.2" font-family="Helvetica,sans-Serif" font-size="11.00" fill="#333333">Check LED1 and BUTTON1\ndefinitions</text>
</g>
<!-- main_START&#45;&gt;main_N1 -->
<g id="edge1" class="edge">
<title>main_START&#45;&gt;main_N1</title>
<path fill="none" stroke="black" d="M151,-1213.91C151,-1213.91 151,-1153.33 151,-1153.33"/>
<polygon fill="black" stroke="black" points="153.8,-1153.33 151,-1145.33 148.2,-1153.33 153.8,-1153.33"/>
</g>
<!-- main_END -->
<g id="node2" class="node">
<title>main_END</title>
<ellipse fill="#ffffff" stroke="black" stroke-width="1.2" cx="151" cy="-38" rx="65" ry="18"/>
<text text-anchor="middle" x="151" y="-35.2" font-family="Helvetica,sans-Serif" font-size="11.00" fill="#333333">main_end</text>
</g>
<!-- main_N2 -->
<g id="node4" class="node">
<title>main_N2</title>
<path fill="#ffffff" stroke="black" stroke-width="1.2" d="M233,-1040C233,-1040 69,-1040 69,-1040 63,-1040 57,-1034 57,-1028 57,-1028 57,-1016 57,-1016 57,-1010 63,-1004 69,-1004 69,-1004 233,-1004 233,-1004 239,-1004 245,-1010 245,-1016 245,-1016 245,-1028 245,-1028 245,-1034 239,-1040 233,-1040"/>
<text text-anchor="middle" x="151" y="-1019.2" font-family="Helvetica,sans-Serif" font-size="11.00" fill="#333333">call Initialize led as\nDigitalOut</text>
</g>
<!-- main_N1&#45;&gt;main_N2 -->
<g id="edge2" class="edge">
<title>main_N1&#45;&gt;main_N2</title>
<path fill="none" stroke="black" d="M151,-1108.71C151,-1108.71 151,-1048.08 151,-1048.08"/>
<polygon fill="black" stroke="black" points="153.8,-1048.08 151,-1040.08 148.2,-1048.08 153.8,-1048.08"/>
</g>
<!-- main_N3 -->
<g id="node5" class="node">
<title>main_N3</title>
<path fill="#ffffff" stroke="black" stroke-width="1.2" d="M270,-935C270,-935 32,-935 32,-935 26,-935 20,-929 20,-923 20,-923 20,-911 20,-911 20,-905 26,-899 32,-899 32,-899 270,-899 270,-899 276,-899 282,-905 282,-911 282,-911 282,-923 282,-923 282,-929 276,-935 270,-935"/>
<text text-anchor="middle" x="151" y="-914.2" font-family="Helvetica,sans-Serif" font-size="11.00" fill="#333333">call Initialize button as\nDigitalIn with PullUp</text>
</g>
<!-- main_N2&#45;&gt;main_N3 -->
<g id="edge3" class="edge">
<title>main_N2&#45;&gt;main_N3</title>
<path fill="none" stroke="black" d="M151,-1003.71C151,-1003.71 151,-943.08 151,-943.08"/>
<polygon fill="black" stroke="black" points="153.8,-943.08 151,-935.08 148.2,-943.08 153.8,-943.08"/>
</g>
<!-- main_N4 -->
<g id="node6" class="node">
<title>main_N4</title>
<polygon fill="#ffffff" stroke="black" points="244,-830 58,-830 58,-794 244,-794 244,-830"/>
<text text-anchor="middle" x="151" y="-809.2" font-family="Helvetica,sans-Serif" font-size="11.00" fill="#333333">Set previous_pressed to\nfalse</text>
</g>
<!-- main_N3&#45;&gt;main_N4 -->
<g id="edge4" class="edge">
<title>main_N3&#45;&gt;main_N4</title>
<path fill="none" stroke="black" d="M151,-898.71C151,-898.71 151,-838.08 151,-838.08"/>
<polygon fill="black" stroke="black" points="153.8,-838.08 151,-830.08 148.2,-838.08 153.8,-838.08"/>
</g>
<!-- main_N5 -->
<g id="node7" class="node">
<title>main_N5</title>
<polygon fill="#ffffff" stroke="black" stroke-width="1.1" points="151,-725 36,-692.5 151,-660 266,-692.5 151,-725"/>
<text text-anchor="middle" x="151" y="-689.7" font-family="Helvetica,sans-Serif" font-size="11.00" fill="#333333">Is button pressed?</text>
</g>
<!-- main_N4&#45;&gt;main_N5 -->
<g id="edge5" class="edge">
<title>main_N4&#45;&gt;main_N5</title>
<path fill="none" stroke="black" d="M151,-793.85C151,-793.85 151,-733.28 151,-733.28"/>
<polygon fill="black" stroke="black" points="153.8,-733.28 151,-725.28 148.2,-733.28 153.8,-733.28"/>
</g>
<!-- main_N6 -->
<g id="node8" class="node">
<title>main_N6</title>
<polygon fill="#ffffff" stroke="black" points="181.5,-581 30.5,-581 30.5,-545 181.5,-545 181.5,-581"/>
<text text-anchor="middle" x="106" y="-560.2" font-family="Helvetica,sans-Serif" font-size="11.00" fill="#333333">Toggle led state</text>
</g>
<!-- main_N5&#45;&gt;main_N6 -->
<g id="edge6" class="edge">
<title>main_N5&#45;&gt;main_N6</title>
<path fill="none" stroke="black" stroke-width="1.4" d="M108.75,-671.69C108.75,-671.69 108.75,-589.24 108.75,-589.24"/>
<polygon fill="black" stroke="black" stroke-width="1.4" points="111.55,-589.24 108.75,-581.24 105.95,-589.24 111.55,-589.24"/>
<text text-anchor="middle" x="136" y="-618" font-family="Helvetica,sans-Serif" font-size="10.00">Yes</text>
</g>
<!-- main_N7 -->
<g id="node9" class="node">
<title>main_N7</title>
<path fill="#ffffff" stroke="black" stroke-width="1.2" d="M214.5,-476C214.5,-476 87.5,-476 87.5,-476 81.5,-476 75.5,-470 75.5,-464 75.5,-464 75.5,-452 75.5,-452 75.5,-446 81.5,-440 87.5,-440 87.5,-440 214.5,-440 214.5,-440 220.5,-440 226.5,-446 226.5,-452 226.5,-452 226.5,-464 226.5,-464 226.5,-470 220.5,-476 214.5,-476"/>
<text text-anchor="middle" x="151" y="-455.2" font-family="Helvetica,sans-Serif" font-size="11.00" fill="#333333">call Sleep for 50ms</text>
</g>
<!-- main_N5&#45;&gt;main_N7 -->
<g id="edge7" class="edge">
<title>main_N5&#45;&gt;main_N7</title>
<path fill="none" stroke="black" stroke-width="1.4" d="M204,-674.87C204,-674.87 204,-484.15 204,-484.15"/>
<polygon fill="black" stroke="black" stroke-width="1.4" points="206.8,-484.15 204,-476.15 201.2,-484.15 206.8,-484.15"/>
<text text-anchor="middle" x="253" y="-560.5" font-family="Helvetica,sans-Serif" font-size="10.00">No</text>
</g>
<!-- main_N6&#45;&gt;main_N7 -->
<g id="edge8" class="edge">
<title>main_N6&#45;&gt;main_N7</title>
<path fill="none" stroke="black" d="M128.5,-544.71C128.5,-544.71 128.5,-484.08 128.5,-484.08"/>
<polygon fill="black" stroke="black" points="131.3,-484.08 128.5,-476.08 125.7,-484.08 131.3,-484.08"/>
</g>
<!-- main_N8 -->
<g id="node10" class="node">
<title>main_N8</title>
<polygon fill="#d32f2f" stroke="black" points="226.5,-371 75.5,-371 75.5,-335 226.5,-335 226.5,-371"/>
<text text-anchor="middle" x="151" y="-350.2" font-family="Helvetica,sans-Serif" font-size="11.00" fill="#ffffff">Blink led 5 times</text>
</g>
<!-- main_N7&#45;&gt;main_N8 -->
<g id="edge9" class="edge">
<title>main_N7&#45;&gt;main_N8</title>
<path fill="none" stroke="black" d="M151,-439.71C151,-439.71 151,-379.08 151,-379.08"/>
<polygon fill="black" stroke="black" points="153.8,-379.08 151,-371.08 148.2,-379.08 153.8,-379.08"/>
</g>
<!-- main_N9 -->
<g id="node11" class="node">
<title>main_N9</title>
<polygon fill="#ffffff" stroke="black" points="248.5,-266 53.5,-266 53.5,-230 248.5,-230 248.5,-266"/>
<text text-anchor="middle" x="151" y="-245.2" font-family="Helvetica,sans-Serif" font-size="11.00" fill="#333333">Update previous_pressed\nstate</text>
</g>
<!-- main_N8&#45;&gt;main_N9 -->
<g id="edge10" class="edge">
<title>main_N8&#45;&gt;main_N9</title>
<path fill="none" stroke="black" d="M151,-334.71C151,-334.71 151,-274.08 151,-274.08"/>
<polygon fill="black" stroke="black" points="153.8,-274.08 151,-266.08 148.2,-274.08 153.8,-274.08"/>
</g>
<!-- main_N10 -->
<g id="node12" class="node">
<title>main_N10</title>
<path fill="#ffffff" stroke="black" stroke-width="1.2" d="M214.5,-161C214.5,-161 87.5,-161 87.5,-161 81.5,-161 75.5,-155 75.5,-149 75.5,-149 75.5,-137 75.5,-137 75.5,-131 81.5,-125 87.5,-125 87.5,-125 214.5,-125 214.5,-125 220.5,-125 226.5,-131 226.5,-137 226.5,-137 226.5,-149 226.5,-149 226.5,-155 220.5,-161 214.5,-161"/>
<text text-anchor="middle" x="151" y="-140.2" font-family="Helvetica,sans-Serif" font-size="11.00" fill="#333333">call Sleep for 10ms</text>
</g>
<!-- main_N9&#45;&gt;main_N10 -->
<g id="edge11" class="edge">
<title>main_N9&#45;&gt;main_N10</title>
<path fill="none" stroke="black" d="M151,-229.71C151,-229.71 151,-169.08 151,-169.08"/>
<polygon fill="black" stroke="black" points="153.8,-169.08 151,-161.08 148.2,-169.08 153.8,-169.08"/>
</g>
<!-- main_N10&#45;&gt;main_END -->
<g id="edge12" class="edge">
<title>main_N10&#45;&gt;main_END</title>
<path fill="none" stroke="black" d="M151,-124.71C151,-124.71 151,-64.08 151,-64.08"/>
<polygon fill="black" stroke="black" points="153.8,-64.08 151,-56.08 148.2,-64.08 153.8,-64.08"/>
</g>
</g>
</svg>
