<?xml version="1.0" encoding="UTF-8" standalone="no"?>
<!DOCTYPE svg PUBLIC "-//W3C//DTD SVG 1.1//EN"
 "http://www.w3.org/Graphics/SVG/1.1/DTD/svg11.dtd">
<!-- Generated by graphviz version 2.43.0 (0)
 -->
<!-- Title: main Pages: 1 -->
<svg width="490pt" height="1338pt"
 viewBox="0.00 0.00 490.00 1338.25" xmlns="http://www.w3.org/2000/svg" xmlns:xlink="http://www.w3.org/1999/xlink">
<g id="graph0" class="graph" transform="scale(1 1) rotate(0) translate(18 1320.25)">
<title>main</title>
<polygon fill="#ffffff" stroke="transparent" points="-18,18 -18,-1320.25 472,-1320.25 472,18 -18,18"/>
<g id="clust1" class="cluster">
<title>cluster_main</title>
<path fill="#ffffff" stroke="#d32f2f" stroke-width="3" d="M20,-8C20,-8 434,-8 434,-8 440,-8 446,-14 446,-20 446,-20 446,-1282.25 446,-1282.25 446,-1288.25 440,-1294.25 434,-1294.25 434,-1294.25 20,-1294.25 20,-1294.25 14,-1294.25 8,-1288.25 8,-1282.25 8,-1282.25 8,-20 8,-20 8,-14 14,-8 20,-8"/>
<text text-anchor="middle" x="227" y="-1279.05" font-family="Helvetica,sans-Serif" font-size="14.00" fill="#d32f2f">main</text>
</g>
<!-- main_START -->
<g id="node1" class="node">
<title>main_START</title>
<ellipse fill="#ffffff" stroke="black" stroke-width="1.4" cx="227" cy="-1236.63" rx="86.5" ry="22.76"/>
<text text-anchor="middle" x="227" y="-1239.83" font-family="Helvetica,sans-Serif" font-size="11.00" fill="#333333">START</text>
<text text-anchor="middle" x="227" y="-1227.83" font-family="Helvetica,sans-Serif" font-size="11.00" fill="#333333">main()</text>
</g>
<!-- main_N1 -->
<g id="node3" class="node">
<title>main_N1</title>
<polygon fill="#ffffff" stroke="black" points="342,-1145 112,-1145 112,-1109 342,-1109 342,-1145"/>
<text text-anchor="middle" x="227" y="-1124.2" font-family="Helvetica,sans-Serif" font-size="11.00" fill="#333333">Check LED1 and BUTTON1\ndefinitions</text>
</g>
<!-- main_START&#45;&gt;main_N1 -->
<g id="edge1" class="edge">
<title>main_START&#45;&gt;main_N1</title>
<path fill="none" stroke="black" d="M227,-1213.91C227,-1213.91 227,-1153.33 227,-1153.33"/>
<polygon fill="black" stroke="black" points="229.8,-1153.33 227,-1145.33 224.2,-1153.33 229.8,-1153.33"/>
</g>
<!-- main_END -->
<g id="node2" class="node">
<title>main_END</title>
<ellipse fill="#ffffff" stroke="black" stroke-width="1.2" cx="181" cy="-38" rx="65" ry="18"/>
<text text-anchor="middle" x="181" y="-35.2" font-family="Helvetica,sans-Serif" font-size="11.00" fill="#333333">main_end</text>
</g>
<!-- main_N2 -->
<g id="node4" class="node">
<title>main_N2</title>
<path fill="#ffffff" stroke="black" stroke-width="1.2" d="M309,-1040C309,-1040 145,-1040 145,-1040 139,-1040 133,-1034 133,-1028 133,-1028 133,-1016 133,-1016 133,-1010 139,-1004 145,-1004 145,-1004 309,-1004 309,-1004 315,-1004 321,-1010 321,-1016 321,-1016 321,-1028 321,-1028 321,-1034 315,-1040 309,-1040"/>
<text text-anchor="middle" x="227" y="-1019.2" font-family="Helvetica,sans-Serif" font-size="11.00" fill="#333333">call Initialize led as\nDigitalOut</text>
</g>
<!-- main_N1&#45;&gt;main_N2 -->
<g id="edge2" class="edge">
<title>main_N1&#45;&gt;main_N2</title>
<path fill="none" stroke="black" d="M227,-1108.71C227,-1108.71 227,-1048.08 227,-1048.08"/>
<polygon fill="black" stroke="black" points="229.8,-1048.08 227,-1040.08 224.2,-1048.08 229.8,-1048.08"/>
</g>
<!-- main_N3 -->
<g id="node5" class="node">
<title>main_N3</title>
<path fill="#ffffff" stroke="black" stroke-width="1.2" d="M346,-935C346,-935 108,-935 108,-935 102,-935 96,-929 96,-923 96,-923 96,-911 96,-911 96,-905 102,-899 108,-899 108,-899 346,-899 346,-899 352,-899 358,-905 358,-911 358,-911 358,-923 358,-923 358,-929 352,-935 346,-935"/>
<text text-anchor="middle" x="227" y="-914.2" font-family="Helvetica,sans-Serif" font-size="11.00" fill="#333333">call Initialize button as\nDigitalIn with PullUp</text>
</g>
<!-- main_N2&#45;&gt;main_N3 -->
<g id="edge3" class="edge">
<title>main_N2&#45;&gt;main_N3</title>
<path fill="none" stroke="black" d="M227,-1003.71C227,-1003.71 227,-943.08 227,-943.08"/>
<polygon fill="black" stroke="black" points="229.8,-943.08 227,-935.08 224.2,-943.08 229.8,-943.08"/>
</g>
<!-- main_N4 -->
<g id="node6" class="node">
<title>main_N4</title>
<polygon fill="#ffffff" stroke="black" points="320,-830 134,-830 134,-794 320,-794 320,-830"/>
<text text-anchor="middle" x="227" y="-809.2" font-family="Helvetica,sans-Serif" font-size="11.00" fill="#333333">Set previous_pressed to\nfalse</text>
</g>
<!-- main_N3&#45;&gt;main_N4 -->
<g id="edge4" class="edge">
<title>main_N3&#45;&gt;main_N4</title>
<path fill="none" stroke="black" d="M227,-898.71C227,-898.71 227,-838.08 227,-838.08"/>
<polygon fill="black" stroke="black" points="229.8,-838.08 227,-830.08 224.2,-838.08 229.8,-838.08"/>
</g>
<!-- main_N5 -->
<g id="node7" class="node">
<title>main_N5</title>
<polygon fill="#ffffff" stroke="black" stroke-width="1.1" points="227,-725 19.82,-692.5 227,-660 434.18,-692.5 227,-725"/>
<text text-anchor="middle" x="227" y="-689.7" font-family="Helvetica,sans-Serif" font-size="11.00" fill="#333333">Is button pressed and not\npreviously pressed?</text>
</g>
<!-- main_N4&#45;&gt;main_N5 -->
<g id="edge5" class="edge">
<title>main_N4&#45;&gt;main_N5</title>
<path fill="none" stroke="black" d="M227,-793.85C227,-793.85 227,-733.28 227,-733.28"/>
<polygon fill="black" stroke="black" points="229.8,-733.28 227,-725.28 224.2,-733.28 229.8,-733.28"/>
</g>
<!-- main_N6 -->
<g id="node8" class="node">
<title>main_N6</title>
<polygon fill="#ffffff" stroke="black" points="181.5,-581 30.5,-581 30.5,-545 181.5,-545 181.5,-581"/>
<text text-anchor="middle" x="106" y="-560.2" font-family="Helvetica,sans-Serif" font-size="11.00" fill="#333333">Toggle led state</text>
</g>
<!-- main_N5&#45;&gt;main_N6 -->
<g id="edge6" class="edge">
<title>main_N5&#45;&gt;main_N6</title>
<path fill="none" stroke="black" stroke-width="1.4" d="M106,-678.64C106,-678.64 106,-589.31 106,-589.31"/>
<polygon fill="black" stroke="black" stroke-width="1.4" points="108.8,-589.31 106,-581.31 103.2,-589.31 108.8,-589.31"/>
<text text-anchor="middle" x="173" y="-618" font-family="Helvetica,sans-Serif" font-size="10.00">Yes</text>
</g>
<!-- main_N7 -->
<g id="node9" class="node">
<title>main_N7</title>
<path fill="#ffffff" stroke="black" stroke-width="1.2" d="M244.5,-476C244.5,-476 117.5,-476 117.5,-476 111.5,-476 105.5,-470 105.5,-464 105.5,-464 105.5,-452 105.5,-452 105.5,-446 111.5,-440 117.5,-440 117.5,-440 244.5,-440 244.5,-440 250.5,-440 256.5,-446 256.5,-452 256.5,-452 256.5,-464 256.5,-464 256.5,-470 250.5,-476 244.5,-476"/>
<text text-anchor="middle" x="181" y="-455.2" font-family="Helvetica,sans-Serif" font-size="11.00" fill="#333333">call Sleep for 50ms</text>
</g>
<!-- main_N5&#45;&gt;main_N7 -->
<g id="edge7" class="edge">
<title>main_N5&#45;&gt;main_N7</title>
<path fill="none" stroke="black" stroke-width="1.4" d="M219,-660.87C219,-660.87 219,-484.29 219,-484.29"/>
<polygon fill="black" stroke="black" stroke-width="1.4" points="221.8,-484.29 219,-476.29 216.2,-484.29 221.8,-484.29"/>
<text text-anchor="middle" x="253" y="-560.5" font-family="Helvetica,sans-Serif" font-size="10.00">No</text>
</g>
<!-- main_N6&#45;&gt;main_N7 -->
<g id="edge8" class="edge">
<title>main_N6&#45;&gt;main_N7</title>
<path fill="none" stroke="black" d="M143.5,-544.71C143.5,-544.71 143.5,-484.08 143.5,-484.08"/>
<polygon fill="black" stroke="black" points="146.3,-484.08 143.5,-476.08 140.7,-484.08 146.3,-484.08"/>
</g>
<!-- main_N8 -->
<g id="node10" class="node">
<title>main_N8</title>
<polygon fill="#d32f2f" stroke="black" points="256.5,-371 105.5,-371 105.5,-335 256.5,-335 256.5,-371"/>
<text text-anchor="middle" x="181" y="-350.2" font-family="Helvetica,sans-Serif" font-size="11.00" fill="#ffffff">Call blink_led</text>
</g>
<!-- main_N7&#45;&gt;main_N8 -->
<g id="edge9" class="edge">
<title>main_N7&#45;&gt;main_N8</title>
<path fill="none" stroke="black" d="M181,-439.71C181,-439.71 181,-379.08 181,-379.08"/>
<polygon fill="black" stroke="black" points="183.8,-379.08 181,-371.08 178.2,-379.08 183.8,-379.08"/>
</g>
<!-- main_N9 -->
<g id="node11" class="node">
<title>main_N9</title>
<polygon fill="#ffffff" stroke="black" points="278.5,-266 83.5,-266 83.5,-230 278.5,-230 278.5,-266"/>
<text text-anchor="middle" x="181" y="-245.2" font-family="Helvetica,sans-Serif" font-size="11.00" fill="#333333">Update previous_pressed\nstate</text>
</g>
<!-- main_N8&#45;&gt;main_N9 -->
<g id="edge10" class="edge">
<title>main_N8&#45;&gt;main_N9</title>
<path fill="none" stroke="black" d="M181,-334.71C181,-334.71 181,-274.08 181,-274.08"/>
<polygon fill="black" stroke="black" points="183.8,-274.08 181,-266.08 178.2,-274.08 183.8,-274.08"/>
</g>
<!-- main_N10 -->
<g id="node12" class="node">
<title>main_N10</title>
<path fill="#ffffff" stroke="black" stroke-width="1.2" d="M244.5,-161C244.5,-161 117.5,-161 117.5,-161 111.5,-161 105.5,-155 105.5,-149 105.5,-149 105.5,-137 105.5,-137 105.5,-131 111.5,-125 117.5,-125 117.5,-125 244.5,-125 244.5,-125 250.5,-125 256.5,-131 256.5,-137 256.5,-137 256.5,-149 256.5,-149 256.5,-155 250.5,-161 244.5,-161"/>
<text text-anchor="middle" x="181" y="-140.2" font-family="Helvetica,sans-Serif" font-size="11.00" fill="#333333">call Sleep for 10ms</text>
</g>
<!-- main_N9&#45;&gt;main_N10 -->
<g id="edge11" class="edge">
<title>main_N9&#45;&gt;main_N10</title>
<path fill="none" stroke="black" d="M181,-229.71C181,-229.71 181,-169.08 181,-169.08"/>
<polygon fill="black" stroke="black" points="183.8,-169.08 181,-161.08 178.2,-169.08 183.8,-169.08"/>
</g>
<!-- main_N10&#45;&gt;main_END -->
<g id="edge12" class="edge">
<title>main_N10&#45;&gt;main_END</title>
<path fill="none" stroke="black" d="M181,-124.71C181,-124.71 181,-64.08 181,-64.08"/>
<polygon fill="black" stroke="black" points="183.8,-64.08 181,-56.08 178.2,-64.08 183.8,-64.08"/>
</g>
</g>
</svg>
