<?xml version="1.0" encoding="UTF-8" standalone="no"?>
<!DOCTYPE svg PUBLIC "-//W3C//DTD SVG 1.1//EN"
 "http://www.w3.org/Graphics/SVG/1.1/DTD/svg11.dtd">
<!-- Generated by graphviz version 2.43.0 (0)
 -->
<!-- Title: main Pages: 1 -->
<svg width="394pt" height="2342pt"
 viewBox="0.00 0.00 394.00 2342.25" xmlns="http://www.w3.org/2000/svg" xmlns:xlink="http://www.w3.org/1999/xlink">
<g id="graph0" class="graph" transform="scale(1 1) rotate(0) translate(18 2324.25)">
<title>main</title>
<polygon fill="#d32f2f" stroke="transparent" points="-18,18 -18,-2324.25 376,-2324.25 376,18 -18,18"/>
<g id="clust1" class="cluster">
<title>cluster_main</title>
<path fill="#d32f2f" stroke="#d32f2f" stroke-width="3" d="M20,-8C20,-8 338,-8 338,-8 344,-8 350,-14 350,-20 350,-20 350,-2286.25 350,-2286.25 350,-2292.25 344,-2298.25 338,-2298.25 338,-2298.25 20,-2298.25 20,-2298.25 14,-2298.25 8,-2292.25 8,-2286.25 8,-2286.25 8,-20 8,-20 8,-14 14,-8 20,-8"/>
<text text-anchor="middle" x="179" y="-2283.05" font-family="Helvetica,sans-Serif" font-size="14.00" fill="#333333">main</text>
</g>
<!-- main_START -->
<g id="node1" class="node">
<title>main_START</title>
<ellipse fill="#d32f2f" stroke="black" stroke-width="1.4" cx="145" cy="-2240.63" rx="86.5" ry="22.76"/>
<text text-anchor="middle" x="145" y="-2243.83" font-family="Helvetica,sans-Serif" font-size="11.00" fill="#333333">START</text>
<text text-anchor="middle" x="145" y="-2231.83" font-family="Helvetica,sans-Serif" font-size="11.00" fill="#333333">main()</text>
</g>
<!-- main_N1 -->
<g id="node3" class="node">
<title>main_N1</title>
<polygon fill="#d32f2f" stroke="black" points="226,-2149 64,-2149 64,-2113 226,-2113 226,-2149"/>
<text text-anchor="middle" x="145" y="-2128.2" font-family="Helvetica,sans-Serif" font-size="11.00" fill="#333333">Define digital output\n&#39;led&#39;</text>
</g>
<!-- main_START&#45;&gt;main_N1 -->
<g id="edge1" class="edge">
<title>main_START&#45;&gt;main_N1</title>
<path fill="none" stroke="black" d="M145,-2217.85C145,-2200.43 145,-2175.97 145,-2157.61"/>
<polygon fill="black" stroke="black" points="147.8,-2157.15 145,-2149.15 142.2,-2157.15 147.8,-2157.15"/>
</g>
<!-- main_END -->
<g id="node2" class="node">
<title>main_END</title>
<ellipse fill="#d32f2f" stroke="black" stroke-width="1.2" cx="136" cy="-38" rx="65" ry="18"/>
<text text-anchor="middle" x="136" y="-35.2" font-family="Helvetica,sans-Serif" font-size="11.00" fill="#333333">main_end</text>
</g>
<!-- main_N2 -->
<g id="node4" class="node">
<title>main_N2</title>
<path fill="#d32f2f" stroke="black" stroke-width="1.2" d="M208.5,-2044C208.5,-2044 81.5,-2044 81.5,-2044 75.5,-2044 69.5,-2038 69.5,-2032 69.5,-2032 69.5,-2020 69.5,-2020 69.5,-2014 75.5,-2008 81.5,-2008 81.5,-2008 208.5,-2008 208.5,-2008 214.5,-2008 220.5,-2014 220.5,-2020 220.5,-2020 220.5,-2032 220.5,-2032 220.5,-2038 214.5,-2044 208.5,-2044"/>
<text text-anchor="middle" x="145" y="-2023.2" font-family="Helvetica,sans-Serif" font-size="11.00" fill="#333333">call DigitalOut(LED1, 0)</text>
</g>
<!-- main_N1&#45;&gt;main_N2 -->
<g id="edge2" class="edge">
<title>main_N1&#45;&gt;main_N2</title>
<path fill="none" stroke="black" d="M145,-2112.99C145,-2096.44 145,-2071.1 145,-2052.21"/>
<polygon fill="black" stroke="black" points="147.8,-2052.03 145,-2044.03 142.2,-2052.03 147.8,-2052.03"/>
</g>
<!-- main_N3 -->
<g id="node5" class="node">
<title>main_N3</title>
<polygon fill="#d32f2f" stroke="black" points="231.5,-1939 58.5,-1939 58.5,-1903 231.5,-1903 231.5,-1939"/>
<text text-anchor="middle" x="145" y="-1918.2" font-family="Helvetica,sans-Serif" font-size="11.00" fill="#333333">Define digital input\n&#39;button&#39;</text>
</g>
<!-- main_N2&#45;&gt;main_N3 -->
<g id="edge3" class="edge">
<title>main_N2&#45;&gt;main_N3</title>
<path fill="none" stroke="black" d="M145,-2007.99C145,-1991.44 145,-1966.1 145,-1947.21"/>
<polygon fill="black" stroke="black" points="147.8,-1947.03 145,-1939.03 142.2,-1947.03 147.8,-1947.03"/>
</g>
<!-- main_N4 -->
<g id="node6" class="node">
<title>main_N4</title>
<path fill="#d32f2f" stroke="black" stroke-width="1.2" d="M230.5,-1834C230.5,-1834 59.5,-1834 59.5,-1834 53.5,-1834 47.5,-1828 47.5,-1822 47.5,-1822 47.5,-1810 47.5,-1810 47.5,-1804 53.5,-1798 59.5,-1798 59.5,-1798 230.5,-1798 230.5,-1798 236.5,-1798 242.5,-1804 242.5,-1810 242.5,-1810 242.5,-1822 242.5,-1822 242.5,-1828 236.5,-1834 230.5,-1834"/>
<text text-anchor="middle" x="145" y="-1813.2" font-family="Helvetica,sans-Serif" font-size="11.00" fill="#333333">call DigitalIn(BUTTON1,\nPullUp)</text>
</g>
<!-- main_N3&#45;&gt;main_N4 -->
<g id="edge4" class="edge">
<title>main_N3&#45;&gt;main_N4</title>
<path fill="none" stroke="black" d="M145,-1902.99C145,-1886.44 145,-1861.1 145,-1842.21"/>
<polygon fill="black" stroke="black" points="147.8,-1842.03 145,-1834.03 142.2,-1842.03 147.8,-1842.03"/>
</g>
<!-- main_N5 -->
<g id="node7" class="node">
<title>main_N5</title>
<polygon fill="#d32f2f" stroke="black" points="258.5,-1729 31.5,-1729 31.5,-1693 258.5,-1693 258.5,-1729"/>
<text text-anchor="middle" x="145" y="-1708.2" font-family="Helvetica,sans-Serif" font-size="11.00" fill="#333333">Initialize\n&#39;previous_pressed&#39; to\nfalse</text>
</g>
<!-- main_N4&#45;&gt;main_N5 -->
<g id="edge5" class="edge">
<title>main_N4&#45;&gt;main_N5</title>
<path fill="none" stroke="black" d="M145,-1797.99C145,-1781.44 145,-1756.1 145,-1737.21"/>
<polygon fill="black" stroke="black" points="147.8,-1737.03 145,-1729.03 142.2,-1737.03 147.8,-1737.03"/>
</g>
<!-- main_N6 -->
<g id="node8" class="node">
<title>main_N6</title>
<polygon fill="#d32f2f" stroke="black" points="220.5,-1624 69.5,-1624 69.5,-1588 220.5,-1588 220.5,-1624"/>
<text text-anchor="middle" x="145" y="-1603.2" font-family="Helvetica,sans-Serif" font-size="11.00" fill="#333333">while (true)</text>
</g>
<!-- main_N5&#45;&gt;main_N6 -->
<g id="edge6" class="edge">
<title>main_N5&#45;&gt;main_N6</title>
<path fill="none" stroke="black" d="M145,-1692.99C145,-1676.44 145,-1651.1 145,-1632.21"/>
<polygon fill="black" stroke="black" points="147.8,-1632.03 145,-1624.03 142.2,-1632.03 147.8,-1632.03"/>
</g>
<!-- main_N7 -->
<g id="node9" class="node">
<title>main_N7</title>
<polygon fill="#d32f2f" stroke="black" stroke-width="1.1" points="145,-1519 30,-1486.5 145,-1454 260,-1486.5 145,-1519"/>
<text text-anchor="middle" x="145" y="-1483.7" font-family="Helvetica,sans-Serif" font-size="11.00" fill="#333333">while (true)</text>
</g>
<!-- main_N6&#45;&gt;main_N7 -->
<g id="edge7" class="edge">
<title>main_N6&#45;&gt;main_N7</title>
<path fill="none" stroke="black" d="M145,-1587.91C145,-1572.07 145,-1547.89 145,-1527.23"/>
<polygon fill="black" stroke="black" points="147.8,-1527.22 145,-1519.22 142.2,-1527.22 147.8,-1527.22"/>
</g>
<!-- main_N7&#45;&gt;main_END -->
<g id="edge9" class="edge">
<title>main_N7&#45;&gt;main_END</title>
<path fill="none" stroke="black" stroke-width="1.4" d="M120.8,-1460.61C84.71,-1423.51 21,-1358 21,-1358 21,-1358 21,-1358 21,-1199 21,-1199 52,-669 52,-669 52,-669 52,-669 52,-142 52,-142 91.99,-92.96 116.79,-62.56"/>
<polygon fill="black" stroke="black" stroke-width="1.4" points="119.24,-63.98 122.13,-56.01 114.9,-60.44 119.24,-63.98"/>
<text text-anchor="middle" x="55" y="-723" font-family="Helvetica,sans-Serif" font-size="10.00">No</text>
</g>
<!-- main_N8 -->
<g id="node10" class="node">
<title>main_N8</title>
<polygon fill="#d32f2f" stroke="black" points="275.5,-1375 74.5,-1375 74.5,-1339 275.5,-1339 275.5,-1375"/>
<text text-anchor="middle" x="175" y="-1354.2" font-family="Helvetica,sans-Serif" font-size="11.00" fill="#333333">Read button state into\n&#39;pressed&#39;</text>
</g>
<!-- main_N7&#45;&gt;main_N8 -->
<g id="edge8" class="edge">
<title>main_N7&#45;&gt;main_N8</title>
<path fill="none" stroke="black" stroke-width="1.4" d="M151.96,-1455.93C157.15,-1433.85 164.18,-1404 169.1,-1383.08"/>
<polygon fill="black" stroke="black" stroke-width="1.4" points="171.83,-1383.69 170.94,-1375.26 166.38,-1382.41 171.83,-1383.69"/>
<text text-anchor="middle" x="170" y="-1412" font-family="Helvetica,sans-Serif" font-size="10.00">Yes</text>
</g>
<!-- main_N9 -->
<g id="node11" class="node">
<title>main_N9</title>
<path fill="#d32f2f" stroke="black" stroke-width="1.2" d="M251.5,-1270C251.5,-1270 124.5,-1270 124.5,-1270 118.5,-1270 112.5,-1264 112.5,-1258 112.5,-1258 112.5,-1246 112.5,-1246 112.5,-1240 118.5,-1234 124.5,-1234 124.5,-1234 251.5,-1234 251.5,-1234 257.5,-1234 263.5,-1240 263.5,-1246 263.5,-1246 263.5,-1258 263.5,-1258 263.5,-1264 257.5,-1270 251.5,-1270"/>
<text text-anchor="middle" x="188" y="-1249.2" font-family="Helvetica,sans-Serif" font-size="11.00" fill="#333333">call button.read()</text>
</g>
<!-- main_N8&#45;&gt;main_N9 -->
<g id="edge10" class="edge">
<title>main_N8&#45;&gt;main_N9</title>
<path fill="none" stroke="black" d="M177.15,-1338.99C179.24,-1322.44 182.43,-1297.1 184.82,-1278.21"/>
<polygon fill="black" stroke="black" points="187.63,-1278.32 185.85,-1270.03 182.07,-1277.62 187.63,-1278.32"/>
</g>
<!-- main_N10 -->
<g id="node12" class="node">
<title>main_N10</title>
<polygon fill="#d32f2f" stroke="black" stroke-width="1.1" points="196,-1165 54.11,-1132.5 196,-1100 337.89,-1132.5 196,-1165"/>
<text text-anchor="middle" x="196" y="-1129.7" font-family="Helvetica,sans-Serif" font-size="11.00" fill="#333333">pressed &amp;&amp; !previous_pressed?</text>
</g>
<!-- main_N9&#45;&gt;main_N10 -->
<g id="edge11" class="edge">
<title>main_N9&#45;&gt;main_N10</title>
<path fill="none" stroke="black" d="M189.16,-1233.91C190.25,-1217.96 191.91,-1193.55 193.32,-1172.79"/>
<polygon fill="black" stroke="black" points="196.12,-1172.92 193.87,-1164.75 190.54,-1172.54 196.12,-1172.92"/>
</g>
<!-- main_N11 -->
<g id="node13" class="node">
<title>main_N11</title>
<polygon fill="#d32f2f" stroke="black" points="228.5,-1021 77.5,-1021 77.5,-985 228.5,-985 228.5,-1021"/>
<text text-anchor="middle" x="153" y="-1000.2" font-family="Helvetica,sans-Serif" font-size="11.00" fill="#333333">Toggle LED state</text>
</g>
<!-- main_N10&#45;&gt;main_N11 -->
<g id="edge12" class="edge">
<title>main_N10&#45;&gt;main_N11</title>
<path fill="none" stroke="black" stroke-width="1.4" d="M186.13,-1102.25C178.69,-1080.18 168.59,-1050.22 161.5,-1029.21"/>
<polygon fill="black" stroke="black" stroke-width="1.4" points="164.06,-1028.04 158.85,-1021.35 158.76,-1029.83 164.06,-1028.04"/>
<text text-anchor="middle" x="181" y="-1058" font-family="Helvetica,sans-Serif" font-size="10.00">Yes</text>
</g>
<!-- main_N13 -->
<g id="node15" class="node">
<title>main_N13</title>
<polygon fill="#d32f2f" stroke="black" points="267.5,-801 116.5,-801 116.5,-765 267.5,-765 267.5,-801"/>
<text text-anchor="middle" x="192" y="-780.2" font-family="Helvetica,sans-Serif" font-size="11.00" fill="#333333">Call blink_led()</text>
</g>
<!-- main_N10&#45;&gt;main_N13 -->
<g id="edge13" class="edge">
<title>main_N10&#45;&gt;main_N13</title>
<path fill="none" stroke="black" stroke-width="1.4" d="M208.75,-1102.76C223.26,-1070.02 245,-1021 245,-1021 245,-1021 245,-870 245,-870 245,-870 222.62,-833.68 206.94,-808.25"/>
<polygon fill="black" stroke="black" stroke-width="1.4" points="209.31,-806.74 202.73,-801.4 204.54,-809.68 209.31,-806.74"/>
<text text-anchor="middle" x="252" y="-943" font-family="Helvetica,sans-Serif" font-size="10.00">No</text>
</g>
<!-- main_N12 -->
<g id="node14" class="node">
<title>main_N12</title>
<path fill="#d32f2f" stroke="black" stroke-width="1.2" d="M216.5,-906C216.5,-906 89.5,-906 89.5,-906 83.5,-906 77.5,-900 77.5,-894 77.5,-894 77.5,-882 77.5,-882 77.5,-876 83.5,-870 89.5,-870 89.5,-870 216.5,-870 216.5,-870 222.5,-870 228.5,-876 228.5,-882 228.5,-882 228.5,-894 228.5,-894 228.5,-900 222.5,-906 216.5,-906"/>
<text text-anchor="middle" x="153" y="-885.2" font-family="Helvetica,sans-Serif" font-size="11.00" fill="#333333">call led = !led</text>
</g>
<!-- main_N11&#45;&gt;main_N12 -->
<g id="edge14" class="edge">
<title>main_N11&#45;&gt;main_N12</title>
<path fill="none" stroke="black" d="M153,-984.84C153,-966.09 153,-935.86 153,-914.37"/>
<polygon fill="black" stroke="black" points="155.8,-914.32 153,-906.32 150.2,-914.32 155.8,-914.32"/>
</g>
<!-- main_N12&#45;&gt;main_N13 -->
<g id="edge15" class="edge">
<title>main_N12&#45;&gt;main_N13</title>
<path fill="none" stroke="black" d="M159.44,-869.99C165.76,-853.29 175.48,-827.64 182.65,-808.7"/>
<polygon fill="black" stroke="black" points="185.34,-809.51 185.55,-801.03 180.1,-807.52 185.34,-809.51"/>
</g>
<!-- main_N14 -->
<g id="node16" class="node">
<title>main_N14</title>
<path fill="#d32f2f" stroke="black" stroke-width="1.2" d="M255.5,-686C255.5,-686 128.5,-686 128.5,-686 122.5,-686 116.5,-680 116.5,-674 116.5,-674 116.5,-662 116.5,-662 116.5,-656 122.5,-650 128.5,-650 128.5,-650 255.5,-650 255.5,-650 261.5,-650 267.5,-656 267.5,-662 267.5,-662 267.5,-674 267.5,-674 267.5,-680 261.5,-686 255.5,-686"/>
<text text-anchor="middle" x="192" y="-665.2" font-family="Helvetica,sans-Serif" font-size="11.00" fill="#333333">call blink_led()</text>
</g>
<!-- main_N13&#45;&gt;main_N14 -->
<g id="edge16" class="edge">
<title>main_N13&#45;&gt;main_N14</title>
<path fill="none" stroke="black" d="M192,-764.84C192,-746.09 192,-715.86 192,-694.37"/>
<polygon fill="black" stroke="black" points="194.8,-694.32 192,-686.32 189.2,-694.32 194.8,-694.32"/>
</g>
<!-- main_N15 -->
<g id="node17" class="node">
<title>main_N15</title>
<polygon fill="#d32f2f" stroke="black" points="267.5,-581 116.5,-581 116.5,-545 267.5,-545 267.5,-581"/>
<text text-anchor="middle" x="192" y="-560.2" font-family="Helvetica,sans-Serif" font-size="11.00" fill="#333333">Print &#39;Button is pressed&#39;</text>
</g>
<!-- main_N14&#45;&gt;main_N15 -->
<g id="edge17" class="edge">
<title>main_N14&#45;&gt;main_N15</title>
<path fill="none" stroke="black" d="M192,-649.99C192,-633.44 192,-608.1 192,-589.21"/>
<polygon fill="black" stroke="black" points="194.8,-589.03 192,-581.03 189.2,-589.03 194.8,-589.03"/>
</g>
<!-- main_N16 -->
<g id="node18" class="node">
<title>main_N16</title>
<path fill="#d32f2f" stroke="black" stroke-width="1.2" d="M286.5,-476C286.5,-476 97.5,-476 97.5,-476 91.5,-476 85.5,-470 85.5,-464 85.5,-464 85.5,-452 85.5,-452 85.5,-446 91.5,-440 97.5,-440 97.5,-440 286.5,-440 286.5,-440 292.5,-440 298.5,-446 298.5,-452 298.5,-452 298.5,-464 298.5,-464 298.5,-470 292.5,-476 286.5,-476"/>
<text text-anchor="middle" x="192" y="-455.2" font-family="Helvetica,sans-Serif" font-size="11.00" fill="#333333">call printf(\&quot;Button is\npressed\\n\&quot;)</text>
</g>
<!-- main_N15&#45;&gt;main_N16 -->
<g id="edge18" class="edge">
<title>main_N15&#45;&gt;main_N16</title>
<path fill="none" stroke="black" d="M192,-544.99C192,-528.44 192,-503.1 192,-484.21"/>
<polygon fill="black" stroke="black" points="194.8,-484.03 192,-476.03 189.2,-484.03 194.8,-484.03"/>
</g>
<!-- main_N17 -->
<g id="node19" class="node">
<title>main_N17</title>
<polygon fill="#d32f2f" stroke="black" points="272,-371 110,-371 110,-335 272,-335 272,-371"/>
<text text-anchor="middle" x="191" y="-350.2" font-family="Helvetica,sans-Serif" font-size="11.00" fill="#333333">Update &#39;previous_pressed&#39;</text>
</g>
<!-- main_N16&#45;&gt;main_N17 -->
<g id="edge19" class="edge">
<title>main_N16&#45;&gt;main_N17</title>
<path fill="none" stroke="black" d="M191.83,-439.99C191.67,-423.44 191.43,-398.1 191.24,-379.21"/>
<polygon fill="black" stroke="black" points="194.04,-379.01 191.17,-371.03 188.44,-379.06 194.04,-379.01"/>
</g>
<!-- main_N18 -->
<g id="node20" class="node">
<title>main_N18</title>
<polygon fill="#d32f2f" stroke="black" points="264.5,-266 113.5,-266 113.5,-230 264.5,-230 264.5,-266"/>
<text text-anchor="middle" x="189" y="-245.2" font-family="Helvetica,sans-Serif" font-size="11.00" fill="#333333">Sleep for 10ms</text>
</g>
<!-- main_N17&#45;&gt;main_N18 -->
<g id="edge20" class="edge">
<title>main_N17&#45;&gt;main_N18</title>
<path fill="none" stroke="black" d="M190.67,-334.99C190.35,-318.44 189.86,-293.1 189.49,-274.21"/>
<polygon fill="black" stroke="black" points="192.29,-273.98 189.33,-266.03 186.69,-274.09 192.29,-273.98"/>
</g>
<!-- main_N19 -->
<g id="node21" class="node">
<title>main_N19</title>
<path fill="#d32f2f" stroke="black" stroke-width="1.2" d="M279,-161C279,-161 97,-161 97,-161 91,-161 85,-155 85,-149 85,-149 85,-137 85,-137 85,-131 91,-125 97,-125 97,-125 279,-125 279,-125 285,-125 291,-131 291,-137 291,-137 291,-149 291,-149 291,-155 285,-161 279,-161"/>
<text text-anchor="middle" x="188" y="-140.2" font-family="Helvetica,sans-Serif" font-size="11.00" fill="#333333">call ThisThread::sleep_for(10\nms)</text>
</g>
<!-- main_N18&#45;&gt;main_N19 -->
<g id="edge21" class="edge">
<title>main_N18&#45;&gt;main_N19</title>
<path fill="none" stroke="black" d="M188.83,-229.99C188.67,-213.44 188.43,-188.1 188.24,-169.21"/>
<polygon fill="black" stroke="black" points="191.04,-169.01 188.17,-161.03 185.44,-169.06 191.04,-169.01"/>
</g>
<!-- main_N19&#45;&gt;main_END -->
<g id="edge22" class="edge">
<title>main_N19&#45;&gt;main_END</title>
<path fill="none" stroke="black" d="M179.41,-124.99C170.91,-108.14 157.8,-82.18 148.21,-63.19"/>
<polygon fill="black" stroke="black" points="150.7,-61.91 144.6,-56.03 145.71,-64.44 150.7,-61.91"/>
</g>
</g>
</svg>
